<svg xmlns="http://www.w3.org/2000/svg" viewBox="0 0 48.86 46.33"><defs><style>.cls-1{fill:#63c4c9;}.cls-2{fill:#fbd589;}.cls-3{fill:#facb6b;}.cls-4{fill:#576877;}.cls-5{fill:#f48d6b;}.cls-6{fill:#f17046;}.cls-7{fill:#fff;}</style></defs><title>Asset 12</title><g id="Layer_2" data-name="Layer 2"><g id="circles"><circle class="cls-1" cx="23.47" cy="23.16" r="23.16"/></g><g id="icons"><path class="cls-2" d="M45.59,20.87H24.7a3.28,3.28,0,0,0-3.27,3.3v10.2a3.28,3.28,0,0,0,3.27,3.3h.46v5.16l3.93-5.16h16.5a3.29,3.29,0,0,0,3.27-3.3V24.17A3.28,3.28,0,0,0,45.59,20.87Z"/><path class="cls-3" d="M48.86,34.37V24.17a3.28,3.28,0,0,0-3.27-3.3H41.4L30.79,37.67h14.8A3.29,3.29,0,0,0,48.86,34.37Z"/><rect class="cls-4" x="25.57" y="24.47" width="20.59" height="1.33"/><rect class="cls-4" x="25.57" y="28.4" width="20.59" height="1.33"/><rect class="cls-4" x="25.57" y="32.33" width="11.87" height="1.33"/><path class="cls-5" d="M2.55,7H18.88a2.56,2.56,0,0,1,2.55,2.58v8a2.57,2.57,0,0,1-2.55,2.58h-.36v4l-3.07-4H2.55A2.57,2.57,0,0,1,0,17.58v-8A2.56,2.56,0,0,1,2.55,7Z"/><path class="cls-6" d="M0,17.58v-8A2.56,2.56,0,0,1,2.55,7H5.83l8.29,13.13H2.55A2.57,2.57,0,0,1,0,17.58Z"/><rect class="cls-7" x="2.11" y="9.85" width="16.09" height="1.04"/><rect class="cls-7" x="2.11" y="12.91" width="16.09" height="1.04"/><rect class="cls-7" x="8.92" y="15.98" width="9.28" height="1.04"/><path class="cls-7" d="M16.93,25.8c-1.39.17-1.52.31-1.69,1.7-.16-1.39-.29-1.53-1.68-1.7,1.39-.16,1.52-.3,1.68-1.69C15.41,25.5,15.54,25.64,16.93,25.8Z"/><path class="cls-7" d="M27.26,17c-1.39.17-1.52.3-1.69,1.7-.16-1.4-.29-1.53-1.68-1.7,1.39-.16,1.52-.3,1.68-1.7C25.74,16.72,25.87,16.86,27.26,17Z"/><path class="cls-7" d="M38,16.5c-2.33.28-2.56.5-2.83,2.86-.28-2.36-.51-2.58-2.84-2.86,2.33-.28,2.56-.5,2.84-2.86C35.42,16,35.65,16.22,38,16.5Z"/><path class="cls-7" d="M18.2,33.31c-2.08.25-2.28.45-2.53,2.55-.24-2.1-.44-2.3-2.52-2.55,2.08-.25,2.28-.45,2.52-2.55C15.92,32.86,16.12,33.06,18.2,33.31Z"/><path class="cls-7" d="M10.15,28.4c-2.08.25-2.28.45-2.52,2.55-.25-2.1-.45-2.3-2.53-2.55,2.08-.25,2.28-.45,2.53-2.55C7.87,28,8.07,28.15,10.15,28.4Z"/></g></g></svg>