<svg xmlns="http://www.w3.org/2000/svg" viewBox="0 0 502.39 502.39"><defs><style>.cls-1{fill:#26b99a;}.cls-2{fill:#231f20;}.cls-2,.cls-9{opacity:0.2;}.cls-10,.cls-3,.cls-7{fill:#fff;}.cls-4{fill:#cbe8f5;}.cls-5{fill:#6b9cba;}.cls-6{fill:#0e2037;}.cls-7{opacity:0.1;}.cls-8{fill:#e92b2b;}.cls-10,.cls-8{fill-rule:evenodd;}.cls-11{fill:#e8e8e8;}</style></defs><title>Asset 2</title><g id="Layer_2" data-name="Layer 2"><g id="Layer_1-2" data-name="Layer 1"><path class="cls-1" d="M502.39,251.19c0,138.74-112.46,251.2-251.19,251.2a251.61,251.61,0,0,1-66.75-9C78.1,464.21,0,366.82,0,251.19,0,112.46,112.46,0,251.2,0,364.11,0,459.61,74.47,491.26,177A251.83,251.83,0,0,1,502.39,251.19Z"/><path class="cls-2" d="M74.42,149.35l281,279,71-70.5-281-279Zm48.45.51a11.77,11.77,0,1,1,11.85-11.77A11.82,11.82,0,0,1,122.87,149.86Z"/><path class="cls-3" d="M75.91,144.56l281,279,71-70.49-281-279Zm47,1.74a11.77,11.77,0,1,1,11.85-11.77A11.81,11.81,0,0,1,122.87,146.3Z"/><path class="cls-4" d="M76.8,145.45,356.93,423.54l47.44-47.08L124.23,98.36Zm57.92-9.14a11.86,11.86,0,1,1-11.85-11.77A11.81,11.81,0,0,1,134.72,136.31Z"/><polygon class="cls-5" points="158.81 121.19 161.52 123.88 179.32 106.22 176.61 103.53 158.81 121.19"/><polygon class="cls-5" points="132.59 95.16 135.29 97.85 153.09 80.18 150.38 77.49 132.59 95.16"/><polygon class="cls-5" points="149.74 95.48 152.45 98.17 161.83 88.86 159.13 86.17 149.74 95.48"/><polygon class="cls-5" points="150.07 112.52 152.78 115.2 170.57 97.54 167.87 94.85 150.07 112.52"/><polygon class="cls-5" points="175.97 121.52 178.68 124.2 188.06 114.89 185.35 112.21 175.97 121.52"/><polygon class="cls-5" points="176.3 138.55 179.01 141.24 196.8 123.57 194.09 120.89 176.3 138.55"/><polygon class="cls-5" points="193.45 138.87 196.16 141.56 205.54 132.25 202.84 129.56 193.45 138.87"/><polygon class="cls-5" points="193.78 155.91 196.49 158.6 214.28 140.93 211.58 138.24 193.78 155.91"/><polygon class="cls-5" points="210.94 156.23 213.65 158.92 223.03 149.61 220.32 146.93 210.94 156.23"/><polygon class="cls-5" points="211.27 173.27 213.97 175.96 231.77 158.29 229.06 155.6 211.27 173.27"/><polygon class="cls-5" points="228.42 173.59 231.13 176.28 240.51 166.97 237.8 164.28 228.42 173.59"/><polygon class="cls-5" points="228.75 190.62 231.46 193.31 249.25 175.65 246.54 172.96 228.75 190.62"/><polygon class="cls-5" points="245.91 190.95 248.61 193.63 258 184.32 255.28 181.64 245.91 190.95"/><polygon class="cls-5" points="246.24 207.98 248.94 210.67 266.74 193 264.03 190.32 246.24 207.98"/><polygon class="cls-5" points="263.39 208.3 266.1 210.99 275.48 201.68 272.77 198.99 263.39 208.3"/><polygon class="cls-5" points="263.72 225.34 266.43 228.03 284.23 210.36 281.51 207.67 263.72 225.34"/><polygon class="cls-5" points="280.88 225.66 283.58 228.35 292.96 219.04 290.26 216.35 280.88 225.66"/><polygon class="cls-5" points="281.2 242.7 283.91 245.39 301.71 227.72 298.99 225.03 281.2 242.7"/><polygon class="cls-5" points="298.36 243.02 301.06 245.71 310.45 236.4 307.74 233.71 298.36 243.02"/><polygon class="cls-5" points="298.69 260.06 301.39 262.74 319.19 245.08 316.49 242.39 298.69 260.06"/><polygon class="cls-5" points="315.85 260.38 318.55 263.06 327.93 253.75 325.23 251.07 315.85 260.38"/><polygon class="cls-5" points="316.18 277.41 318.88 280.1 336.68 262.43 333.97 259.75 316.18 277.41"/><polygon class="cls-5" points="333.33 277.73 336.04 280.42 345.42 271.12 342.71 268.43 333.33 277.73"/><polygon class="cls-5" points="333.66 294.77 336.37 297.46 354.16 279.79 351.45 277.1 333.66 294.77"/><polygon class="cls-5" points="350.81 295.09 353.52 297.78 362.9 288.47 360.19 285.78 350.81 295.09"/><polygon class="cls-5" points="351.14 312.13 353.85 314.82 371.64 297.15 368.93 294.46 351.14 312.13"/><polygon class="cls-5" points="368.3 312.45 371.01 315.14 380.39 305.83 377.68 303.14 368.3 312.45"/><polygon class="cls-5" points="368.63 329.49 371.33 332.17 389.13 314.51 386.42 311.82 368.63 329.49"/><polygon class="cls-5" points="385.79 329.81 388.49 332.5 397.87 323.19 395.17 320.5 385.79 329.81"/><polygon class="cls-5" points="386.11 346.84 388.82 349.52 406.61 331.86 403.9 329.18 386.11 346.84"/><polygon class="cls-5" points="403.27 347.17 405.98 349.85 415.36 340.54 412.65 337.86 403.27 347.17"/><polygon class="cls-5" points="403.59 364.2 406.3 366.88 424.1 349.22 421.39 346.53 403.59 364.2"/><path class="cls-6" d="M249.19,209.8c-48,48-85.94,94.51-104,125.6a71.61,71.61,0,0,1,29.71,24.32c31-18.8,75.94-55.72,122.23-102C373,181.77,423.85,109.5,410.62,96.27S325.11,133.87,249.19,209.8Z"/><path class="cls-7" d="M249.19,209.8C173.26,285.72,122.44,358,135.67,371.22l.37.32L410.93,96.64c-.1-.13-.2-.25-.31-.37C397.39,83,325.11,133.87,249.19,209.8Z"/><path class="cls-8" d="M151.53,355.43s-7.1-8.38-11.92-9.75c-23.52-6.64-32.87,16.11-34.9,35.36-1.12,10.77-9.86,24.65-14.29,23.95,7.36,4.1,21.58,4,35.78,1.26s38.6-12,35-39C160.66,363.21,151.53,355.43,151.53,355.43Z"/><g class="cls-9"><path class="cls-10" d="M139.61,345.68c-23.52-6.64-32.87,16.11-34.9,35.36-1.12,10.77-9.86,24.65-14.29,23.95,28.91,4.43,17.39-62.3,59.83-50.33a7.17,7.17,0,0,1,1,.4C150.14,353.42,143.83,346.88,139.61,345.68Z"/><path class="cls-10" d="M98.58,406.17a55.51,55.51,0,0,0-8.93-2.7A26.42,26.42,0,0,0,98.58,406.17Z"/></g><path class="cls-3" d="M139.61,345.68l21.6,21.61c12.66-6.19,29-16.9,47.64-31.16L170.76,298C156.5,316.67,145.78,333,139.61,345.68Z"/><path class="cls-11" d="M150.07,356.14l11.14,11.15c12.66-6.18,29-16.89,47.64-31.15l-19.38-19.39Z"/></g></g></svg>