<svg xmlns="http://www.w3.org/2000/svg" viewBox="0 0 47.47 48.79"><defs><style>.cls-1{fill:#f17046;}.cls-2{fill:#facb6b;}.cls-3{fill:#f9dfa1;}.cls-4{fill:#58595b;opacity:0.3;}.cls-5{fill:#576877;}.cls-6{fill:#798692;}.cls-7{fill:#fff;}</style></defs><title>Asset 4</title><g id="Layer_2" data-name="Layer 2"><g id="circles"><circle class="cls-1" cx="23.16" cy="25.62" r="23.16"/></g><g id="icons"><path class="cls-2" d="M33.72,14.26l0,0-2.26-2.08s-7.62,5.76-13,7.26A84.09,84.09,0,0,1,15.59,32l.74.67,7.31-7.84a6.77,6.77,0,0,1-.48-1.3,2.05,2.05,0,1,1,2.14,2,4.13,4.13,0,0,1-1-.18l-7.47,7.78.67.51c8.5-3.19,12.25-3.72,12.25-3.72C30.86,24.41,36,16.34,36,16.34Z"/><path class="cls-3" d="M29.07,28.88c1-4.95,5.3-11.86,6.16-13.22l-1.51-1.4,0,0-.13-.11c-1.5,2.52-5,8.74-5.92,13.27a49.46,49.46,0,0,1-9.43,4.3l-1.33,1.39C25,30.05,29.07,28.88,29.07,28.88Z"/><path class="cls-4" d="M27.53,14.84l6.1,5.57C34.9,18.05,36,16.34,36,16.34l-2.25-2.08,0,0-.13-.11-2.13-2S29.8,13.38,27.53,14.84Z"/><rect class="cls-5" x="28.98" y="4.27" width="16.82" height="11.93" transform="translate(4.62 30.95) rotate(-47.61)"/><rect class="cls-6" x="30.01" y="9.78" width="16.83" height="2.79" transform="translate(4.27 32.02) rotate(-47.61)"/><path class="cls-7" d="M12.63,24.68H9.72a.44.44,0,0,1-.43-.44V21.33a.43.43,0,0,1,.43-.43h2.91a.43.43,0,0,1,.44.43v2.91A.44.44,0,0,1,12.63,24.68ZM10,24h2.33V21.62H10Z"/><path class="cls-7" d="M30.85,40H27.94a.44.44,0,0,1-.44-.44V36.65a.44.44,0,0,1,.44-.44h2.91a.44.44,0,0,1,.43.44v2.91A.44.44,0,0,1,30.85,40Zm-2.62-.73h2.33V36.94H28.23Z"/><rect class="cls-7" x="2.41" y="30.73" width="13.82" height="0.28" transform="translate(-22.9 32.13) rotate(-75.43)"/><path class="cls-7" d="M8.49,37.21a.88.88,0,1,1-.88-.88A.88.88,0,0,1,8.49,37.21Z"/><polygon class="cls-7" points="14.65 42.24 14.57 41.98 27.84 38.09 27.91 38.36 14.65 42.24"/><path class="cls-7" d="M15.37,42.71a.88.88,0,0,1-1.21-.31.88.88,0,1,1,1.21.31Z"/><path class="cls-7" d="M28.26,38.47H18.43a7.44,7.44,0,0,1-7.61-7.25V24.34h.72v6.88a6.72,6.72,0,0,0,6.89,6.52h9.83Z"/></g></g></svg>