<svg xmlns="http://www.w3.org/2000/svg" xmlns:xlink="http://www.w3.org/1999/xlink" viewBox="0 0 56.5 48.38"><defs><style>.cls-1{fill:none;}.cls-2{fill:#63c4c9;}.cls-3{fill:#f1f2f2;}.cls-4{fill:#d1d3d4;}.cls-5{fill:#fff;}.cls-6{fill:#f17046;}.cls-7{fill:#576877;}.cls-8{fill:#facb6b;}.cls-9{clip-path:url(#clip-path);}.cls-10{fill:#e6e7e8;}</style><clipPath id="clip-path"><circle class="cls-1" cx="33.22" cy="23.23" r="23.23"/></clipPath></defs><title>Asset 8</title><g id="Layer_2" data-name="Layer 2"><g id="circles"><circle class="cls-2" cx="33.33" cy="23.16" r="23.16"/></g><g id="icons"><rect class="cls-3" x="22.54" y="2.66" width="29.69" height="32.98"/><rect class="cls-4" x="22.93" y="2.66" width="29.31" height="3.41"/><rect class="cls-5" x="14.43" y="3.65" width="35.21" height="1.54"/><path class="cls-5" d="M5.42,4.42a.77.77,0,1,1-1.54,0,.77.77,0,1,1,1.54,0Z"/><path class="cls-5" d="M7.87,4.42a.78.78,0,1,1-.78-.77A.78.78,0,0,1,7.87,4.42Z"/><path class="cls-5" d="M10.31,4.42a.77.77,0,1,1-.77-.77A.77.77,0,0,1,10.31,4.42Z"/><rect class="cls-6" x="16.9" y="10.57" width="7.1" height="7.1"/><rect class="cls-7" x="25.09" y="10.57" width="7.1" height="7.1"/><rect class="cls-8" x="33.45" y="10.57" width="7.1" height="7.1"/><rect class="cls-2" x="41.81" y="10.57" width="7.1" height="7.1"/><rect class="cls-8" x="16.9" y="19.29" width="7.1" height="7.1"/><rect class="cls-2" x="25.09" y="19.29" width="7.1" height="7.1"/><rect class="cls-6" x="33.45" y="19.29" width="7.1" height="7.1"/><rect class="cls-7" x="41.81" y="19.29" width="7.1" height="7.1"/><rect class="cls-7" x="16.9" y="28.01" width="7.1" height="7.1"/><rect class="cls-6" x="25.09" y="28.01" width="7.1" height="7.1"/><rect class="cls-2" x="33.45" y="28.01" width="7.1" height="7.1"/><rect class="cls-8" x="41.81" y="28.01" width="7.1" height="7.1"/><rect class="cls-7" x="25.09" y="36.73" width="7.1" height="7.1"/><rect class="cls-8" x="33.45" y="36.73" width="7.1" height="7.1"/><g class="cls-9"><rect class="cls-3" y="2.67" width="52.12" height="45.71"/><rect class="cls-4" y="2.67" width="52.12" height="3.42"/><rect class="cls-5" x="14.2" y="3.66" width="35.44" height="1.55"/><path class="cls-5" d="M5.16,4.44a.77.77,0,1,1-1.54,0,.77.77,0,1,1,1.54,0Z"/><path class="cls-5" d="M7.62,4.44a.78.78,0,1,1-.78-.78A.78.78,0,0,1,7.62,4.44Z"/><circle class="cls-5" cx="9.3" cy="4.44" r="0.77"/><rect class="cls-6" x="16.68" y="10.61" width="7.12" height="7.12"/><rect class="cls-7" x="24.89" y="10.61" width="7.12" height="7.12"/><rect class="cls-8" x="33.28" y="10.61" width="7.12" height="7.12"/><rect class="cls-2" x="41.67" y="10.61" width="7.12" height="7.12"/><rect class="cls-8" x="16.68" y="19.35" width="7.12" height="7.12"/><rect class="cls-2" x="24.89" y="19.35" width="7.12" height="7.12"/><rect class="cls-6" x="33.28" y="19.35" width="7.12" height="7.12"/><rect class="cls-7" x="41.67" y="19.35" width="7.12" height="7.12"/><rect class="cls-7" x="16.68" y="28.09" width="7.12" height="7.12"/><rect class="cls-6" x="24.89" y="28.09" width="7.12" height="7.12"/><rect class="cls-2" x="33.28" y="28.09" width="7.12" height="7.12"/><rect class="cls-8" x="41.67" y="28.09" width="7.12" height="7.12"/><rect class="cls-6" x="16.68" y="36.84" width="7.12" height="7.12"/><rect class="cls-7" x="24.89" y="36.84" width="7.12" height="7.12"/><rect class="cls-8" x="33.28" y="36.84" width="7.12" height="7.12"/><rect class="cls-2" x="41.67" y="36.84" width="7.12" height="7.12"/><path class="cls-4" d="M11.14,14.59a2.86,2.86,0,1,1-2.85-2.85A2.85,2.85,0,0,1,11.14,14.59Z"/><rect class="cls-4" x="5.25" y="19.64" width="6.08" height="1.57"/><rect class="cls-10" x="2.16" y="23.23" width="12.27" height="1.57"/><rect class="cls-10" x="2.16" y="26.11" width="12.27" height="1.57"/><rect class="cls-10" x="2.16" y="28.99" width="12.27" height="1.57"/><rect class="cls-10" x="2.16" y="31.87" width="12.27" height="1.57"/><rect class="cls-10" x="2.16" y="34.74" width="12.27" height="1.57"/></g></g></g></svg>