<?xml version="1.0" encoding="utf-8"?>
<!-- Generator: Adobe Illustrator 22.1.0, SVG Export Plug-In . SVG Version: 6.00 Build 0)  -->
<svg version="1.1" id="Layer_1" xmlns="http://www.w3.org/2000/svg" xmlns:xlink="http://www.w3.org/1999/xlink" x="0px" y="0px"
	 viewBox="0 0 154.9 113.4" style="enable-background:new 0 0 154.9 113.4;" xml:space="preserve">
<style type="text/css">
	.st0{clip-path:url(#SVGID_2_);fill:url(#SVGID_3_);}
	.st1{clip-path:url(#SVGID_2_);fill:#FFFFFF;}
	.st2{fill:#FFFFFF;}
</style>
<g>
	<defs>
		<rect id="SVGID_1_" x="0" y="0" width="154.9" height="113.4"/>
	</defs>
	<clipPath id="SVGID_2_">
		<use xlink:href="#SVGID_1_"  style="overflow:visible;"/>
	</clipPath>
	<linearGradient id="SVGID_3_" gradientUnits="userSpaceOnUse" x1="82.9529" y1="96.0303" x2="67.8904" y2="-11.8499">
		<stop  offset="0" style="stop-color:#CAFAFF"/>
		<stop  offset="1" style="stop-color:#66CBE7"/>
	</linearGradient>
	<rect x="0" y="0" class="st0" width="154.9" height="113.4"/>
	<g style="clip-path:url(#SVGID_2_);">
		
			<image style="overflow:visible;" width="321" height="116" xlink:href="54B0AC15.png"  transform="matrix(0.24 0 0 0.24 -15.3836 59.438)">
		</image>
	</g>
	<g style="clip-path:url(#SVGID_2_);">
		
			<image style="overflow:visible;" width="108" height="197" xlink:href="54B0AC1F.png"  transform="matrix(0.24 0 0 0.24 93.0964 35.918)">
		</image>
	</g>
	<path class="st1" d="M115.1,42.4v35.1H39.8V42.4H115.1z M114.2,76.6V43.2H40.7v33.4H114.2z"/>
	<g style="clip-path:url(#SVGID_2_);">
		
			<image style="overflow:visible;" width="89" height="265" xlink:href="54B0AC11.png"  transform="matrix(0.24 0 0 0.24 45.0964 22.478)">
		</image>
	</g>
	<rect x="45.6" y="42.4" class="st1" width="27.2" height="0.9"/>
	<g style="clip-path:url(#SVGID_2_);">
		
			<image style="overflow:visible;" width="251" height="257" xlink:href="54B0AC12.png"  transform="matrix(0.24 0 0 0.24 46.2964 21.998)">
		</image>
	</g>
	<g style="clip-path:url(#SVGID_2_);">
		
			<image style="overflow:visible;" width="300" height="233" xlink:href="54B0AC13.png"  transform="matrix(0.24 0 0 0.24 100.5364 35.438)">
		</image>
	</g>
</g>
<g>
	
		<image style="overflow:visible;opacity:0.69;" width="228" height="131" xlink:href="54B0AC14.png"  transform="matrix(0.24 0 0 0.24 51.0964 46.238)">
	</image>
	<g>
		<g>
			<path class="st2" d="M58.7,56.6c-0.7,0.2-1,0.3-1.6,0.3c-1.2,0-2.1-0.9-2.1-2.3V53h-1v-1.5h1v-1.7h1.7v1.7h1.7V53h-1.7v1.5
				c0,0.5,0.3,0.8,0.8,0.8c0.2,0,0.5-0.1,0.9-0.1L58.7,56.6z"/>
			<path class="st2" d="M65.2,53.1c-0.8,0-1.4,0.3-1.8,0.6v2.9h-1.7v-5.1h1.7v0.6c0.5-0.4,1-0.6,1.8-0.6V53.1z"/>
			<path class="st2" d="M82.1,53.8v2.9h-1.7V54c0-0.7-0.4-1.1-0.9-1.1c-0.3,0-0.6,0.2-0.9,0.5v3.2h-1.7v-5.1h1.7v0.3
				c0.4-0.3,0.9-0.5,1.4-0.5C81.2,51.4,82.1,52.3,82.1,53.8z"/>
			<path class="st2" d="M90.7,56.7H89v-0.3c-0.4,0.2-0.8,0.4-1.4,0.4c-1.4,0-2.6-1.2-2.6-2.7c0-1.5,1.2-2.7,2.6-2.7
				c0.6,0,1,0.1,1.4,0.4v-2.7h1.7V56.7z M89,54.9v-1.6c-0.3-0.4-0.7-0.5-1.1-0.5c-0.7,0-1.2,0.6-1.2,1.3c0,0.7,0.5,1.3,1.2,1.3
				C88.3,55.4,88.7,55.3,89,54.9z"/>
			<path class="st2" d="M96.7,59.1h-1.8l1-2.3l-2.4-5.2h1.8l1.5,3.2l1.3-3.2h1.8L96.7,59.1z"/>
			<path class="st2" d="M74,54.6h-3.8c0.1,0.5,0.5,0.8,1.2,0.8c0.4,0,0.7-0.1,0.8-0.4H74c-0.3,1.1-1.3,1.8-2.6,1.8
				c-1.8,0-2.9-1.2-2.9-2.8c0-1.6,1.1-2.8,2.9-2.8c1.5,0,2.7,1.1,2.7,2.7C74.1,54.1,74.1,54.4,74,54.6z M70.2,53.5h2.1
				c-0.1-0.6-0.5-0.9-1-0.9C70.7,52.6,70.4,53,70.2,53.5z"/>
		</g>
		<g>
			<path class="st2" d="M60,69.2h-1.8V69c-0.4,0.3-0.9,0.4-1.5,0.4c-1.4,0-2.7-1.2-2.7-2.8c0-1.6,1.2-2.8,2.7-2.8
				c0.6,0,1.1,0.2,1.5,0.4v-2.8H60V69.2z M58.2,67.4v-1.7c-0.3-0.4-0.7-0.5-1.1-0.5c-0.7,0-1.3,0.6-1.3,1.3c0,0.8,0.5,1.3,1.3,1.3
				C57.5,67.9,57.9,67.8,58.2,67.4z"/>
			<path class="st2" d="M68.7,67.1H65c0.1,0.5,0.5,0.8,1.2,0.8c0.4,0,0.7-0.1,0.8-0.4h1.8c-0.3,1.1-1.3,1.8-2.6,1.8
				c-1.8,0-2.9-1.2-2.9-2.8c0-1.6,1.1-2.8,2.9-2.8c1.5,0,2.7,1.1,2.7,2.7C68.8,66.7,68.8,66.9,68.7,67.1z M65,66h2.1
				c-0.1-0.6-0.5-0.9-1-0.9C65.4,65.1,65.1,65.5,65,66z"/>
			<path class="st2" d="M73.2,67.4c0.1,0.5,0.5,0.7,1,0.7c0.5,0,0.8-0.1,0.8-0.4c0-0.2-0.2-0.3-0.5-0.4l-1.1-0.2
				c-0.9-0.2-1.6-0.7-1.6-1.6c0-1.1,1-1.8,2.4-1.8c1.1,0,2.4,0.4,2.5,1.9h-1.6c0-0.4-0.4-0.6-0.9-0.6c-0.5,0-0.7,0.2-0.7,0.4
				c0,0.2,0.1,0.3,0.6,0.4l1,0.2c1,0.2,1.7,0.7,1.7,1.6c0,1.2-1.1,1.8-2.5,1.8c-1.4,0-2.5-0.6-2.6-2L73.2,67.4z"/>
			<path class="st2" d="M79.8,62c0-0.6,0.5-1,1-1c0.6,0,1,0.4,1,1c0,0.6-0.5,1-1,1C80.2,63,79.8,62.6,79.8,62z M81.7,69.2h-1.8v-5.4
				h1.8V69.2z"/>
			<path class="st2" d="M90.9,69.2c0,1.7-1.2,2.7-2.9,2.7c-1.6,0-2.8-0.9-2.9-2.3h1.8c0.1,0.5,0.5,0.8,1.1,0.8
				c0.6,0,1.1-0.4,1.1-1.1v-0.5c-0.4,0.2-0.9,0.4-1.5,0.4c-1.5,0-2.7-1.2-2.7-2.6c0-1.6,1.2-2.8,2.7-2.8c0.6,0,1.1,0.2,1.5,0.4v-0.2
				h1.8V69.2z M89.1,67.1v-1.5c-0.3-0.4-0.7-0.5-1.1-0.5c-0.7,0-1.3,0.5-1.3,1.3c0,0.6,0.5,1.2,1.3,1.2
				C88.4,67.6,88.8,67.5,89.1,67.1z"/>
			<path class="st2" d="M99.9,66.2v3.1h-1.8v-2.8c0-0.8-0.4-1.1-1-1.1c-0.3,0-0.7,0.2-1,0.5v3.4h-1.8v-5.4h1.8v0.4
				c0.4-0.3,0.9-0.5,1.5-0.5C99,63.7,99.9,64.7,99.9,66.2z"/>
		</g>
	</g>
</g>
</svg>
