<svg xmlns="http://www.w3.org/2000/svg" viewBox="0 0 46.33 46.33"><defs><style>.cls-1{fill:#f17046;}.cls-2{fill:#e6e7e8;}.cls-3{fill:#576877;}.cls-4{fill:#facb6b;}.cls-5{fill:#63c4c9;}.cls-6{fill:#4e5e6b;}.cls-7{fill:#414e59;}.cls-8{fill:#fce0a6;}.cls-9{fill:#fbb040;}</style></defs><title>Asset 10</title><g id="Layer_2" data-name="Layer 2"><g id="circles"><circle class="cls-1" cx="23.16" cy="23.16" r="23.16" transform="translate(-4.74 40.32) rotate(-76.58)"/></g><g id="icons"><rect class="cls-2" x="2.54" y="15.84" width="37.82" height="22.51" transform="translate(-4.91 4.74) rotate(-11.33)"/><rect class="cls-3" x="4.24" y="17.54" width="34.43" height="19.12" transform="translate(-4.91 4.74) rotate(-11.33)"/><rect class="cls-2" x="12.64" y="9.17" width="22.51" height="37.82" transform="translate(-6.03 49.63) rotate(-85.36)"/><rect class="cls-4" x="14.34" y="10.87" width="19.12" height="34.43" transform="translate(-6.03 49.63) rotate(-85.37)"/><rect class="cls-2" x="3.9" y="21.64" width="37.82" height="22.51"/><rect class="cls-5" x="5.6" y="23.33" width="34.43" height="19.12"/><polygon class="cls-6" points="14.43 42.45 19.5 33.15 25.29 42.45 14.43 42.45"/><polygon class="cls-7" points="17.29 37.2 24.08 42.45 16.75 42.45 17.29 37.2"/><polygon class="cls-3" points="5.6 42.45 12.59 29.63 20.55 42.45 5.6 42.45"/><path class="cls-8" d="M23.9,27.1a2.81,2.81,0,1,1-2.81-2.8A2.8,2.8,0,0,1,23.9,27.1Z"/><path class="cls-4" d="M23,27.1a1.9,1.9,0,1,1-1.9-1.89A1.9,1.9,0,0,1,23,27.1Z"/><path class="cls-9" d="M22.31,27.1a1.22,1.22,0,1,1-1.22-1.21A1.22,1.22,0,0,1,22.31,27.1Z"/></g></g></svg>