<svg xmlns="http://www.w3.org/2000/svg" xmlns:xlink="http://www.w3.org/1999/xlink" viewBox="0 0 54.13 46.33"><defs><style>.cls-1{fill:#fff;}.cls-2{fill:#facb6b;}.cls-3,.cls-7{fill:#414042;}.cls-4{fill:#e6e7e8;}.cls-5{fill:#bcbec0;}.cls-6{fill:#939598;}.cls-7{opacity:0.3;}.cls-8{fill:#efefef;}.cls-9{fill:#f17046;}.cls-10{fill:#63c4c9;}.cls-11{fill:#d8d8d8;}.cls-12{fill:#2d4255;}.cls-13{clip-path:url(#clip-path);}</style><clipPath id="clip-path"><path class="cls-1" d="M45,22.18a7,7,0,1,1-7-7A7,7,0,0,1,45,22.18Z"/></clipPath></defs><title>Asset 7</title><g id="Layer_2" data-name="Layer 2"><g id="circles"><circle class="cls-2" cx="24.77" cy="23.16" r="23.16"/></g><g id="icons"><path class="cls-3" d="M45.5,42.43v1.69H1.85V22.54a1.64,1.64,0,0,1,1.59-1.68H43.92a1.63,1.63,0,0,1,1.58,1.68Z"/><rect class="cls-1" x="3.77" y="22.47" width="39.8" height="20.02"/><path class="cls-4" d="M47.35,44.36a.27.27,0,0,0-.26-.27H.27a.27.27,0,0,0-.27.27L0,45H47.34Z"/><path class="cls-5" d="M0,45l.46.6a.56.56,0,0,0,.47.26H46.47a.52.52,0,0,0,.41-.26l.46-.6Z"/><path class="cls-6" d="M17.58,44.09v.31c0,.08.13.15.29.15H29.48c.17,0,.3-.07.3-.15v-.31Z"/><polygon class="cls-7" points="6.28 10.56 6.28 12.21 7.58 42.55 39.58 42.55 41.08 12.21 41.08 10.56 6.28 10.56"/><rect class="cls-8" x="7.68" y="10.56" width="32" height="31.99"/><rect class="cls-9" x="7.68" y="10.56" width="32" height="1.65"/><rect class="cls-10" x="14.34" y="16.24" width="21.71" height="8.51"/><rect class="cls-9" x="10.31" y="16.24" width="3.26" height="2.47"/><rect class="cls-9" x="10.31" y="28.91" width="3.26" height="2.47"/><rect class="cls-11" x="10.31" y="32.08" width="3.26" height="2.47"/><rect class="cls-12" x="10.31" y="25.75" width="3.26" height="2.47"/><rect class="cls-9" x="14.34" y="25.32" width="10.49" height="9.18"/><rect class="cls-2" x="25.56" y="25.32" width="10.49" height="9.18"/><rect class="cls-2" x="10.31" y="19.41" width="3.27" height="2.47"/><rect class="cls-11" x="10.31" y="22.58" width="3.27" height="2.47"/><path class="cls-1" d="M10,11.39a.41.41,0,0,1-.82,0,.41.41,0,0,1,.82,0Z"/><path class="cls-1" d="M11.62,11.39a.41.41,0,0,1-.41.41.42.42,0,0,1-.41-.41.41.41,0,0,1,.41-.41A.41.41,0,0,1,11.62,11.39Z"/><path class="cls-1" d="M13.22,11.39a.41.41,0,0,1-.41.41.42.42,0,0,1-.41-.41.41.41,0,0,1,.41-.41A.41.41,0,0,1,13.22,11.39Z"/><rect class="cls-11" x="16.06" y="35.5" width="16.85" height="1.38"/><rect class="cls-11" x="11.62" y="37.81" width="12.05" height="0.69"/><rect class="cls-11" x="11.55" y="39.12" width="6.03" height="0.69"/><rect class="cls-11" x="18.5" y="39.12" width="3.85" height="0.69"/><rect class="cls-11" x="23.68" y="39.12" width="10.9" height="0.69"/><rect class="cls-11" x="14.96" y="40.42" width="15.85" height="0.69"/><rect class="cls-11" x="24.48" y="37.81" width="12.56" height="0.69"/><path class="cls-9" d="M38,30.3a8.13,8.13,0,1,1,8.13-8.12A8.13,8.13,0,0,1,38,30.3Z"/><path class="cls-1" d="M45,22.18a7,7,0,1,1-7-7A7,7,0,0,1,45,22.18Z"/><g class="cls-13"><rect class="cls-12" x="30.4" y="21.62" width="9.99" height="0.56"/><rect class="cls-12" x="30.4" y="22.95" width="11.68" height="0.56"/><rect class="cls-12" x="30.4" y="26.87" width="11.68" height="0.56"/><rect class="cls-12" x="30.4" y="28.41" width="6.94" height="0.56"/><rect class="cls-12" x="38.6" y="28.41" width="13.45" height="0.56"/><rect class="cls-12" x="43.48" y="26.87" width="5.52" height="0.56"/><rect class="cls-12" x="50.08" y="26.87" width="3.95" height="0.56"/><rect class="cls-12" x="30.4" y="24.26" width="6.94" height="0.99"/><rect class="cls-12" x="40.73" y="21.62" width="2.76" height="0.56"/><rect class="cls-12" x="44.55" y="21.62" width="2.76" height="0.56"/><rect class="cls-12" x="30.51" y="14.87" width="11.68" height="0.56"/><rect class="cls-12" x="30.51" y="18.79" width="11.68" height="0.56"/><rect class="cls-12" x="30.51" y="20.33" width="6.94" height="0.56"/><rect class="cls-12" x="38.71" y="20.33" width="13.45" height="0.56"/><rect class="cls-12" x="43.59" y="18.79" width="5.52" height="0.56"/><rect class="cls-12" x="50.19" y="18.79" width="3.95" height="0.56"/><rect class="cls-12" x="30.51" y="16.18" width="6.94" height="0.99"/></g></g></g></svg>