<svg xmlns="http://www.w3.org/2000/svg" xmlns:xlink="http://www.w3.org/1999/xlink" viewBox="0 0 177.06 155"><defs><style>.cls-1{fill:none;}.cls-2{fill:#ffdb79;}.cls-3{clip-path:url(#clip-path);}.cls-4{fill:#fff;}.cls-5{fill:#d9d8d7;}.cls-6{fill:#232e38;}.cls-7{fill:#474f59;}.cls-8{fill:#e6e5e5;}.cls-9{fill:#f2f2f2;}.cls-10{fill:#cccbca;}.cls-11{fill:#353f49;}.cls-12{fill:#ff916e;}.cls-13{fill:#f77b55;}</style><clipPath id="clip-path"><circle class="cls-1" cx="77.5" cy="77.5" r="77.5"/></clipPath></defs><title>Asset 2</title><g id="Layer_2" data-name="Layer 2"><g id="Layer_3" data-name="Layer 3"><circle class="cls-2" cx="77.5" cy="77.5" r="77.5"/><g class="cls-3"><rect class="cls-4" x="114.36" y="45.5" width="62.69" height="52.7"/></g><path class="cls-5" d="M7.41,77.5v52.44A4.58,4.58,0,0,0,12,134.5H100a4.56,4.56,0,0,0,4.55-4.56V77.5Z"/><rect class="cls-4" x="43.93" y="116.3" width="24.13" height="14.63" rx="0.37" ry="0.37"/><path class="cls-4" d="M18.1,87.8a.29.29,0,0,1-.28.29H13.48a.29.29,0,0,1-.28-.29V83.46a.29.29,0,0,1,.28-.28h4.34a.29.29,0,0,1,.28.28Z"/><path class="cls-4" d="M27.08,93.77a.28.28,0,0,1-.27.29H22.47a.29.29,0,0,1-.29-.29V89.43a.29.29,0,0,1,.29-.28h4.34a.28.28,0,0,1,.27.28Z"/><path class="cls-4" d="M28.5,99.75a.28.28,0,0,1-.28.28H23.89a.29.29,0,0,1-.29-.28V95.41a.28.28,0,0,1,.29-.28h4.33a.27.27,0,0,1,.28.28Z"/><path class="cls-4" d="M25.59,105.72a.29.29,0,0,1-.29.28H21a.29.29,0,0,1-.28-.28v-4.34a.28.28,0,0,1,.28-.28H25.3a.28.28,0,0,1,.29.28Z"/><path class="cls-4" d="M18.1,112.44a.29.29,0,0,1-.28.29H13.48a.29.29,0,0,1-.28-.29v-5.09a.28.28,0,0,1,.28-.28h4.34a.28.28,0,0,1,.28.28Z"/><path class="cls-4" d="M24.05,112.44a.28.28,0,0,1-.27.29H19.44a.29.29,0,0,1-.29-.29v-5.09a.28.28,0,0,1,.29-.28h4.34a.27.27,0,0,1,.27.28Z"/><path class="cls-4" d="M30,112.44a.3.3,0,0,1-.29.29H25.39a.29.29,0,0,1-.28-.29v-5.09a.28.28,0,0,1,.28-.28h4.34a.29.29,0,0,1,.29.28Z"/><path class="cls-4" d="M80.89,112.44a.3.3,0,0,1-.29.29H76.26a.29.29,0,0,1-.28-.29v-5.09a.28.28,0,0,1,.28-.28H80.6a.29.29,0,0,1,.29.28Z"/><path class="cls-4" d="M86.85,112.44a.28.28,0,0,1-.27.29H82.24a.28.28,0,0,1-.29-.29v-2.26a.28.28,0,0,1,.29-.28h4.34a.27.27,0,0,1,.27.28Z"/><path class="cls-4" d="M98.79,112.44a.28.28,0,0,1-.28.29H94.18a.3.3,0,0,1-.29-.29v-2.26a.29.29,0,0,1,.29-.28h4.33a.27.27,0,0,1,.28.28Z"/><path class="cls-4" d="M37.52,112.44a.28.28,0,0,1-.27.29h-5.9a.28.28,0,0,1-.28-.29v-5.09a.27.27,0,0,1,.28-.28h5.9a.27.27,0,0,1,.27.28Z"/><path class="cls-4" d="M74.91,112.44a.28.28,0,0,1-.29.29H68.73a.29.29,0,0,1-.28-.29v-5.09a.28.28,0,0,1,.28-.28h5.89a.28.28,0,0,1,.29.28Z"/><path class="cls-4" d="M67.38,112.44a.29.29,0,0,1-.28.29H38.87a.29.29,0,0,1-.28-.29v-5.09a.28.28,0,0,1,.28-.28H67.1a.28.28,0,0,1,.28.28Z"/><path class="cls-4" d="M31.55,105.72a.29.29,0,0,1-.28.28H26.93a.29.29,0,0,1-.28-.28v-4.34a.28.28,0,0,1,.28-.28h4.34a.28.28,0,0,1,.28.28Z"/><path class="cls-4" d="M37.52,105.72a.28.28,0,0,1-.27.28H32.91a.29.29,0,0,1-.29-.28v-4.34a.28.28,0,0,1,.29-.28h4.34a.27.27,0,0,1,.27.28Z"/><path class="cls-4" d="M43.5,105.72a.29.29,0,0,1-.29.28H38.87a.29.29,0,0,1-.28-.28v-4.34a.28.28,0,0,1,.28-.28h4.34a.28.28,0,0,1,.29.28Z"/><path class="cls-4" d="M49.46,105.72a.28.28,0,0,1-.27.28H44.85a.29.29,0,0,1-.29-.28v-4.34a.28.28,0,0,1,.29-.28h4.34a.27.27,0,0,1,.27.28Z"/><rect class="cls-4" x="50.54" y="101.1" width="4.9" height="4.9" rx="0.28" ry="0.28"/><path class="cls-4" d="M61.41,105.72a.28.28,0,0,1-.28.28H56.79a.29.29,0,0,1-.28-.28v-4.34a.28.28,0,0,1,.28-.28h4.34a.27.27,0,0,1,.28.28Z"/><rect class="cls-4" x="62.48" y="101.1" width="4.9" height="4.9" rx="0.28" ry="0.28"/><path class="cls-4" d="M73.35,105.72a.28.28,0,0,1-.28.28H68.73a.29.29,0,0,1-.28-.28v-4.34a.28.28,0,0,1,.28-.28h4.34a.27.27,0,0,1,.28.28Z"/><rect class="cls-4" x="74.43" y="101.1" width="4.9" height="4.9" rx="0.28" ry="0.28"/><path class="cls-4" d="M85.3,105.72A.29.29,0,0,1,85,106H80.68a.29.29,0,0,1-.29-.28v-4.34a.28.28,0,0,1,.29-.28H85a.28.28,0,0,1,.28.28Z"/><path class="cls-4" d="M98.79,105.72a.28.28,0,0,1-.27.28H86.7a.29.29,0,0,1-.29-.28v-4.34a.28.28,0,0,1,.29-.28H98.52a.27.27,0,0,1,.27.28Z"/><path class="cls-4" d="M34.48,99.75a.28.28,0,0,1-.29.28H29.85a.28.28,0,0,1-.27-.28V95.41a.27.27,0,0,1,.27-.28h4.34a.28.28,0,0,1,.29.28Z"/><rect class="cls-4" x="35.54" y="95.13" width="4.9" height="4.9" rx="0.28" ry="0.28"/><path class="cls-4" d="M46.42,99.75a.29.29,0,0,1-.29.28H41.79a.28.28,0,0,1-.27-.28V95.41a.27.27,0,0,1,.27-.28h4.34a.28.28,0,0,1,.29.28Z"/><path class="cls-4" d="M52.4,99.75a.3.3,0,0,1-.29.28H47.77a.29.29,0,0,1-.28-.28V95.41a.28.28,0,0,1,.28-.28h4.34a.29.29,0,0,1,.29.28Z"/><path class="cls-4" d="M58.36,99.75a.29.29,0,0,1-.28.28H53.75a.29.29,0,0,1-.29-.28V95.41a.28.28,0,0,1,.29-.28h4.33a.28.28,0,0,1,.28.28Z"/><path class="cls-4" d="M64.33,99.75a.28.28,0,0,1-.28.28H59.71a.29.29,0,0,1-.28-.28V95.41a.28.28,0,0,1,.28-.28h4.34a.27.27,0,0,1,.28.28Z"/><path class="cls-4" d="M70.31,99.75A.3.3,0,0,1,70,100H65.69a.29.29,0,0,1-.29-.28V95.41a.28.28,0,0,1,.29-.28H70a.29.29,0,0,1,.29.28Z"/><path class="cls-4" d="M76.27,99.75A.28.28,0,0,1,76,100H71.66a.29.29,0,0,1-.29-.28V95.41a.28.28,0,0,1,.29-.28H76a.27.27,0,0,1,.27.28Z"/><path class="cls-4" d="M82.25,99.75A.28.28,0,0,1,82,100H77.63a.28.28,0,0,1-.28-.28V95.41a.27.27,0,0,1,.28-.28H82a.28.28,0,0,1,.29.28Z"/><rect class="cls-4" x="83.31" y="95.13" width="4.9" height="4.9" rx="0.28" ry="0.28"/><path class="cls-4" d="M94.19,99.75a.29.29,0,0,1-.28.28H89.57a.28.28,0,0,1-.28-.28V95.41a.27.27,0,0,1,.28-.28h4.34a.28.28,0,0,1,.28.28Z"/><path class="cls-4" d="M28.44,89.15h4.34a.28.28,0,0,1,.28.28v4.34a.28.28,0,0,1-.28.28H28.44a.28.28,0,0,1-.28-.28V89.44A.29.29,0,0,1,28.44,89.15Z"/><path class="cls-4" d="M39,93.77a.3.3,0,0,1-.29.29H34.41a.29.29,0,0,1-.28-.29V89.43a.29.29,0,0,1,.28-.28h4.34a.3.3,0,0,1,.29.28Z"/><path class="cls-4" d="M45,93.77a.28.28,0,0,1-.28.29H40.39a.29.29,0,0,1-.29-.29V89.43a.29.29,0,0,1,.29-.28h4.33a.28.28,0,0,1,.28.28Z"/><path class="cls-4" d="M51,93.77a.29.29,0,0,1-.29.29H46.35a.29.29,0,0,1-.28-.29V89.43a.29.29,0,0,1,.28-.28h4.34a.29.29,0,0,1,.29.28Z"/><path class="cls-4" d="M57,93.77a.29.29,0,0,1-.29.29H52.33a.29.29,0,0,1-.28-.29V89.43a.29.29,0,0,1,.28-.28h4.33a.29.29,0,0,1,.29.28Z"/><path class="cls-4" d="M62.91,93.77a.28.28,0,0,1-.27.29H58.3a.29.29,0,0,1-.29-.29V89.43a.29.29,0,0,1,.29-.28h4.34a.28.28,0,0,1,.27.28Z"/><path class="cls-4" d="M68.89,93.77a.28.28,0,0,1-.28.29H64.27a.29.29,0,0,1-.28-.29V89.43a.29.29,0,0,1,.28-.28h4.34a.28.28,0,0,1,.28.28Z"/><path class="cls-4" d="M74.87,93.77a.3.3,0,0,1-.29.29H70.24a.29.29,0,0,1-.28-.29V89.43a.29.29,0,0,1,.28-.28h4.34a.3.3,0,0,1,.29.28Z"/><path class="cls-4" d="M80.83,93.77a.28.28,0,0,1-.27.29H76.22a.29.29,0,0,1-.29-.29V89.43a.29.29,0,0,1,.29-.28h4.34a.28.28,0,0,1,.27.28Z"/><path class="cls-4" d="M86.81,93.77a.29.29,0,0,1-.29.29H82.18a.28.28,0,0,1-.27-.29V89.43a.28.28,0,0,1,.27-.28h4.34a.29.29,0,0,1,.29.28Z"/><path class="cls-4" d="M92.77,93.77a.28.28,0,0,1-.27.29H88.16a.3.3,0,0,1-.29-.29V89.43a.3.3,0,0,1,.29-.28H92.5a.28.28,0,0,1,.27.28Z"/><path class="cls-4" d="M21.12,93.77a.28.28,0,0,1-.29.29H13.48a.29.29,0,0,1-.28-.29V89.43a.29.29,0,0,1,.28-.28h7.35a.28.28,0,0,1,.29.28Z"/><path class="cls-4" d="M98.79,87.8a.29.29,0,0,1-.28.29H91.16a.29.29,0,0,1-.29-.29V83.46a.29.29,0,0,1,.29-.28h7.35a.29.29,0,0,1,.28.28Z"/><path class="cls-4" d="M22.53,99.75a.29.29,0,0,1-.28.28H13.48a.29.29,0,0,1-.28-.28V95.41a.28.28,0,0,1,.28-.28h8.77a.28.28,0,0,1,.28.28Z"/><path class="cls-4" d="M19.61,105.72a.29.29,0,0,1-.28.28H13.48a.29.29,0,0,1-.28-.28v-4.34a.28.28,0,0,1,.28-.28h5.85a.28.28,0,0,1,.28.28Z"/><path class="cls-4" d="M24.07,87.8a.28.28,0,0,1-.28.29H19.46a.28.28,0,0,1-.29-.29V83.46a.28.28,0,0,1,.29-.28h4.33a.28.28,0,0,1,.28.28Z"/><path class="cls-4" d="M30,87.8a.28.28,0,0,1-.29.29H25.42a.28.28,0,0,1-.27-.29V83.46a.28.28,0,0,1,.27-.28h4.33a.28.28,0,0,1,.29.28Z"/><path class="cls-4" d="M36,87.8a.3.3,0,0,1-.29.29H31.4a.29.29,0,0,1-.29-.29V83.46a.29.29,0,0,1,.29-.28h4.33a.3.3,0,0,1,.29.28Z"/><path class="cls-4" d="M42,87.8a.29.29,0,0,1-.28.29H37.37a.29.29,0,0,1-.29-.29V83.46a.29.29,0,0,1,.29-.28h4.34a.29.29,0,0,1,.28.28Z"/><path class="cls-4" d="M43.34,83.18h4.33a.29.29,0,0,1,.29.29V87.8a.28.28,0,0,1-.28.28H43.34a.28.28,0,0,1-.28-.28V83.47A.28.28,0,0,1,43.34,83.18Z"/><path class="cls-4" d="M53.93,87.8a.29.29,0,0,1-.28.29H49.31A.3.3,0,0,1,49,87.8V83.46a.3.3,0,0,1,.29-.28h4.34a.29.29,0,0,1,.28.28Z"/><path class="cls-4" d="M59.9,87.8a.28.28,0,0,1-.28.29H55.29A.28.28,0,0,1,55,87.8V83.46a.28.28,0,0,1,.29-.28h4.33a.28.28,0,0,1,.28.28Z"/><path class="cls-4" d="M65.88,87.8a.29.29,0,0,1-.29.29H61.25A.29.29,0,0,1,61,87.8V83.46a.29.29,0,0,1,.28-.28h4.34a.29.29,0,0,1,.29.28Z"/><path class="cls-4" d="M71.84,87.8a.28.28,0,0,1-.27.29H67.23a.29.29,0,0,1-.29-.29V83.46a.29.29,0,0,1,.29-.28h4.34a.28.28,0,0,1,.27.28Z"/><path class="cls-4" d="M77.82,87.8a.29.29,0,0,1-.29.29H73.19a.29.29,0,0,1-.28-.29V83.46a.29.29,0,0,1,.28-.28h4.34a.29.29,0,0,1,.29.28Z"/><path class="cls-4" d="M83.8,87.8a.3.3,0,0,1-.3.29H79.17a.28.28,0,0,1-.28-.29V83.46a.28.28,0,0,1,.28-.28H83.5a.3.3,0,0,1,.3.28Z"/><path class="cls-4" d="M89.76,87.8a.29.29,0,0,1-.28.29H85.14a.28.28,0,0,1-.28-.29V83.46a.28.28,0,0,1,.28-.28h4.34a.29.29,0,0,1,.28.28Z"/><path class="cls-4" d="M87.92,110.05v2.39a.25.25,0,0,0,.09.2.26.26,0,0,0,.19.09h4.34a.27.27,0,0,0,.2-.09.25.25,0,0,0,.09-.2v-2.39Z"/><path class="cls-4" d="M92.83,109.73v-2.38a.28.28,0,0,0-.09-.2.3.3,0,0,0-.2-.08H88.2a.29.29,0,0,0-.19.08.28.28,0,0,0-.09.2v2.38Z"/><path class="cls-4" d="M94.18,89.15a.29.29,0,0,0-.21.09.33.33,0,0,0-.08.19v4.34A.33.33,0,0,0,94,94a.29.29,0,0,0,.21.09h1.13v5.69a.24.24,0,0,0,.08.19.27.27,0,0,0,.21.09h2.91a.29.29,0,0,0,.21-.09.26.26,0,0,0,.07-.19V89.43a.26.26,0,0,0-.07-.19.29.29,0,0,0-.21-.09Z"/><path class="cls-6" d="M12,20.5a4.58,4.58,0,0,0-4.56,4.56V77.5h97.17V25.06A4.56,4.56,0,0,0,100,20.5Z"/><path class="cls-7" d="M57.09,23A1.1,1.1,0,1,1,56,21.94,1.09,1.09,0,0,1,57.09,23Z"/><path class="cls-4" d="M56.44,23a.45.45,0,1,1-.89,0,.45.45,0,0,1,.89,0Z"/><rect class="cls-7" x="95.6" y="75.45" width="6.38" height="4.1"/><rect class="cls-6" x="95.6" y="77.5" width="6.38" height="2.05"/><rect class="cls-7" x="10.01" y="75.45" width="6.38" height="4.1"/><rect class="cls-6" x="10.01" y="77.5" width="6.38" height="2.05"/><rect class="cls-4" x="13.2" y="26.18" width="85.58" height="45.63"/><rect class="cls-8" x="18.76" y="30" width="3.8" height="1.38"/><rect class="cls-8" x="18.76" y="39.1" width="3.8" height="1.38"/><rect class="cls-8" x="23.53" y="30" width="17.88" height="1.38"/><rect class="cls-8" x="23.53" y="39.1" width="13.69" height="1.38"/><rect class="cls-8" x="22.56" y="33.46" width="6.03" height="1.38"/><rect class="cls-8" x="22.56" y="49.49" width="6.03" height="1.38"/><rect class="cls-8" x="30.01" y="49.49" width="15.77" height="1.38"/><rect class="cls-8" x="25.96" y="59.7" width="4.97" height="1.38"/><rect class="cls-8" x="60.51" y="66.62" width="6.47" height="1.39"/><rect class="cls-8" x="47.56" y="49.49" width="11.34" height="1.38"/><rect class="cls-8" x="61.21" y="49.49" width="6.94" height="1.38"/><rect class="cls-8" x="22.56" y="42.57" width="9" height="1.39"/><rect class="cls-8" x="22.56" y="46.03" width="12.76" height="1.39"/><rect class="cls-8" x="25.96" y="63.16" width="14.63" height="1.38"/><rect class="cls-8" x="25.96" y="66.62" width="13.44" height="1.39"/><rect class="cls-8" x="43.76" y="66.62" width="13.94" height="1.39"/><rect class="cls-8" x="18.76" y="59.7" width="5.17" height="1.38"/><rect class="cls-8" x="36.68" y="46.03" width="12.77" height="1.39"/><rect class="cls-8" x="62.91" y="46.03" width="7.46" height="1.39"/><rect class="cls-8" x="50.33" y="46.03" width="7.98" height="1.39"/><rect class="cls-8" x="34.5" y="42.57" width="13.82" height="1.39"/><rect class="cls-8" x="32.35" y="33.46" width="5.55" height="1.38"/><rect class="cls-4" x="114.36" y="115.94" width="20.07" height="35.77" rx="7.36" ry="7.36"/><path class="cls-8" d="M131,117.11a7.71,7.71,0,0,1,.12,1.28v16a12.43,12.43,0,0,1-12.44,12.44h-.27a7.23,7.23,0,0,1-4-1.18,7.38,7.38,0,0,0,7.24,6.09h5.35a7.38,7.38,0,0,0,7.36-7.36V123.29A7.39,7.39,0,0,0,131,117.11Z"/><path class="cls-6" d="M126.07,123.63A1.67,1.67,0,1,1,124.4,122,1.67,1.67,0,0,1,126.07,123.63Z"/><polygon class="cls-9" points="145.72 76.4 143.41 68.83 141.11 76.4 145.72 76.4"/><polygon class="cls-10" points="143.41 68.83 145.72 76.4 144.27 76.4 143.41 68.83"/><rect class="cls-7" x="141.11" y="76.4" width="4.61" height="54.13"/><rect class="cls-6" x="144.27" y="76.4" width="1.45" height="54.13"/><polygon class="cls-11" points="144.31 71.79 143.41 68.83 142.51 71.79 144.31 71.79"/><polygon class="cls-6" points="144.31 71.79 143.41 68.83 143.75 71.79 144.31 71.79"/><rect class="cls-9" x="141.11" y="130.53" width="4.61" height="2.67"/><rect class="cls-10" x="144.27" y="130.53" width="1.45" height="2.67"/><path class="cls-12" d="M145.72,136.08a2.32,2.32,0,0,1-2.31,2.31h0a2.3,2.3,0,0,1-2.3-2.31V133.2h4.61Z"/><path class="cls-13" d="M141.78,137.71a2.26,2.26,0,0,1-.54-.9,2.23,2.23,0,0,0,.72.13,2.32,2.32,0,0,0,2.31-2.31V133.2h1.45v2.88a2.31,2.31,0,0,1-3.94,1.63Z"/></g></g></svg>