<svg xmlns="http://www.w3.org/2000/svg" viewBox="0 0 46.33 46.39"><defs><style>.cls-1{fill:#576877;}.cls-2{fill:#e6e7e8;}.cls-3{fill:#facb6b;}.cls-4{fill:#fbd589;}.cls-5{fill:#fff;}</style></defs><title>Asset 13</title><g id="Layer_2" data-name="Layer 2"><g id="circles"><path class="cls-1" d="M46.33,23.16A23.17,23.17,0,1,1,23.16,0,23.13,23.13,0,0,1,46.33,23.16Z"/></g><g id="icons"><path class="cls-2" d="M19.28,28.64a2,2,0,0,0-1.47-1l-7.1,0a1.09,1.09,0,0,1-1.08-1.08v-1a1.08,1.08,0,0,1,1.08-1.08l9.51,0a1.08,1.08,0,0,0,1.08-1.08v-.85a1.09,1.09,0,0,0-1.08-1.08h-4a1.1,1.1,0,0,1-1.1-1.08l0-1a1.06,1.06,0,0,1,1.06-1.08l11.26,0a1.09,1.09,0,0,0,1.08-1.09V17a1.09,1.09,0,0,0-1.08-1.08H21.12A1.1,1.1,0,0,1,20,14.82v-.41a1.05,1.05,0,0,1,1-1.08H45.25a1.09,1.09,0,0,1,1.08,1.08v1.34a1.07,1.07,0,0,1-1.08,1.07l-10.41,0a1.07,1.07,0,0,0-1.08,1.07v.3a1.09,1.09,0,0,0,1.08,1.08h1.61a1.08,1.08,0,0,1,1.08,1.08v1.23a1.08,1.08,0,0,1-1.08,1.08h-9a1.08,1.08,0,0,0-1.08,1.08v.46a1.08,1.08,0,0,0,1.08,1.08H32.9A1.08,1.08,0,0,1,34,26.33v1.23a1.08,1.08,0,0,1-1.08,1.08H25.4s-1.25.55-.76,1.48-3.89,0-3.89,0A8.48,8.48,0,0,1,19.28,28.64Z"/><path class="cls-3" d="M34.44,30.81a3.58,3.58,0,0,0-.73.11V29.56H24.53V46.39h5.75V43.24a10.34,10.34,0,0,0,3-4.89c2.19-.19,5.39-2.2,5.27-4.16A3.79,3.79,0,0,0,34.44,30.81Zm-.88,6.53a10.41,10.41,0,0,0,.15-1.69V31.8a3.07,3.07,0,0,1,2.82,2.78C36.62,36.17,35.26,37.18,33.56,37.34Z"/><path class="cls-4" d="M12.08,29.56v6.09a10.25,10.25,0,0,0,3.43,7.59v3.15h9.13V29.56Z"/><path class="cls-5" d="M9.27,19.75a.11.11,0,0,1-.17,0L7.72,18.38a.14.14,0,0,1,0-.17.13.13,0,0,1,.18,0l1.37,1.37A.11.11,0,0,1,9.27,19.75Z"/><path class="cls-5" d="M11.54,22a.13.13,0,0,1-.18,0L10,20.64a.12.12,0,0,1,0-.17.13.13,0,0,1,.18,0l1.37,1.37A.13.13,0,0,1,11.54,22Z"/><path class="cls-5" d="M9.27,20.64,7.9,22a.13.13,0,0,1-.18,0,.15.15,0,0,1,0-.18L9.1,20.47a.12.12,0,0,1,.17.17Z"/><path class="cls-5" d="M11.54,18.38l-1.37,1.37a.13.13,0,0,1-.18,0,.11.11,0,0,1,0-.17l1.37-1.38a.15.15,0,0,1,.18,0A.13.13,0,0,1,11.54,18.38Z"/><path class="cls-5" d="M20,4.77a.13.13,0,0,1-.18,0L18.4,3.4a.13.13,0,0,1,0-.18.11.11,0,0,1,.17,0L20,4.6A.11.11,0,0,1,20,4.77Z"/><path class="cls-5" d="M22.21,7A.13.13,0,0,1,22,7L20.66,5.66a.11.11,0,0,1,0-.17.13.13,0,0,1,.18,0l1.37,1.37A.11.11,0,0,1,22.21,7Z"/><path class="cls-5" d="M20,5.66,18.57,7a.12.12,0,0,1-.17-.17l1.37-1.37a.13.13,0,0,1,.18,0A.11.11,0,0,1,20,5.66Z"/><path class="cls-5" d="M22.21,3.4,20.84,4.77a.13.13,0,0,1-.18,0,.11.11,0,0,1,0-.17L22,3.22a.13.13,0,0,1,.18.18Z"/><path class="cls-5" d="M14.19,14.79a.07.07,0,0,1-.1,0L13.34,14a.06.06,0,0,1,0-.09.07.07,0,0,1,.1,0l.75.74A.09.09,0,0,1,14.19,14.79Z"/><path class="cls-5" d="M15.42,16a.07.07,0,0,1-.09,0l-.75-.75a.07.07,0,0,1,0-.1.06.06,0,0,1,.09,0l.75.75A.07.07,0,0,1,15.42,16Z"/><path class="cls-5" d="M14.19,15.28l-.75.75a.09.09,0,0,1-.1,0,.07.07,0,0,1,0-.1l.75-.75a.07.07,0,0,1,.1,0A.09.09,0,0,1,14.19,15.28Z"/><path class="cls-5" d="M15.42,14l-.75.75a.06.06,0,0,1-.09,0,.07.07,0,0,1,0-.1l.75-.75a.08.08,0,0,1,.09,0A.07.07,0,0,1,15.42,14Z"/><path class="cls-5" d="M27.78,10.08a.07.07,0,0,1-.09,0l-.75-.75a.07.07,0,0,1,0-.1.06.06,0,0,1,.09,0l.75.75A.07.07,0,0,1,27.78,10.08Z"/><path class="cls-5" d="M29,11.31a.07.07,0,0,1-.1,0l-.75-.75a.07.07,0,0,1,0-.09.07.07,0,0,1,.1,0l.75.75A.06.06,0,0,1,29,11.31Z"/><path class="cls-5" d="M27.78,10.56l-.75.75a.06.06,0,1,1-.09-.09l.75-.75a.06.06,0,0,1,.09.09Z"/><path class="cls-5" d="M29,9.33l-.75.75a.07.07,0,1,1-.1-.1l.75-.75a.07.07,0,0,1,.1.1Z"/><path class="cls-5" d="M8.5,11.18a.1.1,0,0,1-.14,0l-1.1-1.09A.1.1,0,0,1,7.4,10L8.5,11A.1.1,0,0,1,8.5,11.18Z"/><path class="cls-5" d="M10.31,13a.1.1,0,0,1-.14,0l-1.1-1.1a.1.1,0,0,1,.14-.14l1.1,1.1A.12.12,0,0,1,10.31,13Z"/><path class="cls-5" d="M8.5,11.89,7.4,13a.1.1,0,0,1-.14-.14l1.1-1.1a.1.1,0,0,1,.14.14Z"/><path class="cls-5" d="M10.31,10.09l-1.1,1.09A.1.1,0,0,1,9.07,11L10.17,10a.1.1,0,0,1,.14,0A.12.12,0,0,1,10.31,10.09Z"/><path class="cls-5" d="M28.75,4.52a.09.09,0,0,1-.13,0l-1.1-1.09a.1.1,0,0,1,.14-.14l1.09,1.09A.1.1,0,0,1,28.75,4.52Z"/><path class="cls-5" d="M30.56,6.33a.1.1,0,0,1-.14,0l-1.09-1.1a.1.1,0,0,1,.14-.14l1.09,1.1A.1.1,0,0,1,30.56,6.33Z"/><path class="cls-5" d="M28.75,5.23l-1.09,1.1a.1.1,0,0,1-.14-.14l1.1-1.1a.09.09,0,0,1,.13,0A.1.1,0,0,1,28.75,5.23Z"/><path class="cls-5" d="M30.56,3.43,29.47,4.52a.1.1,0,0,1-.14-.14l1.09-1.09a.1.1,0,1,1,.14.14Z"/></g></g></svg>