<svg xmlns="http://www.w3.org/2000/svg" viewBox="0 0 46.33 46.33"><defs><style>.cls-1{fill:#facb6b;}.cls-2{fill:#f17046;}.cls-3,.cls-4{fill:#fff;}.cls-3{fill-rule:evenodd;}.cls-5{fill:#414e59;}.cls-6{fill:#576877;}.cls-7{fill:#e6e7e8;}</style></defs><title>Asset 2</title><g id="Layer_2" data-name="Layer 2"><g id="circles"><circle class="cls-1" cx="23.16" cy="23.16" r="23.16"/></g><g id="icons"><path class="cls-2" d="M30.84,23A7.94,7.94,0,1,1,22.9,15,7.95,7.95,0,0,1,30.84,23Z"/><polygon class="cls-3" points="19.44 18.98 19.44 26.98 26.36 22.98 19.44 18.98"/><path class="cls-4" d="M22.68,36.91a15.83,15.83,0,0,1-1.95-.13l.11-.8a12.45,12.45,0,0,0,1.84.13h.23v.8Zm2.42-.21L25,35.92a13.66,13.66,0,0,0,2-.52l.26.77A13.82,13.82,0,0,1,25.1,36.7Zm-6.51-.39a13.82,13.82,0,0,1-2.05-.8l.35-.72a13.29,13.29,0,0,0,1.93.75Zm10.66-1-.38-.71a13.19,13.19,0,0,0,1.75-1.1l.48.64A14.79,14.79,0,0,1,29.25,35.3Zm-14.6-.9A14,14,0,0,1,13,33l.55-.58a14.29,14.29,0,0,0,1.6,1.31Zm18.11-1.71-.58-.56a12.67,12.67,0,0,0,1.34-1.59l.65.47A14.25,14.25,0,0,1,32.76,32.69Zm-21.28-1.3a13.82,13.82,0,0,1-1.2-1.84l.7-.38a13.18,13.18,0,0,0,1.13,1.73Zm23.83-2.25-.72-.37a13.19,13.19,0,0,0,.78-1.91l.77.24A15,15,0,0,1,35.31,29.14ZM9.38,27.56a15.45,15.45,0,0,1-.58-2.12l.79-.15a13.27,13.27,0,0,0,.54,2ZM36.64,25l-.79-.13A12.82,12.82,0,0,0,36,22.78q0-.45,0-.9l.8-.05c0,.31,0,.63,0,1A14.58,14.58,0,0,1,36.64,25ZM8.56,23.26c0-.16,0-.32,0-.48a13.9,13.9,0,0,1,.11-1.71l.79.09a14.67,14.67,0,0,0-.1,1.62c0,.15,0,.3,0,.45Zm27.12-3.43a12.46,12.46,0,0,0-.61-2l.74-.3a13.07,13.07,0,0,1,.65,2.1ZM9.86,19.14l-.77-.22a13.75,13.75,0,0,1,.76-2.06l.73.34A12.86,12.86,0,0,0,9.86,19.14ZM34.16,16A13.19,13.19,0,0,0,33,14.31l.62-.51a15.62,15.62,0,0,1,1.26,1.79Zm-22.57-.61-.67-.45a14.89,14.89,0,0,1,1.36-1.72l.59.54A13.3,13.3,0,0,0,11.59,15.39Zm19.94-2.57a13.15,13.15,0,0,0-1.64-1.25l.43-.68a14.94,14.94,0,0,1,1.75,1.33Zm-17.14-.47-.5-.63A14.7,14.7,0,0,1,15.7,10.5l.4.69A13.18,13.18,0,0,0,14.39,12.35Zm13.67-1.77a14,14,0,0,0-1.95-.68l.21-.77a13.7,13.7,0,0,1,2.07.72ZM18,10.31l-.28-.75A14,14,0,0,1,19.79,9l.16.78A15,15,0,0,0,18,10.31Zm6.11-.78A13.06,13.06,0,0,0,22,9.47l0-.8a13.36,13.36,0,0,1,2.19.06Z"/><path class="cls-5" d="M41.85,42.17l-.36.3-1.37,1.24a2.14,2.14,0,0,0-.33.33l.58.64a3.3,3.3,0,0,0,.36-.3l1.37-1.24a4.51,4.51,0,0,0,.34-.32Z"/><rect class="cls-5" x="29.22" y="29.68" width="2.84" height="3.97" transform="translate(-13.32 28.75) rotate(-42.14)"/><path class="cls-6" d="M42.34,41.69c.11.12,0,.42-.31.68l-2,1.81c-.28.26-.6.36-.71.24l-9.79-10.8c-.11-.12,0-.43.31-.68l2-1.82c.28-.26.59-.37.7-.24Z"/><path class="cls-4" d="M34.36,32.91a4.81,4.81,0,0,1-.5.48l-2,1.82a5.34,5.34,0,0,1-.52.44l-.78-.85a5.37,5.37,0,0,1,.49-.48l2-1.83c.28-.25.52-.45.52-.44Z"/><path class="cls-7" d="M15.24,14.47a11.35,11.35,0,1,0,16,.8A11.34,11.34,0,0,0,15.24,14.47ZM28.76,29.4A8.79,8.79,0,1,1,29.37,17,8.79,8.79,0,0,1,28.76,29.4Z"/></g></g></svg>