<svg xmlns="http://www.w3.org/2000/svg" viewBox="0 0 220.76 220.76"><defs><style>.cls-1{fill:#63c4c9;}.cls-2{fill:#263238;}.cls-10,.cls-11,.cls-14,.cls-3{opacity:0.2;}.cls-4{fill:#37474f;}.cls-10,.cls-13,.cls-5{fill:#fff;}.cls-6{fill:#e27c3a;}.cls-7{fill:#2d4255;}.cls-8{fill:#f17046;}.cls-9{fill:#bdbdbd;}.cls-11{fill:#0e2037;}.cls-12{fill:#2f4050;}.cls-13{opacity:0.6;}.cls-14{fill:#231f20;}.cls-15{fill:#66bb6a;}.cls-16{fill:#bfd8e5;}.cls-17{fill:#facb6b;}.cls-18{fill:#cfd8dc;}.cls-19{fill:#72c6e9;}.cls-20{opacity:0.1;}</style></defs><title>Asset 14</title><g id="Layer_2" data-name="Layer 2"><g id="icons"><path class="cls-1" d="M220.76,110.38a110.72,110.72,0,0,1-2.47,23.33,109.6,109.6,0,0,1-10.06,27.8,110.43,110.43,0,0,1-89.09,58.91h-.06q-3.26.26-6.56.33h-2.14A110.38,110.38,0,1,1,220.49,102.54c.11,1.63.19,3.26.23,4.91C220.75,108.42,220.76,109.4,220.76,110.38Z"/><rect class="cls-2" x="102.83" y="142.01" width="32.79" height="28.65"/><polygon class="cls-3" points="135.62 152.97 102.83 147.63 102.83 146.1 135.62 146.1 135.62 152.97"/><rect class="cls-4" x="90.84" y="165.39" width="56.77" height="5.27"/><path class="cls-4" d="M186,37.33a5.81,5.81,0,0,1,5.81,5.8v97.16a5.81,5.81,0,0,1-5.81,5.8H52.66a5.81,5.81,0,0,1-5.81-5.8V43.13a5.81,5.81,0,0,1,5.81-5.8Z"/><path class="cls-2" d="M122.9,137.86a4.09,4.09,0,1,1-4.09-4.09A4.09,4.09,0,0,1,122.9,137.86Z"/><path class="cls-5" d="M118.81,142.4a4.55,4.55,0,1,1,4.55-4.54A4.54,4.54,0,0,1,118.81,142.4Zm0-8.17a3.63,3.63,0,1,0,3.63,3.63A3.63,3.63,0,0,0,118.81,134.23Z"/><path class="cls-5" d="M191.83,43.14A5.81,5.81,0,0,0,186,37.33H52.66a5.81,5.81,0,0,0-5.81,5.81v86.65h145Z"/><path class="cls-2" d="M191.83,43.16A5.82,5.82,0,0,0,186,37.33H52.66a5.83,5.83,0,0,0-5.81,5.83v87h145ZM186,124.29H52.66V43.16H186Z"/><rect class="cls-6" x="56.82" y="47.06" width="38.7" height="12.62"/><rect class="cls-7" x="103.87" y="47.06" width="76.34" height="12.62"/><rect class="cls-8" x="56.82" y="65.24" width="123.87" height="37.14"/><rect class="cls-9" x="56.82" y="106.94" width="34.43" height="12.4"/><rect class="cls-9" x="146.49" y="106.94" width="34.21" height="12.4"/><rect class="cls-9" x="99.5" y="106.94" width="38.64" height="12.4"/><path class="cls-10" d="M46.85,43.14a5.81,5.81,0,0,1,5.81-5.81h83.69L65.8,129.79H46.85Z"/><path class="cls-11" d="M146,170.66H90.84v-5.27h12v-19.3H52.66a5.81,5.81,0,0,1-5.81-5.8v-40H75.59L117.33,142l4.09,4.08,14.2,14.2v5.1h5.09Z"/><path class="cls-12" d="M71.3,99.82c0-.39-.14-.71-.32-.71H66.4c-.18,0-.32.32-.32.71h0c0,.4.14.72.32.72H71c.18,0,.32-.32.32-.72Z"/><path class="cls-3" d="M78.21,168.48a2.62,2.62,0,0,1-2.62,2.63H27a2.63,2.63,0,0,1-2.63-2.63V104.14A2.64,2.64,0,0,1,27,101.5H75.59a2.63,2.63,0,0,1,2.62,2.64Z"/><path class="cls-13" d="M78.21,167.55a2.63,2.63,0,0,1-2.62,2.64H27a2.64,2.64,0,0,1-2.63-2.64V103.21A2.64,2.64,0,0,1,27,100.57H75.59a2.63,2.63,0,0,1,2.62,2.64Z"/><path class="cls-5" d="M27,100.25H75.59a2.63,2.63,0,0,1,2.62,2.64v64.34a2.63,2.63,0,0,1-2.62,2.64H27a2.63,2.63,0,0,1-2.62-2.64V102.89A2.63,2.63,0,0,1,27,100.25Z"/><path class="cls-2" d="M53.39,166.58a2.1,2.1,0,1,1-2.1-2.09A2.1,2.1,0,0,1,53.39,166.58Z"/><path class="cls-14" d="M75.56,100.25H51.27v69.62H75.56a2.63,2.63,0,0,0,2.62-2.64V102.89A2.63,2.63,0,0,0,75.56,100.25Z"/><path class="cls-5" d="M51.29,169a2.42,2.42,0,1,1,2.42-2.42A2.41,2.41,0,0,1,51.29,169Zm0-4.2a1.79,1.79,0,1,0,1.78,1.78A1.78,1.78,0,0,0,51.29,164.8Z"/><polygon class="cls-12" points="45.23 106.47 29.85 106.47 29.85 162.7 72.73 162.7 72.73 159.75 72.73 106.47 45.23 106.47"/><rect class="cls-8" x="59.84" y="108.15" width="11.46" height="6.2"/><rect class="cls-15" x="32.04" y="108.15" width="22.05" height="6.2"/><rect class="cls-16" x="32.04" y="117.34" width="39.26" height="28.75"/><rect class="cls-8" x="52.92" y="149.56" width="18.38" height="11.4"/><rect class="cls-17" x="32.04" y="149.56" width="18.38" height="11.4"/><polygon class="cls-10" points="29.85 106.47 57.35 106.47 29.85 162.7 29.85 106.47"/><rect class="cls-3" x="166.55" y="115.5" width="30.69" height="57.02" rx="4.12" ry="4.12"/><rect class="cls-13" x="166.55" y="114.57" width="30.69" height="57.02" rx="4.12" ry="4.12"/><path class="cls-18" d="M170.67,114.31h22.45a4.13,4.13,0,0,1,4.12,4.12v48.78a4.13,4.13,0,0,1-4.12,4.12H170.67a4.13,4.13,0,0,1-4.12-4.12V118.43A4.13,4.13,0,0,1,170.67,114.31Z"/><path class="cls-5" d="M170.6,114.31a4.13,4.13,0,0,0-4.12,4.12v48.78a4.13,4.13,0,0,0,4.12,4.12h11.26v-57Z"/><path class="cls-2" d="M181.86,169.58a2.38,2.38,0,1,1,2.38-2.38A2.39,2.39,0,0,1,181.86,169.58Z"/><path class="cls-5" d="M184.34,167.2a2.48,2.48,0,1,0-2.48,2.48A2.48,2.48,0,0,0,184.34,167.2Zm-.46,0a2,2,0,1,1-2-2A2,2,0,0,1,183.88,167.2Z"/><polygon class="cls-12" points="184.77 118.7 169.43 118.7 169.43 161.47 170.54 161.47 194.36 161.47 194.36 118.7 184.77 118.7"/><rect class="cls-6" x="170.51" y="120.46" width="7.72" height="3.64"/><rect class="cls-19" x="179.42" y="120.46" width="14" height="3.64"/><rect class="cls-8" x="170.51" y="125.17" width="22.91" height="15.97"/><rect class="cls-16" x="170.51" y="142.82" width="22.91" height="4.13"/><rect class="cls-16" x="170.51" y="149.56" width="22.91" height="4.14"/><rect class="cls-16" x="170.51" y="156.29" width="22.91" height="4.14"/><polygon class="cls-10" points="169.43 118.7 184.77 118.7 170.54 161.47 169.43 161.47 169.43 118.7"/><polygon class="cls-20" points="170.2 119.47 179.79 119.47 194.36 119.47 194.36 118.7 179.02 118.7 169.43 118.7 169.43 161.47 170.2 161.47 170.2 119.47"/><path class="cls-5" d="M171.94,116.64a.83.83,0,1,0,.82-.82A.83.83,0,0,0,171.94,116.64Z"/></g></g></svg>