<svg xmlns="http://www.w3.org/2000/svg" viewBox="0 0 46.33 46.48"><defs><style>.cls-1{isolation:isolate;}.cls-2{fill:#facb6b;}.cls-3{fill:#f48d6b;}.cls-4{fill:#f17046;}.cls-5{fill:#fff;}.cls-6{fill:#f1f2f2;}.cls-7{fill:#d8d8d8;mix-blend-mode:multiply;}.cls-8{fill:#576877;}.cls-9{fill:#e6e7e8;}.cls-10{fill:#414042;}.cls-11{fill:#798692;}.cls-12{fill:#414e59;}</style></defs><title>Asset 6</title><g class="cls-1"><g id="Layer_2" data-name="Layer 2"><g id="circles"><circle class="cls-2" cx="23.16" cy="23.16" r="23.16" transform="translate(-0.52 45.8) rotate(-88.7)"/></g><g id="icons"><rect class="cls-3" x="1.08" y="6.74" width="5.13" height="39.75"/><rect class="cls-4" x="3.64" y="6.74" width="2.56" height="39.75"/><rect class="cls-5" x="1.08" y="7.16" width="0.61" height="0.16"/><rect class="cls-5" x="1.08" y="7.73" width="0.61" height="0.16"/><rect class="cls-5" x="1.08" y="8.3" width="1.14" height="0.16"/><rect class="cls-5" x="1.08" y="8.87" width="0.61" height="0.16"/><rect class="cls-5" x="1.08" y="9.44" width="0.61" height="0.16"/><rect class="cls-5" x="1.08" y="10.01" width="0.61" height="0.16"/><rect class="cls-5" x="1.08" y="10.58" width="0.61" height="0.16"/><rect class="cls-5" x="1.08" y="11.15" width="0.61" height="0.16"/><rect class="cls-5" x="1.08" y="11.72" width="1.14" height="0.16"/><rect class="cls-5" x="1.08" y="12.29" width="0.61" height="0.16"/><rect class="cls-5" x="1.08" y="12.86" width="0.61" height="0.16"/><rect class="cls-5" x="1.08" y="13.43" width="0.61" height="0.16"/><rect class="cls-5" x="1.08" y="14" width="0.61" height="0.16"/><rect class="cls-5" x="1.08" y="14.57" width="0.61" height="0.16"/><rect class="cls-5" x="1.08" y="15.14" width="1.14" height="0.16"/><rect class="cls-5" x="1.08" y="15.71" width="0.61" height="0.16"/><rect class="cls-5" x="1.08" y="16.28" width="0.61" height="0.16"/><rect class="cls-5" x="1.08" y="16.85" width="0.61" height="0.16"/><rect class="cls-5" x="1.08" y="17.42" width="0.61" height="0.16"/><rect class="cls-5" x="1.08" y="17.99" width="0.61" height="0.16"/><rect class="cls-5" x="1.08" y="18.56" width="1.14" height="0.16"/><rect class="cls-5" x="1.08" y="19.13" width="0.61" height="0.16"/><rect class="cls-5" x="1.08" y="19.7" width="0.61" height="0.16"/><rect class="cls-5" x="1.08" y="20.27" width="0.61" height="0.16"/><rect class="cls-5" x="1.08" y="20.84" width="0.61" height="0.16"/><rect class="cls-5" x="1.08" y="21.41" width="0.61" height="0.16"/><rect class="cls-5" x="1.08" y="21.98" width="1.14" height="0.16"/><rect class="cls-5" x="1.08" y="22.55" width="0.61" height="0.16"/><rect class="cls-5" x="1.08" y="23.12" width="0.61" height="0.16"/><rect class="cls-5" x="1.08" y="23.69" width="0.61" height="0.16"/><rect class="cls-5" x="1.08" y="24.26" width="0.61" height="0.16"/><rect class="cls-5" x="1.08" y="24.83" width="0.61" height="0.16"/><rect class="cls-5" x="1.08" y="25.4" width="1.14" height="0.16"/><rect class="cls-5" x="1.08" y="25.97" width="0.61" height="0.16"/><rect class="cls-5" x="1.08" y="26.54" width="0.61" height="0.16"/><rect class="cls-5" x="1.08" y="27.11" width="0.61" height="0.16"/><rect class="cls-5" x="1.08" y="27.68" width="0.61" height="0.16"/><rect class="cls-5" x="1.08" y="28.25" width="0.61" height="0.16"/><rect class="cls-5" x="1.08" y="28.82" width="1.14" height="0.16"/><rect class="cls-5" x="1.08" y="29.39" width="0.61" height="0.16"/><rect class="cls-5" x="1.08" y="29.96" width="0.61" height="0.16"/><rect class="cls-5" x="1.08" y="30.53" width="0.61" height="0.16"/><rect class="cls-5" x="1.08" y="31.1" width="0.61" height="0.16"/><rect class="cls-5" x="1.08" y="31.66" width="0.61" height="0.16"/><rect class="cls-5" x="1.08" y="32.23" width="1.14" height="0.16"/><rect class="cls-5" x="1.08" y="32.81" width="0.61" height="0.16"/><rect class="cls-5" x="1.08" y="33.37" width="0.61" height="0.16"/><rect class="cls-5" x="1.08" y="33.95" width="0.61" height="0.16"/><rect class="cls-5" x="1.08" y="34.52" width="0.61" height="0.16"/><rect class="cls-5" x="1.08" y="35.08" width="0.61" height="0.16"/><rect class="cls-5" x="1.08" y="35.65" width="1.14" height="0.16"/><rect class="cls-5" x="1.08" y="36.22" width="0.61" height="0.16"/><rect class="cls-5" x="1.08" y="36.79" width="0.61" height="0.16"/><rect class="cls-5" x="1.08" y="37.36" width="0.61" height="0.16"/><rect class="cls-5" x="1.08" y="37.93" width="0.61" height="0.16"/><rect class="cls-5" x="1.08" y="38.5" width="0.61" height="0.16"/><rect class="cls-5" x="1.08" y="39.07" width="1.14" height="0.16"/><rect class="cls-5" x="1.08" y="39.64" width="0.61" height="0.16"/><rect class="cls-5" x="1.08" y="40.21" width="0.61" height="0.16"/><rect class="cls-5" x="1.08" y="40.78" width="0.61" height="0.16"/><rect class="cls-5" x="1.08" y="41.35" width="0.61" height="0.16"/><rect class="cls-5" x="1.08" y="41.92" width="0.61" height="0.16"/><rect class="cls-5" x="1.08" y="42.49" width="1.14" height="0.16"/><rect class="cls-5" x="1.08" y="43.06" width="0.61" height="0.16"/><rect class="cls-5" x="1.08" y="43.63" width="0.61" height="0.16"/><rect class="cls-5" x="1.08" y="44.2" width="0.61" height="0.16"/><rect class="cls-5" x="1.08" y="44.77" width="0.61" height="0.16"/><rect class="cls-5" x="1.08" y="45.34" width="0.61" height="0.16"/><rect class="cls-5" x="1.08" y="45.91" width="1.14" height="0.16"/><path class="cls-5" d="M3.31,46.17V46H2.45v.16H2.38v-.24h.93v-.17h.07v.41Z"/><path class="cls-5" d="M2.66,42.93c-.21,0-.28-.2-.28-.38s.08-.38.29-.39.29.21.29.39,0,.31.2.31h.16v-.69h.07v.77H3.16c-.22,0-.27-.21-.27-.39s-.05-.31-.22-.31-.22.17-.22.31,0,.31.21.31Z"/><path class="cls-5" d="M2.64,39.5c-.21,0-.26-.2-.26-.37s.12-.36.26-.36a.26.26,0,0,1,.24.2.27.27,0,0,1,.24-.22c.16,0,.28.13.28.38s0,.39-.26.39v-.07c.18,0,.19-.2.19-.32s-.09-.31-.21-.31-.21.11-.21.31v.16H2.85v-.16c0-.19-.11-.29-.21-.3s-.19.1-.19.3,0,.3.19.3Z"/><path class="cls-5" d="M2.38,35.43h.7V35.3h.07v.13h.23v.07H3.15v.61l-.09,0-.68-.58Zm.06.07.64.55V35.5Z"/><path class="cls-5" d="M2.84,32.66H2.38V32h.07v.63h.32v-.32c0-.27.15-.36.3-.36s.31.12.31.39,0,.38-.28.38v-.07c.18,0,.21-.18.21-.31S3.21,32,3.08,32s-.24.06-.24.28Z"/><path class="cls-5" d="M2.45,25.18v.65H2.38V25.1h.06l.94.54v.09Z"/><path class="cls-5" d="M2.93,29.2a.35.35,0,0,1-.14-.32c0-.19.09-.39.3-.39s.31.2.31.39-.08.39-.31.39H2.66c-.19,0-.28-.19-.28-.38s.08-.37.25-.38v.08c-.12,0-.18.14-.18.3s.07.31.21.31Zm.16-.64c-.16,0-.23.17-.23.32s.07.31.23.31.24-.17.24-.31S3.28,28.56,3.09,28.56Z"/><path class="cls-5" d="M3.14,22.45a.27.27,0,0,1-.26-.22.25.25,0,0,1-.23.21c-.2,0-.27-.22-.27-.4s.06-.39.27-.39.2.1.24.22a.27.27,0,0,1,.25-.24c.21,0,.28.23.28.41S3.35,22.45,3.14,22.45Zm0-.07c.16,0,.21-.22.21-.34s-.05-.33-.21-.33-.22.22-.22.33S3,22.38,3.14,22.38Zm-.49,0c.16,0,.2-.2.2-.32s0-.32-.2-.32-.2.2-.2.32S2.49,22.36,2.65,22.36Z"/><path class="cls-5" d="M2.85,18.31a.35.35,0,0,1,.15.32c0,.19-.09.39-.31.39s-.31-.21-.31-.39.09-.4.31-.4h.44c.18,0,.27.19.27.38s-.08.37-.25.38v-.07c.12,0,.18-.14.18-.31s-.06-.3-.2-.3Zm-.16.63c.17,0,.24-.17.24-.31s-.08-.32-.24-.32-.24.17-.24.32S2.51,18.94,2.69,18.94Z"/><path class="cls-5" d="M3.32,15.84v-.16H2.46v.16H2.39V15.6h.93v-.17h.07v.41Z"/><path class="cls-5" d="M2.77,15.33a.38.38,0,1,1,0-.76H3a.38.38,0,1,1,0,.76ZM3,15.26a.31.31,0,1,0,0-.61H2.77a.31.31,0,1,0,0,.61Z"/><path class="cls-5" d="M3.31,12.23v-.17H2.45v.17H2.38V12h.93v-.17h.07v.41Z"/><path class="cls-5" d="M3.31,11.76v-.17H2.45v.17H2.38v-.24h.93v-.17h.07v.41Z"/><path class="cls-5" d="M3.32,9V8.86H2.46V9H2.39V8.78h.93V8.61h.07V9Z"/><path class="cls-5" d="M2.66,8.48c-.21,0-.28-.2-.28-.38s.08-.38.29-.38.29.2.29.38,0,.31.2.31h.16V7.73h.07v.76H3.16c-.22,0-.27-.2-.27-.39s-.05-.31-.22-.31-.22.18-.22.31,0,.31.21.31Z"/><polygon class="cls-6" points="32.81 7.1 37.95 12.85 37.95 46.46 8.56 46.46 8.56 7.1 32.81 7.1"/><polygon class="cls-7" points="37.95 18.64 37.95 12.85 32.81 12.85 37.95 18.64"/><polygon class="cls-4" points="32.81 12.85 37.95 12.85 32.81 7.1 32.81 12.85"/><path class="cls-8" d="M20.21,26.78a5.74,5.74,0,0,1,2.48-4.73,5.77,5.77,0,1,0,0,9.47A5.78,5.78,0,0,1,20.21,26.78Z"/><path class="cls-4" d="M27,21a5.79,5.79,0,0,0-5.76,5.77,5.78,5.78,0,0,0,2.48,4.74,5.7,5.7,0,0,0,3.28,1Z"/><polygon class="cls-9" points="40.26 41.78 41.16 46.27 42.04 41.79 41.17 40.48 40.26 41.78"/><polygon class="cls-10" points="41.16 46.34 41 45.48 41.31 45.48 41.16 46.34"/><path class="cls-11" d="M40.87,41.52a3.66,3.66,0,0,1-.29,1.37h0a4.39,4.39,0,0,1-.29-1.38L40.3,13h.6Z"/><path class="cls-8" d="M41.47,41.52a3.77,3.77,0,0,1-.29,1.38h0a4.59,4.59,0,0,1-.28-1.38L40.9,13h.6Z"/><path class="cls-12" d="M42.06,41.52a3.77,3.77,0,0,1-.29,1.38h0a4.59,4.59,0,0,1-.28-1.38l0-28.48h.61Z"/><rect class="cls-9" x="39.93" y="10.88" width="2.54" height="1.8" transform="translate(29.38 52.96) rotate(-89.93)"/><polygon class="cls-5" points="42.1 12.53 42.1 12.64 40.3 12.63 40.3 12.53 42.1 12.53"/><polygon class="cls-5" points="42.1 12.23 42.1 12.33 40.3 12.33 40.3 12.22 42.1 12.23"/><polygon class="cls-5" points="42.1 11.92 42.1 12.03 40.3 12.03 40.3 11.92 42.1 11.92"/><polygon class="cls-5" points="42.1 11.45 42.1 11.55 40.3 11.55 40.3 11.44 42.1 11.45"/><polygon class="cls-5" points="42.1 11.14 42.1 11.25 40.3 11.24 40.3 11.14 42.1 11.14"/><polygon class="cls-5" points="42.1 10.84 42.1 10.94 40.3 10.94 40.3 10.83 42.1 10.84"/><polygon class="cls-4" points="42.1 10.51 41.99 9.28 40.39 9.28 40.3 10.51 42.1 10.51"/></g></g></g></svg>