<svg xmlns="http://www.w3.org/2000/svg" viewBox="0 0 52.07 48.04"><defs><style>.cls-1{fill:#63c4c9;}.cls-10,.cls-2{fill:#414042;}.cls-3{fill:#fff;}.cls-4{fill:#231f20;}.cls-5{fill:#facb6b;}.cls-6{fill:#676767;}.cls-7{fill:#576877;}.cls-8{fill:#f17046;}.cls-9{fill:#d8d8d8;}.cls-10{opacity:0.2;}.cls-11{fill:#58595b;opacity:0.3;}</style></defs><title>Asset 9</title><g id="Layer_2" data-name="Layer 2"><g id="circles"><circle class="cls-1" cx="26.45" cy="23.16" r="23.16"/></g><g id="icons"><path class="cls-2" d="M36.65,45.66A2.4,2.4,0,0,1,34.23,48L20.13,48a2.4,2.4,0,0,1-2.4-2.41l.18-32.06a2.41,2.41,0,0,1,2.43-2.39l14.1.08a2.41,2.41,0,0,1,2.4,2.43Z"/><rect class="cls-3" x="12.63" y="20.94" width="29.31" height="17.08" transform="translate(-2.36 56.59) rotate(-89.66)"/><path class="cls-4" d="M30,13.29c0,.11-.07.2-.15.2H24.71c-.08,0-.15-.09-.15-.2h0c0-.11.07-.2.15-.2h5.15c.08,0,.15.09.15.2Z"/><rect class="cls-5" x="19.97" y="17.27" width="2.66" height="2.66" rx="0.27" ry="0.27"/><rect class="cls-6" x="24.02" y="17.27" width="2.66" height="2.66" rx="0.27" ry="0.27"/><rect class="cls-1" x="28.07" y="17.27" width="2.66" height="2.66" rx="0.27" ry="0.27"/><rect class="cls-5" x="32.11" y="17.27" width="2.66" height="2.66" rx="0.27" ry="0.27"/><path class="cls-7" d="M20.15,22.1h2.13a.27.27,0,0,1,.27.27V24.5a.27.27,0,0,1-.27.27H20.15a.27.27,0,0,1-.27-.27V22.37A.26.26,0,0,1,20.15,22.1Z"/><path class="cls-5" d="M24.19,22.1h2.13a.26.26,0,0,1,.26.26V24.5a.27.27,0,0,1-.27.27H24.19a.27.27,0,0,1-.27-.27V22.37A.27.27,0,0,1,24.19,22.1Z"/><path class="cls-8" d="M28.24,22.1h2.13a.27.27,0,0,1,.27.27V24.5a.27.27,0,0,1-.27.27H28.24A.27.27,0,0,1,28,24.5V22.37A.26.26,0,0,1,28.24,22.1Z"/><path class="cls-1" d="M32.29,22.1h2.13a.26.26,0,0,1,.26.26V24.5a.27.27,0,0,1-.27.27H32.29A.27.27,0,0,1,32,24.5V22.37A.26.26,0,0,1,32.29,22.1Z"/><rect class="cls-9" x="35.4" y="14.33" width="2.9" height="2.9" rx="0.29" ry="0.29"/><rect class="cls-9" x="13.53" y="20.65" width="2.9" height="2.9" rx="0.29" ry="0.29"/><path class="cls-5" d="M40.07,9.27H41.8a.22.22,0,0,1,.22.22v1.73a.22.22,0,0,1-.22.22H40.07a.22.22,0,0,1-.22-.22V9.49A.21.21,0,0,1,40.07,9.27Z"/><path class="cls-5" d="M9.2,12.54h1.73a.22.22,0,0,1,.22.22v1.73a.22.22,0,0,1-.22.22H9.2A.22.22,0,0,1,9,14.48V12.75A.21.21,0,0,1,9.2,12.54Z"/><rect class="cls-5" x="40.61" y="36.82" width="3.81" height="3.81" rx="0.38" ry="0.38"/><rect class="cls-8" x="31.06" y="1.63" width="4.04" height="4.04" rx="0.4" ry="0.4"/><rect class="cls-8" x="12.46" y="10.23" width="5.28" height="5.28" rx="0.53" ry="0.53"/><rect class="cls-8" x="37.84" y="34.19" width="2.02" height="2.02" rx="0.2" ry="0.2"/><rect class="cls-5" x="32.96" y="11.51" width="2.1" height="2.11" rx="0.21" ry="0.21"/><rect class="cls-3" x="27.21" y="6.42" width="3.06" height="3.07" rx="0.31" ry="0.31"/><rect class="cls-7" x="35.51" y="5.67" width="3.6" height="3.6" rx="0.36" ry="0.36"/><rect class="cls-7" x="8.41" y="16.8" width="3.6" height="3.6" rx="0.36" ry="0.36"/><rect class="cls-7" x="45.64" y="32.39" width="3.6" height="3.6" rx="0.36" ry="0.36"/><polygon class="cls-10" points="18.6 26.34 18.6 38.37 18.6 38.45 18.6 38.51 18.6 39.37 18.6 41.13 23.88 41.13 23.88 39.37 23.88 38.51 23.88 38.45 23.88 38.37 23.88 26.34 18.6 26.34"/><rect class="cls-7" y="25.73" width="23.25" height="13.03"/><rect class="cls-8" y="38.15" width="23.25" height="2.37"/><polygon class="cls-3" points="1.99 39.37 1.59 39.14 1.59 39.6 1.99 39.37 1.59 39.14 1.59 39.6 1.99 39.37"/><path class="cls-3" d="M1.69,40a.65.65,0,1,1,.65-.65A.65.65,0,0,1,1.69,40Zm0-1.23a.58.58,0,1,0,.59.58A.58.58,0,0,0,1.69,38.79Z"/><polygon class="cls-3" points="12.58 32.38 10.21 31.01 10.21 33.75 12.58 32.38 10.21 31.01 10.21 33.75 12.58 32.38"/><path class="cls-3" d="M11.15,36.21A3.83,3.83,0,1,1,15,32.38,3.83,3.83,0,0,1,11.15,36.21Zm0-7.29a3.46,3.46,0,1,0,3.46,3.46A3.46,3.46,0,0,0,11.15,28.92Z"/><path class="cls-11" d="M35.83,28.48H32.71a2.35,2.35,0,1,0,0,4.7H35.8Z"/><path class="cls-5" d="M52.07,30a2.35,2.35,0,0,1-2.35,2.35H33.41A2.35,2.35,0,0,1,31.06,30h0a2.35,2.35,0,0,1,2.35-2.35H49.72A2.35,2.35,0,0,1,52.07,30Z"/><polygon class="cls-3" points="32.91 31.29 33.42 31.7 34.28 30.66 33.77 30.25 32.91 31.29"/><path class="cls-3" d="M35,28.38a1.1,1.1,0,0,0-.36,0,1.12,1.12,0,0,0-.06,2.2,1.54,1.54,0,0,0,.37,0,1.12,1.12,0,0,0,.05-2.2Zm.59,1.25a.81.81,0,0,1-.68.65.82.82,0,0,1-.27,0,.8.8,0,0,1-.52-.34.78.78,0,0,1-.12-.61.8.8,0,0,1,.68-.65.82.82,0,0,1,.27,0,.8.8,0,0,1,.64.95Z"/></g></g></svg>