<svg xmlns="http://www.w3.org/2000/svg" viewBox="0 0 155 155"><defs><style>.cls-1{fill:#ffdb79;}.cls-2{fill:#353f49;}.cls-3{fill:#fff;}.cls-4{fill:#fab83e;}.cls-5{fill:#f77b55;}.cls-6{fill:#d9d8d7;}</style></defs><title>Asset 1</title><g id="Layer_2" data-name="Layer 2"><g id="Layer_3" data-name="Layer 3"><circle class="cls-1" cx="77.5" cy="77.5" r="77.5"/><path class="cls-2" d="M127.67,77.5A50,50,0,0,1,113,113l8.37,8.36A61.81,61.81,0,0,0,139.5,77.5Z"/><path class="cls-3" d="M77.5,27.33A50.18,50.18,0,0,1,127.67,77.5H139.5a62,62,0,0,0-62-62V27.33Z"/><path class="cls-4" d="M77.49,27.33V15.5a61.62,61.62,0,0,0-23.72,4.72L58.3,31.15A50.19,50.19,0,0,1,77.49,27.33Z"/><path class="cls-5" d="M77.5,127.67A50.17,50.17,0,0,1,58.3,31.15L53.77,20.22a62,62,0,1,0,67.57,101.14L113,113A50,50,0,0,1,77.5,127.67Z"/><path class="cls-2" d="M119.77,77.5A42.27,42.27,0,1,1,77.5,35.23,42.26,42.26,0,0,1,119.77,77.5Z"/><path class="cls-6" d="M112.31,77.5A34.81,34.81,0,1,1,77.5,42.69,34.81,34.81,0,0,1,112.31,77.5Z"/><path class="cls-3" d="M110.72,77.5A33.22,33.22,0,1,1,77.5,44.28,33.22,33.22,0,0,1,110.72,77.5Z"/><path class="cls-2" d="M78.37,47.09a.87.87,0,1,1-1.73,0,.87.87,0,0,1,1.73,0Z"/><path class="cls-2" d="M63.05,50.74a.86.86,0,1,1-1.18-.31A.86.86,0,0,1,63.05,50.74Z"/><path class="cls-2" d="M51.61,61.55A.86.86,0,0,1,50.74,63a.86.86,0,0,1,.87-1.49Z"/><path class="cls-2" d="M47.1,76.63a.87.87,0,1,1-.86.87A.87.87,0,0,1,47.1,76.63Z"/><path class="cls-2" d="M50.74,92a.86.86,0,1,1-.31,1.18A.86.86,0,0,1,50.74,92Z"/><path class="cls-2" d="M61.56,103.39a.86.86,0,0,1,1.18-.31.86.86,0,1,1-1.18.31Z"/><path class="cls-2" d="M76.64,107.9a.87.87,0,1,1,.87.86A.87.87,0,0,1,76.64,107.9Z"/><path class="cls-2" d="M92,104.25a.85.85,0,0,1,.31-1.17.86.86,0,1,1,.87,1.48A.85.85,0,0,1,92,104.25Z"/><path class="cls-2" d="M103.4,93.44a.86.86,0,0,1-.31-1.18.86.86,0,0,1,1.49.86A.87.87,0,0,1,103.4,93.44Z"/><path class="cls-2" d="M107.9,78.36a.87.87,0,1,1,.86-.87A.86.86,0,0,1,107.9,78.36Z"/><path class="cls-2" d="M104.26,63a.86.86,0,1,1,.31-1.18A.86.86,0,0,1,104.26,63Z"/><path class="cls-2" d="M93.45,51.6a.86.86,0,0,1-1.18.31.86.86,0,0,1,.86-1.49A.87.87,0,0,1,93.45,51.6Z"/><rect class="cls-2" x="76.46" y="77.5" width="2.09" height="16.88"/><rect class="cls-2" x="79.23" y="76.8" width="20.88" height="1.39"/><path class="cls-2" d="M81.39,77.5a3.89,3.89,0,1,1-3.89-3.88A3.89,3.89,0,0,1,81.39,77.5Z"/><polygon class="cls-5" points="81.5 80.9 80.91 81.49 61.22 61.81 61.81 61.21 81.5 80.9"/><path class="cls-5" d="M80.09,77.5a2.59,2.59,0,1,1-2.59-2.59A2.6,2.6,0,0,1,80.09,77.5Z"/><path class="cls-2" d="M78.8,77.5a1.3,1.3,0,0,1-2.59,0,1.3,1.3,0,0,1,2.59,0Z"/></g></g></svg>