<svg xmlns="http://www.w3.org/2000/svg" viewBox="0 0 46.33 46.29"><defs><style>.cls-1{fill:#facb6b;}.cls-2{fill:#fce0a6;}.cls-3{fill:#bc9850;}.cls-4{fill:#576877;}.cls-5{fill:#63c4c9;}.cls-6{fill:#fff;}</style></defs><title>Asset 5</title><g id="Layer_2" data-name="Layer 2"><g id="circles"><path class="cls-1" d="M46.33,23.16A23.17,23.17,0,1,1,23.16,0,23.13,23.13,0,0,1,46.33,23.16Z"/></g><g id="icons"><path class="cls-2" d="M34.12,36.7c0,1.43-4.89,2.59-10.93,2.59S12.25,38.13,12.25,36.7s4.9-2.6,10.94-2.6S34.12,35.27,34.12,36.7Z"/><path class="cls-1" d="M31.17,36.52c0,1-3.57,1.88-8,1.88s-8-.84-8-1.88,3.57-1.9,8-1.9S31.17,35.47,31.17,36.52Z"/><path class="cls-3" d="M29.1,36c0,.78-2.65,1.4-5.91,1.4s-5.91-.62-5.91-1.4,2.64-1.4,5.91-1.4S29.1,35.25,29.1,36Z"/><rect class="cls-4" x="22.99" y="5" width="0.75" height="3.24"/><rect class="cls-4" x="30.35" y="8.56" width="3.24" height="0.75" transform="translate(8.21 32.12) rotate(-59.9)"/><rect class="cls-4" x="36.65" y="14.87" width="3.24" height="0.75" transform="translate(-2.51 21.08) rotate(-29.87)"/><rect class="cls-4" x="40.19" y="22.24" width="0.75" height="3.24" transform="matrix(0, -1, 1, 0, 16.58, 64.36)"/><polygon class="cls-4" points="39.45 33.61 36.65 31.98 37.02 31.33 39.82 32.96 39.45 33.61"/><polygon class="cls-4" points="32.39 40.34 30.78 37.53 31.43 37.16 33.04 39.97 32.39 40.34"/><rect class="cls-4" x="21.68" y="40.64" width="3.23" height="0.75" transform="translate(-17.88 64.05) rotate(-89.63)"/><rect class="cls-4" x="13.07" y="38.3" width="3.24" height="0.75" transform="translate(-26.12 31.89) rotate(-59.76)"/><rect class="cls-4" x="6.8" y="31.96" width="3.24" height="0.75" transform="translate(-14.9 8.41) rotate(-29.67)"/><rect class="cls-4" x="5.79" y="22.09" width="0.75" height="3.24" transform="translate(-17.59 29.71) rotate(-89.58)"/><polygon class="cls-4" points="9.74 16.26 6.94 14.62 7.32 13.97 10.12 15.62 9.74 16.26"/><rect class="cls-4" x="14.51" y="7.24" width="0.75" height="3.24" transform="translate(-2.43 8.48) rotate(-29.5)"/><path class="cls-5" d="M33.15,16.75a12.46,12.46,0,1,1-17.44-2.49A12.45,12.45,0,0,1,33.15,16.75Z"/><path class="cls-6" d="M34,18.08v0a.08.08,0,0,0,0,0,11,11,0,0,0-.7-1.15l0,0s-.08.08-.08.11a.21.21,0,0,1,0,.06s-.09.07-.09.09,0,.1-.05.12h0l-.13,0s0,0,0,0h-.05s-.06.07-.11.07l-.1,0a.13.13,0,0,1,0-.06,1.27,1.27,0,0,1,.12-.1,1,1,0,0,0,.17-.11s0,0,0-.08.08-.12.08-.16a.25.25,0,0,1,0-.17s0,0,0,0h0s0,0,0-.06l0,0a.79.79,0,0,1,0-.17.07.07,0,0,0,0-.05l0,0v0a9.91,9.91,0,0,0-.9-1s0,0,0,0l-.07,0a.07.07,0,0,1-.06,0h-.09a.63.63,0,0,0-.1.12s0,0,0,0a0,0,0,0,1,.05,0l0,0s0,0,0,0h0s0,0,0,0,0,0,0,0a.36.36,0,0,0,.14,0l.16,0s.06,0,.09,0,0,0,0,0h0s0,0,0,.06a.26.26,0,0,0,.12,0h0a0,0,0,0,0,0,0v0h0a0,0,0,0,0,0,0c0,.07.08.23.09.26a.06.06,0,0,1,0,.06s0,0,0,0-.08,0-.09,0a.2.2,0,0,1-.09.06,1.92,1.92,0,0,0-.25.11,1.71,1.71,0,0,1-.27.11c-.05,0-.06.08-.08.09l-.07.09a0,0,0,0,0,0,.06h0a0,0,0,0,0,0,0s.07.05.08.09,0,0,0,0l0,.06a1.3,1.3,0,0,1,.06.19,1.23,1.23,0,0,0,0,.13s0,0,0,0v0s.08.08.07.05,0,0,.05,0l0,.08s0,.08.06.07.1,0,.13-.07l0,0a.06.06,0,0,1,.06,0l.2.09a.55.55,0,0,1,0,.23.41.41,0,0,1-.1.21.33.33,0,0,0-.09.19s0,.11,0,.13a.33.33,0,0,0,0,.15h0s0,.05,0,.05v0s0,.16,0,.2a.62.62,0,0,0-.08.12.37.37,0,0,1-.09.14.08.08,0,0,0,0,.07c0,.06,0,.14,0,.16a.5.5,0,0,0-.07.2c0,.09.06.17,0,.2a.33.33,0,0,0,0,.14c0,.1,0,.21,0,.23a.4.4,0,0,0,0,.15l0,0s0,0,0,0h0s0,0,.08.05l.06,0a.15.15,0,0,0,0,.08h0a.08.08,0,0,0,0,.06s.08,0,.12.07,0,.15,0,.19a.35.35,0,0,1,0,.06.25.25,0,0,1,0,.07s0,0,0,0v0s0,0,0,0a0,0,0,0,0,0,0s0,0,0,0h0v0s0,0,0,0h0s0,0,0,0a0,0,0,0,1,0,0s0,0,0,0v0h0s0,0,0,.05h0a.15.15,0,0,0,0,.07h0s.06.05.08,0l.11,0h0s0,0,0,0,0,0,.1,0h0c.06,0,.07.05.16.07l.15.06s0,0,0,.05,0,0,.1.05,0,0,.09.05h.24l.25.06a.32.32,0,0,0,.25,0l0,0a1.17,1.17,0,0,1,.32-.27l.2-.09.1,0s.06-.05.11-.11A11.81,11.81,0,0,0,34,18.08Z"/><path class="cls-6" d="M13.09,23.1s.05-.12,0-.12S13.07,23.09,13.09,23.1Z"/><path class="cls-6" d="M15.31,29.38l0,0s-.08,0-.11,0,0,0-.05,0a.13.13,0,0,0,0,.07s0,.06,0,.08,0,.07,0,0l.06-.1S15.34,29.38,15.31,29.38Z"/><path class="cls-6" d="M12.67,23.78h0l0,0s0,0,0,0l-.05,0h0s.06,0,0,0l-.07,0s0,0,0,0-.07-.06-.08,0-.08.22,0,.17l0-.06,0,.08s0,0,0,0,0,0-.06,0,0,.05,0,.05h0s-.09,0-.09,0,0,0,0,0l0,0s0,0,0,0,0,.06.08.05,0,0,0-.05.06,0,.06-.05,0,0,.05-.05,0,0,0,0,0,0,0,0,0,0,0,0S12.69,23.76,12.67,23.78Zm-.09.15h0s0,0,0,0S12.62,23.94,12.58,23.93Z"/><path class="cls-6" d="M11.59,25s-.18.18-.09.15.11-.12.16-.14S11.62,25,11.59,25Z"/><path class="cls-6" d="M13.17,22.91s.06,0,.05,0S13.16,22.9,13.17,22.91Z"/><path class="cls-6" d="M15.68,23.21h0a.3.3,0,0,0,.13,0c.06,0-.09,0-.12,0l0,0s0,0,0,0h0s0,0,0,0,0-.08,0-.05l0,0s0,0,0,0,0-.08,0-.06,0,.05,0,.07h0s0-.09,0-.07-.12,0-.1.06l0,0s0,0,0,0a.32.32,0,0,0,.14.1c.07,0,.19.1.27.08s-.09,0-.11,0S15.68,23.23,15.68,23.21Z"/><path class="cls-6" d="M16.75,16.69s0,0,0,0l0,0c-.05,0-.19.15-.14.15A.2.2,0,0,0,16.75,16.69Z"/><path class="cls-6" d="M21.07,17a.76.76,0,0,0,.08-.11c0-.05,0-.08,0-.12a.24.24,0,0,0-.06-.09s-.11,0-.17.07a.17.17,0,0,0,0,.18h0a.07.07,0,0,0,0,0C20.91,17,21,17,21.07,17Z"/><path class="cls-6" d="M20.71,16.6s0,.06,0,0S20.75,16.57,20.71,16.6Z"/><path class="cls-6" d="M16.75,17.09s0-.05,0-.07l0,0s0,0,0,0a.18.18,0,0,0-.11,0,.46.46,0,0,0,0,.09s0,0,.05,0,0,0,0,0S16.67,17.12,16.75,17.09Z"/><path class="cls-6" d="M16.55,16.77s0,0,0,0h0a.18.18,0,0,0,.16-.15s0,0-.09.05h0l.06-.05c.06,0-.14,0-.18,0s0,.07,0,.08S16.52,16.77,16.55,16.77Z"/><path class="cls-6" d="M21.33,16.67a.16.16,0,0,0-.15,0s0,.05,0,.05S21.36,16.68,21.33,16.67Z"/><path class="cls-6" d="M22.78,17.73s-.06.06,0,.07S22.81,17.74,22.78,17.73Z"/><path class="cls-6" d="M16.37,16.62c.05,0,0-.06,0-.08s-.13-.1-.21-.09,0,0,0,.07h0C16.08,16.53,16.34,16.65,16.37,16.62Z"/><path class="cls-6" d="M16.74,16.21s-.1,0-.15,0S16.64,16.29,16.74,16.21Z"/><path class="cls-6" d="M23,17.37s.1,0,.09,0l-.06,0s0,0,0,0-.06-.05-.08-.05,0,0,0,0,0,0,0,0,0,0,0,0h0s0,0,0,0S23,17.36,23,17.37Z"/><path class="cls-6" d="M19.66,15.18s-.08.08-.05.07S19.72,15.17,19.66,15.18Z"/><path class="cls-6" d="M24.33,19.31a.53.53,0,0,0,.21-.06c0-.05,0,0-.12,0l.09,0c0-.05,0,0-.14,0a.34.34,0,0,0-.22.07s.07,0,.13,0l-.1.05S24.27,19.32,24.33,19.31Z"/><path class="cls-6" d="M17.22,16.76c.06,0,0,0,0,0s.14,0,.22-.09.1-.08.08-.09l-.06,0s0,0,0,0l0,0h.06s-.05-.07-.07-.06h0s0-.07-.06-.06l0,0s0,0,0,0,0,0,0,0,0,0,0,0l0,0-.12,0s0,.06-.07.09-.09,0-.14.05-.06,0,0,0-.07,0-.12.1,0,0,.06,0,0,0,0,0,0,0,0,0,0,0-.05,0-.06,0-.09.06,0,0,.05,0,0,0,0,0,0,0,0,.05,0,0,0,0l.07,0a.28.28,0,0,0,0,.08s0,0,0,0a.09.09,0,0,0,0,.06s-.09.11-.06.09l.05-.05s0,0,.1-.07l0,0s0,0,0,0-.1.09-.08.12,0,0,.1-.06a.76.76,0,0,0,.15-.1h.07l0,.05S17.15,16.76,17.22,16.76Zm-.15-.27s.05,0,0,0H17Zm.09.07h0S17.16,16.57,17.16,16.56ZM17,16.43h0l0,0a0,0,0,0,1-.05,0Zm-.1,0s0,0,0,0H16.9Z"/><path class="cls-6" d="M17,15.75s0,0,0,0,0,0,.05,0l0,0s.05,0,.12,0h.07l-.08.06s.07,0,.13,0a.21.21,0,0,0,.09-.05h0s0,.08.09,0,.23-.1.26-.13.07-.12,0-.1h0s0-.09,0-.07l-.23.09,0,0h0s0,0,0,0l0,0s0,0-.07,0,0,0,0-.08-.14,0-.19.06a.77.77,0,0,0-.27.07c-.06,0,0,0,.06,0s0,0,0,0Z"/><path class="cls-6" d="M20.91,18s0,0,0,0v-.05s0,0-.06,0-.07,0-.11,0,0,0,0,0h0a.06.06,0,0,0,0,0c0-.05-.12,0-.15,0s-.15,0-.18,0a.13.13,0,0,1-.11,0s0,0,0,0-.08,0-.08,0l.06,0s0,0,0,0,0,0,0,0-.06,0-.09-.05,0,.05-.05.09.08.18.08.21l0,0h0a0,0,0,0,0,0,0,.23.23,0,0,1,0,.11s0,0,0,.05l.06,0,0,.05s0,0,0,.05l.14-.1s.06,0,.07.08.05,0,.07,0,0-.11.05-.13,0-.1.05-.12,0,0,.07,0,0,0,.06-.06,0,0,0,0a1.36,1.36,0,0,0,.2,0S20.9,18,20.91,18Z"/><path class="cls-6" d="M18,18.17s0,0,0,0,0,.07,0,0S18,18.2,18,18.17Z"/><path class="cls-6" d="M17.83,16.28s0,0-.08,0S17.79,16.31,17.83,16.28Z"/><path class="cls-6" d="M21.19,18.31s0-.1,0-.13,0-.08-.07-.08,0,0,0,.08a.07.07,0,0,0,0,.06h0C21.1,18.29,21.16,18.33,21.19,18.31Z"/><path class="cls-6" d="M21.77,19.9s-.06,0,0,0,.15,0,.14,0S21.8,19.87,21.77,19.9Z"/><path class="cls-6" d="M18.06,16.49s0-.06,0-.09,0,0,0-.06h0s0-.05,0-.06a.79.79,0,0,0-.23,0c-.07,0-.12.2-.09.21h0s0,.06,0,.06a.45.45,0,0,0,.2,0C17.92,16.56,18.05,16.54,18.06,16.49Z"/><path class="cls-6" d="M20.31,17.78s-.11,0-.15,0S20.27,17.83,20.31,17.78Z"/><path class="cls-6" d="M20.74,18.42a.32.32,0,0,0,.07-.2s0,0,0,0a.81.81,0,0,0,0-.09s-.11.06-.15.1a.13.13,0,0,0,0,.1s0,0,0,0a.09.09,0,0,0,0,.05S20.71,18.44,20.74,18.42Z"/><path class="cls-6" d="M19.71,15.49l0,0v0s0-.08,0-.07,0,0,0,0h0c0-.05,0-.09,0-.08s0,0-.08,0-.07,0-.11.05,0-.05-.06,0l-.19.1c-.05,0-.09,0-.12,0s-.15.16-.19.19,0,0,0,0,0,0,0,0,0,0-.11,0-.07,0-.12.05-.08,0-.09,0,0,0,0,.06-.06,0-.09,0h0s0,0,0,0,0,0,0,0h-.05s.05,0,0,0h-.11a.58.58,0,0,0-.14.05h0c.08,0,.24-.11.2-.11h-.07s0,0,0,0,0,0,0,0a.33.33,0,0,0-.12.05s.08-.06,0-.07-.06,0-.12.05-.14.1-.16.1l0,0h0s0,0,0-.06-.08,0-.11,0a.73.73,0,0,1-.21.07c-.06,0-.17.11-.11.1s.05,0,0,0-.06.06,0,0h0c.06,0,0,0,0,0s-.05.05,0,0l.14,0s0,0,0,0l.09,0,.13-.06c.07,0,0-.05.1-.06s.06,0,.12,0,.06,0,.09.06h0s0,.05,0,.07l0,0s0,0,0,0a.17.17,0,0,0,.09.07c.06,0,.05.07.1,0s0-.09.05-.07a.15.15,0,0,0,.16,0c.06,0,0,0,.09-.09s0-.1.06-.06.07,0,.12,0a3.28,3.28,0,0,0,.46-.25s0-.07,0-.09,0,0,.06,0a.28.28,0,0,0,.21,0c.06-.05.15-.08.16-.12s0,0,0,0S19.73,15.48,19.71,15.49Zm-1.44.41s-.1.07-.07,0v0Zm-.41.1h0s0,0,0,0Z"/><path class="cls-6" d="M15.05,17c-.08,0,.08.08.13,0s0,0-.06-.06h0s-.06-.09-.14-.05,0,.06.05.06Z"/><path class="cls-6" d="M21.3,17.91s0-.05,0-.07,0,0,0,0,0,0,0-.06-.08,0-.11,0,0,0,.07,0l0,0S21.27,17.93,21.3,17.91Z"/><path class="cls-6" d="M22.28,17.52s-.08,0-.11,0S22.28,17.55,22.28,17.52Z"/><path class="cls-6" d="M17.79,18.38s0-.06,0,0S17.77,18.39,17.79,18.38Z"/><path class="cls-6" d="M20.41,14.38s-.13,0-.1,0Z"/><path class="cls-6" d="M20.52,16.85s.08-.15,0-.15S20.49,16.86,20.52,16.85Z"/><path class="cls-6" d="M25.21,23.86s-.07,0-.05,0S25.23,23.88,25.21,23.86Z"/><path class="cls-6" d="M31.12,14.64s0,0,0,0Z"/><path class="cls-6" d="M22.37,21.06s-.18.07-.16.07S22.38,21.14,22.37,21.06Z"/><path class="cls-6" d="M30,33.44s0,0,0,0l-.05,0S30,33.43,30,33.44Z"/><path class="cls-6" d="M29.55,32.28s0,0,0,0-.08,0-.05,0,.05,0,.05,0,0,0,0,0,0,0,0,0,0,0,0,0Z"/><path class="cls-6" d="M30.17,33.55s.21,0,.18,0Z"/><path class="cls-6" d="M26.18,23.83c.07,0,.21-.11.17-.11s-.08,0-.14,0S26.11,23.87,26.18,23.83Z"/><path class="cls-6" d="M23.51,14.62s0,0,0,0-.05,0-.07,0,0,0,0,0S23.49,14.63,23.51,14.62Z"/><path class="cls-6" d="M25.75,24s.05,0,.08,0,.05,0,.09,0,0,0,0-.06,0,0,0,0a.08.08,0,0,1,0,0s-.05,0-.1,0-.12,0-.18,0a.32.32,0,0,0-.17,0c-.05,0-.07,0-.05,0s0,0,0,0h-.14a.07.07,0,0,0-.07.07s0,0,.05,0h0a.05.05,0,0,0,0,0s0,0,.05,0,.05,0,.06,0l0,0h0l-.07,0s0,0,0,0a.28.28,0,0,1-.08.06s0,0,0,0,.05,0,.06,0a.68.68,0,0,1,.17-.08.06.06,0,0,1,0,.05l-.07,0s0,0,0,0,0,.05-.08.07,0,0,0,0a.12.12,0,0,0,.07,0s.19-.07.24-.13h0s0,0,.06,0,0,0,0-.08S25.72,24,25.75,24Z"/><path class="cls-6" d="M24.77,24.55c.08,0,.11,0,.15,0s0-.05.07,0,.05,0,0,0-.06,0-.1,0l0,0s.06,0,0,0-.13,0-.17,0-.17.09-.09.09h.06S24.72,24.54,24.77,24.55Z"/><path class="cls-6" d="M25.13,24.05s0,0-.05,0,0,0,0,0A.12.12,0,0,0,25,24a.13.13,0,0,1-.11,0,.59.59,0,0,1-.17,0c-.07,0,0,0-.09,0a.37.37,0,0,1-.14,0s0,0,0,0l-.2,0a1.5,1.5,0,0,0-.29.12.65.65,0,0,0-.17.15.27.27,0,0,0-.07.14s0,0,.05,0,0,0,0,0a.42.42,0,0,0,0,.1s0,0,.05,0a.44.44,0,0,0,.14-.17.39.39,0,0,1,.16-.07s0,0,0,.05.1,0,.16-.05a.17.17,0,0,1,.14,0,.21.21,0,0,0,.13-.07s0,0,.07,0,0,0,.1,0h0s0,0,0,0l.05,0s0,0,0,.06,0,.05,0,0l.18-.11.06,0s0,0,.05,0S25.16,24.09,25.13,24.05Zm-1.26.2,0,0s.07,0,.11-.06h0Z"/><path class="cls-6" d="M30.59,14.24s-.05,0,0,0,.05,0,.07,0,0-.06,0-.06S30.6,14.21,30.59,14.24Z"/><path class="cls-6" d="M31.27,14.8h0l0,0s0,0,0,.06h0a.08.08,0,0,1,0,.07l-.05.09s0,0,.06,0l0,0s0,.05,0,0l.05-.07s0,0,0,0h.05s0,0-.05,0,0,0,0,0,.05.05,0,.1,0,.1,0,.12,0,0,0,0h.05s0,0,0,0,0,0,0,0a.12.12,0,0,1,0,.07s0,.05,0,0l0,0s0,0,0,0a.2.2,0,0,1,.06-.09.06.06,0,0,1,.05,0,.07.07,0,0,0,.05,0s0-.07,0-.09.09,0,.1,0h0L31.66,15h0l-.13-.12v0l0,0v0l-.22-.21s0,0,0,0-.06,0-.06,0,0,0,0,.05S31.25,14.79,31.27,14.8Z"/><path class="cls-6" d="M30.46,14.15h0v0s0,0,0,0,0,0,0,0,0,0,0,0v0l0,0v0l0,0s0,.09,0,.1S30.44,14.13,30.46,14.15Z"/><polygon class="cls-6" points="30.77 14.25 30.77 14.25 30.77 14.25 30.77 14.25"/><path class="cls-6" d="M30.71,14.24s0,0,0,0v0s0,0,0,0h0v0l0,0h0s0,0,0,0,0,0,0,0,0-.06,0,0l0,0h0s0,0,0,.05,0,0,0,0,0-.06,0-.05,0,.06,0,.05v0s0,0,0,0,0,.08,0,.06,0-.06,0-.06.05,0,0,0,0,0,0,0,0,0,0,0h0v0h0l0,0-.05,0,0,0-.11-.09v0s0,0,0,0h0l0,0h0l-.07-.06A.07.07,0,0,0,30.71,14.24Z"/><path class="cls-6" d="M22,11.72h.11l-.16,0c-.06,0,0,0,0,0l.2,0c.06,0,0,0,0,0h.14Z"/><path class="cls-6" d="M21.05,12.48s0,0,0,0,0,0,0,0l0,0h0s0,0,0,0a.62.62,0,0,0-.24.08s0,.07,0,.09a.08.08,0,0,0,0,0h0s-.13-.05-.18,0a2.51,2.51,0,0,1-.18.27l-.1.13s0,0,.07,0l0,.05s.07,0,.09,0a.76.76,0,0,0,.19-.07l.08,0v0l0,0a.08.08,0,0,0,0,0l0,0v0c0,.08-.06.14-.09.15s0,0-.06,0l-.07.05a.06.06,0,0,0-.05,0s-.13.09-.14.13,0,0,0,.06a2,2,0,0,1-.25.21s-.07,0-.07,0,0,.06,0,.07,0,.06,0,.05,0,0,0,0h0s0,0,0,0,0,0,.05,0,.07,0,.08,0,0-.05.06,0a.14.14,0,0,0,.13,0s.07-.08,0-.05,0,.05.06.06h.09a.51.51,0,0,0-.14.08h0s0,0,0,0l0,0s0,.08,0,.07h0s0,.07,0,.07.1,0,.12-.05,0,0,0,0,.05,0,.1,0,0,0,0,0a.05.05,0,0,0,0,0s0,0,.09,0a1.52,1.52,0,0,0,.29-.07s-.1,0-.08,0,.06,0,.08,0,0-.13.08-.09,0,.08,0,.05a.45.45,0,0,0,.09-.1s0-.06.06,0,0,0,.06,0,0,0,.06-.06l.2-.06A.83.83,0,0,1,22,14c.08,0,0,0,.07,0a.47.47,0,0,1,.15,0h0s0,0,0,0a.24.24,0,0,0,.11,0s.09,0,.11,0a.31.31,0,0,0,.12.05s0,.07.09.09.1.05.1.08,0,0,.05,0,0,0,0,0h0v0s0,0,0,0l0,0h0s0,.06,0,.07,0,0,0,0,0-.06.05-.06,0,0,0,0h0a.06.06,0,0,1,0,.05h0s0,0,0,0,0,0,0,0,0,0,0,0-.06,0,0,0,0,0,0,0,0,.05,0,.05h0s.05,0,0,0,0,0,0,0h0s0,0,0,0,0,.05,0,0h.05v0s0,0,0,0,.05,0,.06,0,0,0,0,0,0,0,.06,0,.09,0,.09-.06,0,0,0-.07.07-.05,0-.07l0,0h0s0,0,.05,0h0s0,0,0,0h0s0,0,0,0v0s0,0,0,.08,0,0,0,0h0s0,0,0,0,0,0,.06,0l0,0h0l-.05,0a.11.11,0,0,0,.06,0,0,0,0,0,1,0,0h0s0,0,0,0,0,0,0,0l-.1,0-.14,0s0,0,0,0,0,0,0,0l0,0s-.06,0,0,.06h0l0,0s-.06,0,0,.05h0c-.05,0-.1.06-.08.08s.08,0,.07,0,0,0,0,.05h0s0,.06,0,0h0s0,0,0,0,0,0,0,0,.1-.06.12,0,0,.06,0,.05.1,0,.13-.09.1-.1.08-.12,0,0-.06,0,0,0,0-.06h0a.39.39,0,0,1,.11-.06v0l0,0v.05s0,0,0,0,0,0,0-.06l0,0a.08.08,0,0,0,0,0h0v0s.06,0,0,0a0,0,0,0,0,0,.07s0,0,0,0h0v0s-.05,0,0,.05,0,.08,0,.06l0,0s0,0,0,0a.06.06,0,0,0,0,0s0,0,0,0l-.12,0s0,.06,0,.07-.05,0,0,0,0,0,0,0h0l0,0s-.05,0,0,0h0v0s0,.05,0,.07,0,.05,0,0l0-.06v0l0,0h0a.09.09,0,0,0,0,.05s0,.05,0,0a.1.1,0,0,1,.06,0,.1.1,0,0,1,0,0v0h0s0,0,0,0l0,0h0l0,0-.07.06s0,0,.06,0,0,0,0,0,.07,0,0,0-.09.05-.08.08l.05,0s0,0,0,0,0,.05.07,0a.33.33,0,0,1,0-.06l0,0h0l0,.09c0,.07,0,0,.07,0h0s0,0,0,0,.09.06.1,0v0h0l0,0s0,0,.06.07h0s0,.05,0,0h0s0,.09,0,.07,0-.1,0-.12,0,0,0,0l0,0V16h0v.07s.05,0,.07,0,0,.06,0,.07,0-.06.05,0,0,.05.06.05h0s0,0,0,0,0,.06,0,.06l.11,0a0,0,0,0,0,.05,0s0,0,0,0l.05.07s.05,0,.05,0,0,0,0,0a.81.81,0,0,0,.15,0,.19.19,0,0,0,.1-.06s.07,0,.07,0v0h0v0s0,.08,0,0v0h0s0,0,0,0h0v0s0,.06,0,0,0,0,0,0,0,0,0,0,0-.06,0,0,0,.14,0,.06,0,0,0,0,0,0,0,0,0-.07,0-.07h0a.56.56,0,0,0,0,.08l0-.09s0,0,0-.05h-.05l0,0s.06,0,0-.05-.07,0-.07,0l0,0h0s.05-.05,0,0h-.07s.07-.1,0-.1-.07,0-.06,0,.06-.05,0-.08l0-.05h0a.33.33,0,0,1,0-.06h0s0,0,0,0,.11-.07.09-.08-.08,0-.08,0h0s.14,0,.1,0-.12,0-.1,0,.12,0,.09,0,0-.06,0-.06h0s0,0,0,0,0,0,0,0,.05,0,0,0,0,0,0,0h0s0,0,0,0l0,0s.05,0,0-.05,0,0-.05,0,0,0,0,0a.11.11,0,0,0-.08,0h0s0,0,0,0,.05-.07,0-.08h-.05s0,0,0-.05h0l0,0s0,0,0,0,.14,0,.12-.07,0,0,0,0a0,0,0,0,0,0,0h0a.17.17,0,0,0,0-.07l0,0h0s0,.11,0,.07l0,0v0s0,.11,0,.07l.05-.06s0,0,0,0,.06,0,.06,0,0-.05,0-.05a.07.07,0,0,0,.06,0s0-.08,0-.1a.11.11,0,0,0,.06-.09.75.75,0,0,1,.05-.16.86.86,0,0,0,0-.15s.12-.11.09-.15l0,0s0,0,0,0l0,0a.33.33,0,0,0,.17,0c.05,0,.08,0,.07-.07s0,0,0,0,.08,0,0,0,0,0,0,0,0,0,.06,0a.48.48,0,0,0,.11-.08c.05,0,.17-.12.22-.18s.17-.28.2-.33a2,2,0,0,0,.17-.26l-.1.05c0-.07.09-.12.07-.12l-.22.11a.49.49,0,0,0-.19,0s-.1.11-.11.11h0a.47.47,0,0,0,.13-.11s0-.05,0-.07,0,0,0,0,0,0,0,0H26.8l0,0a.75.75,0,0,1,.2,0s0,.08.12.08.14-.08.13-.1.06.07.07,0a.14.14,0,0,0,0-.16v0s0,0,0,0-.08-.1-.08-.08,0,.06-.05,0,0,0,0,0H27l.19,0s0,0-.07,0h0s0,0-.08,0,0,0,0,0l-.06,0h0l-.09,0,0,0h-.06a.44.44,0,0,0-.12.07l.16-.05s-.05.06,0,.09l0,0a.06.06,0,0,0,0,0s0,0,.06,0h-.08v0s0,0,0,0h0s0-.05,0-.05a.07.07,0,0,0-.07,0h0l.08-.07h-.09l0,0s.06,0,0-.05h0l.17-.06h0l-.08,0a.15.15,0,0,1-.06,0h-.05s-.15,0-.12,0h.16a12.6,12.6,0,0,0-4.37-.44l0,0h.13s0,0,0,0l-.23,0H22c-.07,0,0,0,0,0h0a.06.06,0,0,1,0,0,.08.08,0,0,0,0,0S22,12,22,12h0v0s0-.06,0-.09-.06-.1-.11-.09a.39.39,0,0,0-.17.1l-.32.24c-.08,0-.14.11-.1.09a.17.17,0,0,1,.1,0l0,0h0a.72.72,0,0,0-.24.14c-.05,0-.05,0,0,.06S21,12.48,21.05,12.48ZM21,14h0l-.05,0A0,0,0,0,1,21,14Zm-.23.16s.17,0,.2-.06a.7.7,0,0,1-.21.1h0A.13.13,0,0,1,20.74,14.14Zm2.83.27h0l0,0,0,0Zm-.08.11h0l.07,0h0s0,0,0,0h0Zm.17.1s0,0,.05,0,0,0,0,0h0s0,0,0,0h-.08Zm-.08.18h0Zm.44.8h0l0,0v0h0Zm.16-.26s.05,0,0,0l0,0v0Zm-.09-.05h0Zm0-.07h0Zm0,.06h0Zm.14-.11H24.1a.08.08,0,0,0-.07,0h0a0,0,0,0,1,0,0h0s0,0,0,0h.06s0,0,0,0h0s0,0,0,0h0Zm-.13-.08h0ZM24,15h0s0,0,0,0v0h0A.08.08,0,0,1,24,15Zm-.12.21h0s0,0,0,0,0,0,0,0h0l0,0h0l0,0s0,0-.07,0Zm.59.55h0s.05,0,.05,0h0l0,0h0s0,0,0,0l0,0h0S24.51,15.81,24.47,15.79Zm.11.07h0S24.59,15.88,24.58,15.86Zm.91.3v0Zm1.15-3.09-.07,0h0a.14.14,0,0,0,0-.06,0,0,0,0,1,0-.05s0,.05,0,.05l.07,0Zm-.23-.56h0v0l.07-.05h0Zm0-.09h0Zm.34.68-.05,0s0,0,0,0l0,0a.09.09,0,0,0,.06,0S26.76,13.08,26.75,13.1Zm-.14-.86h0l0,0h0Z"/><path class="cls-6" d="M13.1,22.92s-.06.11,0,.12A.28.28,0,0,0,13.1,22.92Z"/><path class="cls-6" d="M11.62,24.94s0,0-.07,0-.17.18-.08.15S11.58,25,11.62,24.94Z"/><path class="cls-6" d="M11.35,25.28s-.09,0-.09,0,0,0,0,.05,0,.08,0,.07a.13.13,0,0,0,.06-.05s0,0,0,.05-.06.08,0,.07.08,0,.09-.08,0-.07,0-.09a0,0,0,0,0-.05,0Z"/><path class="cls-6" d="M14.77,22.55s0,0,0,0,0,0-.06,0S14.74,22.56,14.77,22.55Z"/><path class="cls-6" d="M16,16.1l0,.06s0,0,.08,0,0,0,.05,0,0,0,.05,0,0,0,.05,0h0l-.05,0c-.07,0-.06,0-.05.05s.07,0,.1,0h0c-.07,0-.06,0,0,0s.09,0,.11,0,.13-.09.18-.11,0,0,0,.07.06,0,.11-.08.1,0,.17,0,.05,0,.09,0A.14.14,0,0,0,17,16a0,0,0,0,0,0,0v0s-.06,0-.09-.06l-.12-.07s-.08,0-.14,0,0,0-.08,0-.05,0-.08,0,0,0-.06.08h0a0,0,0,0,1,0,0h0s0,0,0-.06-.19.06-.2.09A.37.37,0,0,1,16,16c-.05,0,0,0,0,.08S16,16.09,16,16.1Zm.32,0Zm0,.09.05,0h0S16.34,16.18,16.29,16.19Z"/><path class="cls-6" d="M22.71,17.73s.07-.06,0-.06S22.69,17.72,22.71,17.73Z"/><path class="cls-6" d="M16.83,16.66c-.06,0-.12.14-.1.13s-.06.06,0,.05.13-.12.1-.11S16.88,16.64,16.83,16.66Z"/><path class="cls-6" d="M16.55,16.19s.06,0,.16,0S16.61,16.14,16.55,16.19Z"/><path class="cls-6" d="M16.59,15.49l0,.06s0,0,.08,0,.05,0,.1,0,0,0,0-.07,0-.06-.06-.07-.11.06-.12.1S16.52,15.52,16.59,15.49Z"/><path class="cls-6" d="M19.58,15.19s.1-.08.05-.07S19.55,15.19,19.58,15.19Z"/><path class="cls-6" d="M24.3,23.6s0,0,0,.06a0,0,0,0,0,0,0s0,0,0,0,0,0,.06,0,0,0,0-.06S24.33,23.62,24.3,23.6Z"/><path class="cls-6" d="M18.2,15.74s.05-.06,0-.06S18.16,15.75,18.2,15.74Z"/><path class="cls-6" d="M16.91,15,17,15s-.07,0,0,.05H17l-.06,0s.11,0,.08,0l0,0-.07.05s0,0,.07,0l.05,0s0,0,0,0l-.08.07h0s-.05,0,0,0l.06,0h0s-.05,0,0,0,.09.07.16,0h.06s0,0,0,0,0,.05,0,.05.07,0,.09,0,0-.06.07-.06.05,0,.06,0,.06-.1.1-.11h.06l-.12.08s-.08.08-.05.09.05,0,.06,0,0,.06,0,.06h.07s0,0,0,0l.13-.05h0l0,0s-.08.05,0,.05h.15l.13-.05s.08-.06,0-.06,0,0,0,0,.06,0,.05,0-.07,0-.07-.05h0c.06,0,.13,0,.13,0s0-.07,0-.07-.05,0,0,0,0,.07.06,0,0-.08,0-.09l0,0a.07.07,0,0,0,0,0l0,0s0,0,0,0,.06.07.08,0a.93.93,0,0,1,.07-.15s.08,0,.07,0h0s-.05,0,0,.07,0,0-.05.07,0,0,.05.06h0s0,.07.06.06a.35.35,0,0,0,.08,0s0,0,.06,0,.06,0,.09-.06v0l.07,0s-.05.07,0,.05-.13.11-.05.07l0,0s0,.07,0,0l.07-.05h0l0,.1h0c-.06,0-.06,0-.1,0a.18.18,0,0,0-.16,0c-.07,0-.19.09-.11.11l0,0s0,0,0,.05.05,0,.13,0h0l-.14.08s-.13.1-.11.15l0,.06h0c0,.05,0,.08.07.08s.09,0,.09,0,0-.06,0-.06,0,.08.06.05l.11-.06s.08,0,.07-.05,0-.07,0,0,0,.06.06,0,.22-.08.18-.1-.11,0-.05,0,.08,0,.07,0,0,0,0,0,.1,0,.1,0-.06-.05,0-.05.06,0,.1,0,.08,0,0,0-.07,0,0,0h.07l.08,0s0,0,0,0l.06,0h0s-.05.12,0,.11a1.83,1.83,0,0,0,.17-.15.57.57,0,0,1,.1-.11c.05,0,.08-.08.07-.11s0,0,0,0,0,0,0,0-.05,0-.06,0l-.06,0s-.09.06-.09,0a.08.08,0,0,0,0,0,.19.19,0,0,0,.08-.07c0-.06,0-.09,0-.11h0s0,0,0-.05h0s.34-.21.25-.19l-.13,0,.06,0s0,0,0,0h0s.07-.07,0-.07l-.1,0s.08-.07.07-.08.1-.07.07-.08h-.07s.06-.05,0-.06h0s0,0,0,0,0,0,0,0-.35.12-.26.11h0l0,0h0c-.05,0-.15.06-.09,0l.07,0h0a.44.44,0,0,1,.17-.08c.06,0,.18-.08.14-.08s0,0,0,0l0,0c.06,0,.17-.12.12-.12l-.11,0c.06,0,.11-.09.07-.09h-.05s.08,0,.1,0,.08,0,.13,0a.48.48,0,0,0,.1-.15s0-.08,0-.06l-.05.05,0,0,.09-.08-.08,0h0a.09.09,0,0,0,.09,0c.06,0,.05-.11.1-.17s.18-.26.24-.32.14-.18.11-.16l-.17.13,0,0c.07-.07.14-.17.11-.15l-.36.27-.09,0h0a.6.6,0,0,1,.08-.08l.15-.08c.06,0,.12-.1.16-.12l.1-.06c.06,0,.34-.31.31-.36s0,0,0,0,0,0,0,0,0,0-.08,0-.18.07-.18.09,0,0,0,0-.08,0-.09,0,0,0,0,0-.06.07-.1.06-.06,0-.07,0,0,0,0,.05l-.12.11h0l-.15.08c.07-.07.14-.17.12-.14s-.18.08-.24.11a.51.51,0,0,1-.15.06l-.08,0s-.16.07-.12.08l.08,0h0c-.05,0-.1,0-.15,0s-.2.13-.17.13l.07,0,0,0h0c-.06,0-.12,0-.16,0s-.38.2-.29.19h.1l-.07,0h0l-.17.08a1.5,1.5,0,0,0-.17.08s.05,0,.1,0,.15-.07.11,0h0a.41.41,0,0,0-.17.08h0a.24.24,0,0,0-.15,0s0,0,0,0,.06,0,.06,0h0s0,0,0,0h0l-.15.06s.13,0,.1,0-.14.06-.09.09h.07a.11.11,0,0,0-.05,0h.07s0,0,0,0,0,0-.09,0a.34.34,0,0,0-.17,0,1.17,1.17,0,0,0-.21.08s.09,0,.06,0-.18.17-.14.15.06-.07.13-.07h0l-.06.06h-.05s0,.11-.07.1-.05,0-.11,0-.14.12-.13.14,0,0,0,0a.11.11,0,0,0-.08,0s-.08.08-.12.11-.06.06,0,.05a.1.1,0,0,0,.08,0l.09-.06s-.07.08-.1.1-.07.06,0,0l.08,0a.62.62,0,0,1,.12-.08s0,0,0,0-.08.09,0,0l.07,0s0,0,0,0h0s0,.06,0,.06.05,0,.11,0l.1-.05h.05l-.09.06c-.06,0,0,0,.06,0s.1,0,.17,0a.44.44,0,0,0,.08-.11h.05s0,.08,0,.07,0,0,.13-.06.15-.06.18-.12,0-.07,0-.08-.05,0,.05,0,.18-.13.14-.09-.18.18-.11.14l.09,0c-.07,0-.12.08-.08.08h.08c-.05,0-.08.06-.05.07s.23,0,.24,0v0h-.19c-.06,0-.14,0-.2,0l-.25.11s-.07,0-.06,0,0,.09,0,.06h0s0,.08,0,.06,0,0,0,0h0l0,0-.06,0,0,0a0,0,0,0,1,0,0s0-.05,0,0,0,.05,0,0,0,0,0,0H18s0-.05,0-.06,0,0-.1,0-.1.07-.05.07h.08s-.05,0-.05.05a.08.08,0,0,1-.07,0s0-.06-.05,0-.14.09-.18.06a.87.87,0,0,0-.23-.08.39.39,0,0,0-.22.06c-.09,0-.11.06-.08.06s.14-.05.14,0,0,0,0,0h0c-.06,0-.08,0-.08,0h0s0,0,0,0h0l-.1,0s-.05,0-.05.05,0,0,0,0H17S17,15,17,15s0,0,0,0h0S16.88,15,16.91,15ZM18,14h0Zm1.05-.8s0,0,0,0l0,0Zm.29,1.14s0,0,0,0h0a0,0,0,0,1,0,0Zm-.21.66h0v0h0Zm.42-.78h0Zm-.94.72V15S18.62,14.94,18.63,15Zm-.19-.1h0s0,0,0,0S18.43,14.86,18.44,14.85Zm.4-.16h-.07Zm-.27,0h.17a.16.16,0,0,0-.09,0l-.18.07s.05,0,0-.06h-.05s0,0,0-.05h0Zm.06.32v0h0S18.64,15,18.63,15Zm.17.12,0,0-.06,0Zm.62-.87h0l0,0h0s0,0,0,0Zm-1.4.1.06-.09.11-.08h0a.62.62,0,0,1-.14.14Zm.84-.33c0-.06.09-.14.06-.16s0,0,0,0,0,0,.07-.11h0v0c0,.05-.07.12,0,.08l0,0,0,.07c-.07.06-.12.1-.08.08s.25-.11.18-.07-.29.21-.35.24h0A.36.36,0,0,0,18.86,14.05Z"/><path class="cls-6" d="M18,15.5c-.06,0,0,0,0,.07v0s0,0,0,0h0s0,0,0,.06,0,0,.07,0l.09-.12s0,0-.06,0l0,0C18.19,15.45,18,15.48,18,15.5Z"/><path class="cls-6" d="M14.32,18s0,0,0,0h0s0,0,0,0v.07c0,.06,0,0,.05,0a.1.1,0,0,1,.08-.05s0,0,.07-.07,0,0,.06,0,0,0,.09,0,0-.05,0-.07,0-.05,0-.05,0,0,0,0,0,0,0-.09,0,0,0,0,.05,0,0,0a0,0,0,0,1,.05-.06s0,0,0,0h0s0,0,0,.05,0,0,0,0-.17.2-.14.2h.06s0,.07,0,.07.12,0,.13-.05,0-.19,0-.17l0,0c0-.05,0-.09,0-.1s.06-.05.06-.06a.07.07,0,0,0,0-.08l.09-.05s0,0,0,0,0,0,0,0,0,0,0,0h0s0,0,0,0,0,0,0,0,0,0-.06,0a.11.11,0,0,1,0-.07s-.1,0-.14,0,0,0,0,.07-.13.07-.25.12-.09.22-.15.28,0,.07,0,.12-.08,0-.12.09,0,.07,0,0S14.32,17.94,14.32,18Z"/><path class="cls-6" d="M17.89,18.13s0,.07,0,0,0,0,0-.07S17.9,18.1,17.89,18.13Z"/><path class="cls-6" d="M17.72,16.2s0,0,.07,0S17.75,16.18,17.72,16.2Z"/><path class="cls-6" d="M18,17.08s0,0-.06,0,0,0,0-.06,0,0,0,0,0,0,0,.05l0,0s0,0,0,0h0s-.11,0-.14,0l0,0s0-.05,0,0,0,0,0,0a.06.06,0,0,0,0,0s0,0-.06,0h0a.1.1,0,0,0,0-.06s-.08,0-.12,0,0-.05,0-.07-.08,0-.1.06l-.09.08s.09,0,.07,0,0,0,0,0l0,0h-.13s0,0,0,0l-.07,0a.16.16,0,0,0-.06.05h.06s0,0,0,0h0l0,0h0s0,0-.05,0,.08,0,.13,0a0,0,0,0,0,0,0h0s0,0-.05,0,0,0-.06,0,.09,0,.13,0h0s0,0,0,0,0,0-.08.05-.13,0-.18,0,0,.06,0,.09a0,0,0,0,0,0,0s0,0,0,.05,0,0,.1,0,.06,0,.1,0a.76.76,0,0,1,.21,0c.05,0,.17.06.21.06s.1-.08.09-.08l0,0v0h.05s.08-.07.1-.09a.08.08,0,0,0,0-.08l0,0h0v0s0-.06,0-.07h0S18,17.09,18,17.08Z"/><path class="cls-6" d="M21.73,19.83s-.05,0,0,0,.16,0,.15,0S21.76,19.81,21.73,19.83Z"/><path class="cls-6" d="M20.09,17.76s.07.08.09,0S20.08,17.74,20.09,17.76Z"/><path class="cls-6" d="M21.75,19.12s0,0-.06.05,0,0,0,0h.06v0s0,0,0,0,0,0,.08,0,0,0,0-.06,0,0,0,0v0S21.79,19.12,21.75,19.12Z"/><path class="cls-6" d="M20.54,16.54a.14.14,0,0,0-.07.06S20.58,16.53,20.54,16.54Z"/><path class="cls-6" d="M15.48,17.31c-.05,0-.07,0-.11.06s-.06,0-.08,0l.06,0c.05,0,0,0-.1,0s0,0,0,0a.27.27,0,0,0-.11.1s0,0,.08,0,0,0-.05,0l0,0a.13.13,0,0,0-.07.09s0,0,.08,0a.09.09,0,0,0,0,.06h0s-.06.06,0,.06a.42.42,0,0,0,.14-.08l.08,0h0l-.16.1s0,.06,0,.06h0s0,0,0,.06.07,0,.12-.05l-.1.05s0,0,0,.06.09,0,.12-.05,0,0,.09,0,0,0,0,0,.05,0,.05,0a.37.37,0,0,0,.06-.08.19.19,0,0,1,0-.1h0s0,0,0,0,0,.05,0,0l-.07.08s0,0,.06,0l0,0c0,.05.06,0,.12,0s.18-.15.23-.19l.13-.1c.06-.05.1-.12.13-.14a.08.08,0,0,1,.07,0s0,0,.06-.07,0,0,.06,0a.67.67,0,0,0,.16-.14s0-.09,0-.12a.07.07,0,0,0,0-.06h0s0-.08-.08-.08l-.1,0s0,.06,0,.08,0,0,0,0-.11,0-.13,0,0,0-.05,0h0s0,0,0-.05,0,0-.1-.1-.1.1-.09.13,0,.05,0,.09,0,0,.06,0l0,.05s0,0,.08,0h0c-.07,0,0,0,.07,0h0l-.06,0s0,0,0,0a.34.34,0,0,1-.09.08l-.09.05s-.05,0-.08-.05-.05,0-.05,0A.53.53,0,0,0,15.48,17.31Z"/><path class="cls-6" d="M15.32,17.24s-.05,0-.1,0S15.26,17.27,15.32,17.24Z"/><path class="cls-6" d="M20.27,14.36s.11,0,.1,0S20.24,14.37,20.27,14.36Z"/><path class="cls-6" d="M15.28,16.72h0v0s-.13.1-.09.1,0,0,.09,0,0,0,.08,0-.1.08-.1.09-.07.08,0,.1l0,0s0,0,0,0,.14,0,.19,0,.15-.14.19-.18,0-.05-.05,0v0a0,0,0,0,0,0,0l0,0c.07-.05,0-.08,0-.06h0c.05,0,0-.06,0-.06l0,0s0,0-.08,0,0,0,0,0-.17,0-.21,0-.09.12-.13.16-.13.1-.1.11S15.24,16.75,15.28,16.72Z"/><path class="cls-6" d="M20.48,16.79a.3.3,0,0,0,.06-.14s.07,0,0,0l-.05,0h0S20.46,16.8,20.48,16.79Z"/><path class="cls-6" d="M25.18,23.79s-.07,0-.06,0S25.19,23.82,25.18,23.79Z"/><path class="cls-6" d="M25.75,18.79a.08.08,0,0,1,0,0s0,0,0,0a0,0,0,0,1,0,0h0s0-.11,0-.09a.4.4,0,0,0,0,.13s0,.15,0,.13a.08.08,0,0,1,0,0,.36.36,0,0,0,0,.1.17.17,0,0,1,0-.07s0,0,0,0,0,.1,0,.06,0,0,0,0,0-.06,0-.09,0-.09,0-.08l0,0h0S25.76,18.78,25.75,18.79Z"/><path class="cls-6" d="M27.61,13.78s0,.05,0,.06h.05l.06,0s0,0,0,0l-.06,0s0,0,0,.05,0,0,.05,0a.2.2,0,0,0,.09-.05l.08,0,.05,0h0s0,0,0,0l-.1.08c-.06,0-.11.08,0,.06l.17-.07-.09.07c-.06,0-.11.09-.05.06S28,13.94,28,14s0,0,0,0l0,0L28,14s0,0,0,.06,0,0,.06,0l0,0v0a.13.13,0,0,0,0,.07s0,0,.07,0,.09-.08.13-.09l.09,0s0,0,0,0a.59.59,0,0,0,.23-.07.1.1,0,0,0,.05-.08s.12-.06.15-.13,0-.13.09-.16.08-.07.08-.11a.1.1,0,0,1,0-.07s0,0,0,0,0,0,0,0,0,0,0,0,0,0,0,0h0s0,0,0,0h0s0,0,0,0,0-.05,0,0l-.1,0s0,0,0,0,0,0,0,0,0,0,0,0,0,0,0,0-.07,0-.05,0,0-.07,0-.06-.07.09-.09.09,0,0-.08,0-.07,0-.05,0,0,0,0,.05h0s0,0,0,0,0,0,0,0,0,.06,0,.06-.06,0-.07,0,0,0,0,.06h0c-.05,0-.15-.05-.17,0s0,0,0,0,0,.05,0,.06-.06,0-.09,0h0s0,0,0,0l0,0a0,0,0,0,0,0,0s0,0,0,0,0,0,0,0,0,0,0,.08,0,0-.05,0h0l-.06,0s.06,0,0,0a.54.54,0,0,0-.21,0s-.08,0-.05,0,0,0,.06,0,0,0,0,0h0s0,0,0,0,0,0,.05,0,0,0,0,0h-.11s-.05,0,0,0,0,0,0,0-.05,0,0,0h.05s0,0,0,0h0Zm.2,0h0S27.83,13.76,27.81,13.75Z"/><path class="cls-6" d="M31.08,14.58s0,.05,0,0S31.08,14.57,31.08,14.58Z"/><path class="cls-6" d="M30.66,14.18s0,0,0,0S30.68,14.17,30.66,14.18Z"/><path class="cls-6" d="M30.69,14.32v-.05s0,0,0,0,0,0,0,0S30.68,14.33,30.69,14.32Z"/><path class="cls-6" d="M30.73,14.31s0,0,0,0,0,.05,0,0,0,0,0,0h0S30.74,14.3,30.73,14.31Z"/><path class="cls-6" d="M29.51,32.21s0,0,0,0-.08,0-.05,0,0,0,.05,0l0,0s0,0,0,0,0-.05,0-.05S29.52,32.23,29.51,32.21Z"/><path class="cls-6" d="M31.91,26.5a.12.12,0,0,1,0-.1s0,0,0-.08a.36.36,0,0,1-.07-.17.24.24,0,0,0-.07-.13l-.07-.12a.8.8,0,0,1-.05-.11s0,0,0-.05h0s.06,0,.05,0,0,0,0,0h0s0,0,0,0v-.17a.27.27,0,0,1,0-.18.21.21,0,0,0,0-.13,1,1,0,0,0,0-.26l-.07-.14a.39.39,0,0,0-.13-.17c-.1-.07-.09-.11-.17-.07a.3.3,0,0,1-.21,0,.71.71,0,0,0-.21,0,.57.57,0,0,0-.26,0c-.06,0-.06.06-.12.09s-.2,0-.25,0-.06.05-.07.06a.15.15,0,0,1-.13,0,.15.15,0,0,0-.12,0l-.28,0s-.12,0-.13.09a.13.13,0,0,1,0,.06s0,0,0,0a.09.09,0,0,0,0-.07c-.05,0-.08,0-.12,0s-.06,0-.08,0h-.05s0,0,0,0h0s0,0,0,0,0,0,0,0v-.05s-.07,0-.11,0-.09-.07-.12-.11-.07-.09-.1-.1h-.16a.32.32,0,0,0-.16,0l-.1,0-.13,0-.09.05s0,.06-.05.06,0,0-.06,0,0,0,0,0,0,0,0,0h0l-.08,0c-.05,0-.08,0-.12,0s0,0-.08,0a.45.45,0,0,0-.22-.05h0l-.11.06h0s0-.05,0-.05h0s0-.07,0-.07h0s0-.05,0-.07-.05-.09-.07-.08,0,0,0,.06-.06,0,0,.06h.06s0,0,0,0h0a0,0,0,0,0,0,0h0s0,0,0,0,0,0,0,0l0,0s0,0,0,0a.08.08,0,0,0-.06,0l0,0h0s0,0,0,0,.1-.06.08-.07l-.07,0s-.14.05-.16.11,0,.11-.08.12a.33.33,0,0,1-.13,0s-.06,0-.08,0a1.13,1.13,0,0,0-.18.12c-.05,0-.06,0-.08,0s-.07-.08-.11-.06a.91.91,0,0,0-.14.07h0l0,0s-.07,0-.08,0,0,0,0,.05,0,0,0,0h0s0,0,0,0l-.07.07s-.05.07,0,.09l0,0s0,0,0,0,.07,0,.1.07,0,0,0,0a.22.22,0,0,1-.11,0s0-.09,0-.1l0,0V25l-.05,0s0,0,0,0,.05-.09,0-.09h0s0-.06,0-.07a.12.12,0,0,0-.1.05s0,.07,0,.08l0,.05s0,.07,0,.08-.1,0-.11.07,0,.09,0,.08,0,0-.05,0,0,0,0,0,0,.07,0,.11,0,.07,0,.11a.3.3,0,0,0-.05.16c0,.05,0,.1,0,.1a.53.53,0,0,0-.15-.07s-.09,0-.08,0,0,0-.06,0l-.14,0a.07.07,0,0,0,0,.05s-.05.08-.06.08,0,0,0,.05-.09.05-.12,0a.14.14,0,0,0-.09,0l-.06,0-.05,0-.16-.06h0a.22.22,0,0,0,0-.08,1.07,1.07,0,0,0-.07-.19s0-.1,0-.14a.11.11,0,0,0,0,0h0l0-.06s0,0,0,0h0s-.1,0-.15,0a.34.34,0,0,0-.17.07c-.06,0-.07.09-.12.11a.52.52,0,0,0-.11,0s-.06.07-.09.08h0a.16.16,0,0,0,0-.15.23.23,0,0,1,0-.13h0s0-.1,0-.12,0,0,0-.05v0l0,0a.19.19,0,0,1,0-.08c0-.07.05-.12,0-.14s0,0,0,0,0,0,0,0,0-.06-.1,0-.29.19-.3.25.05.15,0,.18a.91.91,0,0,1,0,.16s0,0,0,.05l-.07,0a.56.56,0,0,0-.18.13s-.06.08-.1.08a.16.16,0,0,0-.12,0s-.11.05-.17,0a.7.7,0,0,0-.16-.1.93.93,0,0,1-.18-.15l-.07-.09s0,0,0,0l0,0,0,0S22,25,22,25s0-.1,0-.16,0,0,0,0,0,0,0,0h0s0,0,0,0l-.1-.1s0,0,0,0,0,0,0-.05,0,0,0,0,.06-.08.05-.11,0,0,0,0a.76.76,0,0,0,.1-.12c0-.05,0-.09,0-.08h0s.05,0,.08,0,0-.06.06-.09a.38.38,0,0,1,.13,0s.05,0,.06,0,0-.05.07-.05.1,0,.13,0,0-.1.07-.1a.17.17,0,0,1,.12,0l0,0s0,0,0,0-.08,0-.07,0h0s0,0,0,0h0s-.08,0-.07,0h0a.35.35,0,0,1,.1-.08s.05-.05.07-.05,0,0,0,0l.09-.06s.1-.07.14-.06.07,0,.1,0a.1.1,0,0,0,.07,0l.06-.1a1.27,1.27,0,0,0,.14,0,.28.28,0,0,1,.11,0l0,0a0,0,0,0,0,0,0s0,0,0,0,0,0,0,0l0,0v0s0,.06.07.06.05,0,.06,0,0,0,0,0,0,0,0,.07.06,0,.09,0a.27.27,0,0,0,.1.06s0,0,0,0,0,0,0,0,0,0,0,0a.25.25,0,0,1,0-.11.31.31,0,0,0-.05-.13.25.25,0,0,0-.09-.13.37.37,0,0,1-.13-.11l-.14-.12-.12-.12a.91.91,0,0,1,0-.17.61.61,0,0,1,.07-.14s0-.07,0-.11,0,0,0-.05l.06-.09,0-.06a1.39,1.39,0,0,1,.06-.13s.07-.05.08-.07,0-.05,0,0l-.07.05,0,0s0,0,0,0,0,0,0,0v0a.16.16,0,0,0,0-.06.23.23,0,0,0,0-.07,0,0,0,0,0,0,0s0,0,0,0h0s0,0,0,0a.08.08,0,0,0,0-.07s0,0,0,0h0l0,0v0h0s0,0,0,0l0,0h0s0-.07,0-.1a.29.29,0,0,0,0-.16l0,0s0,0,0,0l-.11-.08s0,0,0,0,0,0,0,0h0s0,0,0,0,0,0,.07,0,0,0,0,0a.37.37,0,0,0,0-.12s0-.09,0-.11h0s0,0,0-.05h0v0s0,0,0,0,0,.05,0,0a.9.9,0,0,1,.05-.09.26.26,0,0,1,.09-.09c.05,0,.12-.05.11-.08s0-.05,0-.05,0,0,0,0A.05.05,0,0,0,24,21s0,0,0,0,0,0,0,0l0-.06a0,0,0,0,0,0,0h0s0,0,0,0,0,0,0,0l0,0s0,0,0,0,0-.05,0-.07,0,0,0,0h0a0,0,0,0,1,0,0s0,0,0,0,0,0-.06,0h0v0s0,0,0-.07a.17.17,0,0,0,0-.07.05.05,0,0,1,0,0,0,0,0,0,0,0,0h0a.06.06,0,0,0,.05-.06c0-.05,0-.08,0-.07s0,0,.06,0a.1.1,0,0,0,0-.05s0,0,.06-.07l.05-.07v0s0,0,0,0,.05-.05.06-.08,0,0,0,0,0-.06.07-.09l0,0,0,0s0,.05-.06.09a.25.25,0,0,0,0,.08.08.08,0,0,0,0,.06h0a.09.09,0,0,0,.05.07h.08s0,0,0,0a.39.39,0,0,0,.05-.13s0-.12,0-.1,0,0,0,0,.06,0,.06,0,0,0,0,0l.12-.13a.57.57,0,0,1,.08-.08s0,0,0,0,0,0,0,0,0,0,0,0h0l0,0a0,0,0,0,0,0,0,0,0,0,0,0,0,0,.64.64,0,0,0,0-.09h0a.06.06,0,0,0,0,0,0,0,0,0,0,.06,0s0-.05,0-.07,0,0,0,0,0,0,0,0,0,0,0,0,0-.05,0,0l0,0s0,0,0,0,0,0,0,0a.14.14,0,0,1,0-.06s0,0-.05,0,0,.11,0,.14,0,0,0,.07h0v0s0,0-.05,0,0,0-.05,0,0,0,0,0a.34.34,0,0,1,0-.08l-.07,0s0-.08,0-.1l-.15.08s0,0-.05,0,0,0,0,0-.06,0-.09,0,0,.05,0,.06a0,0,0,0,0,0,0s0,0,0,.05h0l-.06-.07h0s0,0,0,0h0s0,0,0,0h0l0,0s0,0,0-.05,0,0,0,0h0v0h0s0,0,0,0,0,0,0,0,0,0,0,0a.56.56,0,0,0-.22,0,1.26,1.26,0,0,0-.23.24l-.1.16v0a.11.11,0,0,0,0,0,.35.35,0,0,1,.06-.14s.1-.05.1-.09a.33.33,0,0,1,0-.14.46.46,0,0,1,.07-.07l.49-.26c.05,0,.07,0,.1,0l.13-.1a.25.25,0,0,0,.09-.11c0-.06,0-.12.05-.16s.13-.07.17-.12h0s0,.09,0,.11,0,0,0,0a.78.78,0,0,1,0,.21l0,.12s0,.06,0,.05,0,0,.05,0h0v0s0,.05,0,.05h0s0,0,0,0,0,0,0,.06h0s0,.05,0,.06.06,0,.08,0,.1-.05.15-.06l.19-.11s0,0,.05,0v0s0,.05,0,0a.09.09,0,0,0,0-.07s0,0,0,.06,0,.11,0,.07a.93.93,0,0,1,0-.1c0-.05.06-.07.07-.09s0,0,0-.06a.42.42,0,0,1,0-.12s0,0,0,0l0,0a.12.12,0,0,1,0-.07s0,0,0,0,0,0-.07,0h0s0-.06,0,0l-.06,0h0s.09-.11,0-.1-.07.06-.09,0-.05-.05-.05,0,0,.12,0,.11,0,0-.06,0h-.08s0-.07,0-.06-.06,0-.07,0a.41.41,0,0,0,0,.07v0a.32.32,0,0,0,0-.14s0-.05,0,0,0,0,0-.06,0,0-.05,0v0s0,0,0-.05,0,0-.06,0v0s0-.05,0,0v0s0,0-.05,0h0s0,0,0,0h0s0,0,0,0h0s0,0,0,0h0a0,0,0,0,1,0,0s0,0,0,0h-.09s0,0,0,0a.1.1,0,0,1,0,.05h0s0,0,0,0,0,0,0,0h-.09a0,0,0,0,1,0,0s0,0,0,0h0s0,0,0,0,0,0,0,0a.12.12,0,0,1-.12,0s0,0-.05,0-.06.08-.05.05,0-.06,0-.07l-.07.06a0,0,0,0,0,0,0,0,0,0,0,1,0,0s0-.06-.05-.05S24,18,24,18s0,0-.05,0l-.07,0s0,0,0,0,0,0,0,0,0,0,0-.06h0s0-.05,0-.06a.18.18,0,0,0-.1,0h-.05s0,0,0,0-.07,0-.09,0l0,0,0,0s0,0,0,0h0s.06-.05,0-.06,0,0-.05,0h0s0,0,0,0h0v0s0,0,0,0,0,0-.05,0,0,0,0,0,0,0-.09-.07l-.08,0a.46.46,0,0,0-.07-.07s0,0,0,0v.08s0,0,0,0,0,0,0,0,0,.05,0,.05h0s0,0,0,0h0s0,.05,0,.05.05,0,0,0-.06,0,0,.06l0,0s0,0,0,0h0s0,0,0,0-.07,0-.08,0,0,.07,0,.09a.15.15,0,0,0,0,.08s0,0,0,0,0,0,0,0,0,0,0,0,0-.05,0,0a.43.43,0,0,0,0,.05h0a0,0,0,0,0,0,0s-.06-.06-.08,0l-.09,0s0,0,0,0h0s0,0,0,0a0,0,0,0,0,0-.05h-.05a.08.08,0,0,0,0,0h0l0,0h0s0,0,0,0h0v0a0,0,0,0,0,0,0h0v0s0-.06,0-.06,0,0,0,0,0,0-.05,0a.53.53,0,0,1-.18,0s0,0-.06,0,0,0-.06,0,0,0-.05,0,0,0,0,0,0,0,0,0,0,0,0,0,0,0-.06,0,0,0-.08,0,0,.09-.09.1l-.09,0s0,0-.06,0h-.09a.24.24,0,0,0-.14.05s-.08.09,0,.13h0s0,0,0,.06l.07,0a.14.14,0,0,0,0,.07s0,0,0,.05l0,0h0s0,0,0,0,0,0,.07,0l0,0,0,0s0,0,0,0,0,0,0,0a.24.24,0,0,1,0,.12s0,.09,0,.09h0s0,.07,0,.06.3,0,.35.11l.06.08a.23.23,0,0,1,0,.18,1.42,1.42,0,0,1-.18.27s0,.06,0,.09,0,.06.06.08.06.06.07.07,0,0,0,0,0,0,.07.08l0,.05h0s0,.06,0,.06,0,0,0,0,0,0,0,0h0s0,0-.06,0,0,.06,0,.08l0,0v0a.34.34,0,0,0-.13,0l0,0v0h0A.06.06,0,0,0,22,20a.26.26,0,0,0-.15,0s0,0,0,0-.05,0-.09-.05a.11.11,0,0,1-.06-.09.13.13,0,0,0-.05-.09h0a.11.11,0,0,0,0-.08h0s0-.05,0-.06-.06,0-.1,0a2,2,0,0,0-.25.12s0,.11,0,.06,0,0-.07-.05a2.23,2.23,0,0,0-.27,0,.11.11,0,0,1-.08,0H20.5a1,1,0,0,0-.12,0s-.08,0-.13,0-.08.07-.11.09l-.07.06h0l0,0a.06.06,0,0,0,0-.05l-.2-.15a.22.22,0,0,0-.11,0s-.08,0-.11,0l0,0h0a.08.08,0,0,0,0,0,.54.54,0,0,1-.05-.11c0-.08,0-.22,0-.25s0,0,0-.06,0,0,0,0,0-.07,0-.1,0,0,0,0,0,0,0,0,0,0,0-.05,0,0,0,0,0-.08,0-.07h0s0,0,0,0l0,0s.09,0,.09,0a0,0,0,0,1,0-.06s0-.07,0-.07h0s0,0,0-.05,0,0,0,0,.08,0,.06-.05,0,0,0,0h0s0-.05,0,0,.11,0,.14,0,.07-.08.06-.12,0-.12,0-.15a.09.09,0,0,0,0-.06h0a.06.06,0,0,0,0,0,1.17,1.17,0,0,0,0-.15s0-.06,0-.06h0s0-.06,0-.07h-.06a.38.38,0,0,1,.17-.05c.05,0,.06,0,.09,0h0s.09,0,.12,0,0,0-.08,0,0,0,0,0,0,0-.07,0h0s.05,0,0,0h0s0,0,.07,0,.1,0,.07,0,0,0,0,0a.45.45,0,0,0,.07-.14s0-.06,0-.1a.06.06,0,0,0,0-.07s0-.08,0-.07-.1,0-.12,0l0,0s.1-.07.1-.09,0,0-.06,0h0l0,0s0,0,0,0,0,0,0,0l-.06,0s0,0,0,0,.06-.06,0-.06l-.1,0s-.06,0-.11,0-.08,0,0,0,0,0,0,0h0a.09.09,0,0,0,.08,0s0,0-.05,0H20s.08,0,.16,0a.59.59,0,0,1,.21,0s0,0,0-.06,0,0,0,0l0,0v0h0l.05,0s.05,0,.05-.06,0,0-.05,0l0,0s0,0-.08,0h0a.53.53,0,0,1,.12,0s0,0,.05,0,.07.05.08.08,0,0,0,0,0,0,.05,0h0s0,.06,0,0,0,0,0,0,0,0,0,0h.08s0,0-.06,0,0,.05,0,.08h0s0,0,0,.06.08-.07.1-.11.05-.05.07-.07,0,0,0,0a.07.07,0,0,0,.06,0l0,0h0s0,0,0,.05.16-.08.13-.09a.15.15,0,0,0-.11,0l0,0h0s0,0,0,0,0,0,0,.07.05,0,.07,0,.05,0,.1.05l.1.08a.05.05,0,0,0,0,0s0,.05,0,.07h0l-.07,0s-.06.13-.08.16,0,0,.05,0v0s0,0,.09.05l-.05,0a.58.58,0,0,1-.17.14c-.08,0-.13,0-.17,0s0,0,0,0a.84.84,0,0,1,0,.12s0,.06,0,.08a.08.08,0,0,0,0,.07.54.54,0,0,0,.15,0c.06,0,.11-.11.12-.13s0,0,0,0h.1s0,0,0-.06,0,0,.06,0,0,0,.07-.05,0,0,0,0l.08,0H22s0,0,0,0,.05,0,.07,0,0,0,0,0,0,0,0,0a.17.17,0,0,0,.1,0h.1s.1,0,.14-.05,0,0,.09,0a.41.41,0,0,0,.21-.05.63.63,0,0,1,.19,0s0,0-.06-.06h0s-.06-.06-.1-.09a1.46,1.46,0,0,0-.22,0s0,0,0-.05,0,0,.12,0,0,0,0,0,0,0,.06,0,0,0,0,0,0,0,.08,0a1.09,1.09,0,0,0,.19,0c.07,0,0,0-.07,0s-.07-.05,0,0,0,0,0,0h0c.07,0,0,0,0,0h0l0,0s0,0,0,0,0,0,0,0l0,0c.07,0,0,0,0-.05h0s0,0,0,0l0,0c.05,0,0,0,0-.05a0,0,0,0,0,0,0s0,0,0,0,0,0,0,0a.24.24,0,0,0-.13,0h0s0,0,0,0a.08.08,0,0,0,0,0s0,0,0,0,0,0,0,0,0,0,0,0,0,0-.06,0,0,0,0,0,0,0-.06,0l-.08,0s-.05,0-.06,0a0,0,0,0,0,0-.06h0s0,0,0-.05h0s0,0,0,0,0,0,.08,0,.05,0,.08,0,0,0,.06-.05,0,0,0,0l0,.06s0,0,.06,0h0s0,0,0,.06,0,0,.07,0,0,0,0,.05,0,0,0,0,0,0,0,0,0,0,0,0,0,0,.06,0a.33.33,0,0,1,.1,0s0,0,0-.06h0s0,0,0,0h0s0,0,0-.05l0,0h0s0,0,0,0a.06.06,0,0,0,.08,0s0,0,0,0,0,0,0,0h0s0,0,0,0,0,0,0,0,0,0,.05-.07,0,0,0,0,0,0,0,0,0,0,0,0,0,0-.05,0h0s0,0,0,0l-.1,0s0,0-.05,0-.05,0,0,0,0,0,0,0a.13.13,0,0,1-.1,0s0,0-.11,0-.05,0,0,0,0,0,0,0-.06,0-.09,0,0,0,0,0,0,0,0,0,0,0,0,0a.19.19,0,0,0,0,.06s-.06,0-.1,0l-.14,0h-.12l0,0s0,0-.07,0h0s0,0,0,0l.05,0A.42.42,0,0,0,22,16s0,0-.07,0l-.14,0h0l.15-.08s0,0-.08,0l-.08,0,.06,0s0,0-.07,0h0s-.13-.07-.16-.07,0,0,0,0,0,0-.06.1h0a.11.11,0,0,0,0-.06,0,0,0,0,0,0-.05h-.05s0,0,0-.06-.08,0-.17.06,0,0,0,0,0,0-.07.07v0h0c0-.05,0-.05,0-.07s0,0,0,.06,0,0,0,.06a.06.06,0,0,0,0-.07s0,0-.05,0,0,0,0,0-.17,0-.19,0a.14.14,0,0,0,0,.08.77.77,0,0,1,0,.1h0a.14.14,0,0,0,0-.07s0,0,0,.08a0,0,0,0,0,0,0v0s0,0,0,0,0,0,0,.08h0s0,0,0,0v0c0-.05,0,0,0-.05h0l-.08,0h0a.1.1,0,0,0,0-.07s-.08,0-.13,0v0l-.06,0h0l.05,0a.09.09,0,0,0-.08,0l-.1,0h0s0,0-.09,0l.06,0s-.19-.09-.27-.08a.36.36,0,0,0-.19.11s-.17,0-.19.05,0,.09,0,.11h0a.05.05,0,0,0,0,0h0a.11.11,0,0,1-.09,0c0-.05-.1,0-.18,0a.28.28,0,0,0-.12.13s0,0,0,0,0,0,0,0,0,0-.06,0,0,0,0,0,0,0-.05,0,0,0,.1,0h0v0h-.06a.05.05,0,0,0,0,0s0,0,.09,0h.05s0,0,0,0l-.13,0c-.05,0,0,0,0,.05s0,0,0,0h0v0s0,0,0,.05h.05s0,0-.06.07,0,0,.07,0,0,0,0,0h0s0,0-.06,0,0,0,0,0h0s0-.05,0-.06h0a.69.69,0,0,1,0-.2l0-.08s0,0-.07,0l0-.07s-.07,0-.12,0a1.45,1.45,0,0,0-.23.19l-.1.21a.72.72,0,0,0,0,.2.71.71,0,0,0,.07.16s.05.09.07.11.05,0,.1,0,0,0,0,0h0s0,0,0,0a.11.11,0,0,0,.12,0s0,0,.11,0,.05-.05.07-.07h.21l0,0s0,0,0,0a.07.07,0,0,1,0,.05h0s0,0,0,0v0h0s0,.05,0,.06h.1s-.06,0-.05.09a1.11,1.11,0,0,1,0,.17.22.22,0,0,0,0,.08.05.05,0,0,0,0,0s0-.07-.05-.08-.05,0,0,0,0,.08,0,.08h0s0,.06,0,.06,0,0,0,0,0,0,0,0,0,.08,0,.08,0,0-.08-.05-.11,0-.13-.05,0,0,0,0,.07,0,0-.05l0,0s0,0,0,0l-.06-.06a.4.4,0,0,0-.19,0,.08.08,0,0,0,0,.07s0,.11,0,.13-.07.06-.09,0a.3.3,0,0,0-.08-.08s0,0,0,0,0,0,0,0,0,0-.05,0,0,0,0,0-.05,0,0,0l0,0s0,0,0,0,0,0,0,0,0,0-.05,0,0,0,0,0a.08.08,0,0,0-.08,0,.06.06,0,0,1-.05,0h0s0,0,0,0,0,0,0,0,0,0-.05,0a0,0,0,0,1,0,0h0s0,0,0,0,0,0-.06,0l-.05,0s0,0-.05,0,0,0-.06,0,0-.06-.06-.08l-.08,0s0,0-.09,0l-.05,0a1.25,1.25,0,0,0,0-.15s0,0,0,0a.1.1,0,0,1,0,0h0l0,0,.17-.06a1.55,1.55,0,0,0,0-.21s0-.11,0-.14h0s0,0,0-.06-.16,0-.21.05-.17.05-.23.08a.49.49,0,0,0-.15.12s0,0,.07,0l0,0h0s0,0,0,.08,0,0,0,.06h0s0,0,0,0A.11.11,0,0,1,18,17a.05.05,0,0,0,0,0s0,0,0,0,0,0,.09.06a.11.11,0,0,1,.08.07v0s0,0,0,0,0,0,0,0-.05.06,0,0h.06s0,0,0,0,0,0,0,0-.05,0-.06.05,0,.1,0,.11h0s0,.06,0,.06h0s0,.05,0,.06,0,0,0,0a.43.43,0,0,0,0,.05.38.38,0,0,0,.16.05s.08,0,.1,0,0,0,.06,0h.05s0,0,0,.06,0,.08,0,.06h0s0,.08,0,.06,0-.05,0-.07,0,0,0,0,0,0,0,0,0,.06,0,.08a.07.07,0,0,1,0,.07s-.09.06-.08.09,0,.05,0,.05h0s0,0,0,0l.05,0h0s0,0-.06,0,0,0,0,0h0s0,0,0-.05,0,0,0-.06a0,0,0,0,0,0,0h0s0-.05,0-.07,0,0,0,0,0,0,0,0h0a.24.24,0,0,0,.09-.08s0-.09,0-.07-.06,0-.07,0h0s.06-.1,0-.07-.06,0-.06,0,0,0,0-.05l-.09,0s0,0,0,0,0,0-.08,0-.12,0-.13,0,0,.1,0,.13S18,18,18,18s0,.05.06,0,0,0,0,0,0,.06.06,0l.13,0h0s0,0,0,0,0,0,0,0,0,0,0,0h0s0,0,0,0h0l0,0s0,0-.1.06-.14.1-.2.12a.38.38,0,0,1-.18.07c-.09,0-.17.05-.21.05s-.12,0-.17,0-.06-.07-.11-.06l.08,0s0,0,.07,0a.79.79,0,0,0,.26-.13l.07-.06s0,0,0,0,0,0,0,0l0-.05-.08,0h0v0a.1.1,0,0,1,0-.05s-.06,0-.08,0,0,0,0-.05,0,0,0,0,0,0,0,0l0-.05.24-.07s0,0,0-.07,0,0,0-.07-.1,0-.19,0-.08,0-.15,0a.22.22,0,0,1-.2,0v0s0,0,0-.05h0s0,0-.05-.07l-.22-.14h0s0-.13,0-.17,0,0,0,0a0,0,0,0,0,0,0s-.05,0-.1,0a.38.38,0,0,0-.17.08.15.15,0,0,1,0,.08s0,0,.07,0l0,0s0,0,0,0l-.12,0s0,0,0,.07,0,0,0,0v0s.16.14.23.19a.31.31,0,0,1-.09.07s-.13-.12-.15-.15-.1,0-.13,0a.61.61,0,0,0-.16,0c-.05,0,0,0,.09,0s0,0,0,0l-.11,0s0,0,.09,0h0s0,0,0,0a0,0,0,0,1,0,0s0,0,0,.06l-.05,0s0,0,0,0h0s0,0,0,0a.44.44,0,0,0-.22.07.15.15,0,0,0,0,.09s0,0-.07,0,0,0,0-.07a.19.19,0,0,0,0-.08s-.13.05-.16.09H15.5s0-.05,0-.06l-.26,0a.32.32,0,0,0-.18.05s-.05.08-.07.08a.2.2,0,0,0-.1,0c-.06,0-.23,0-.27.06l-.33.24s0,0,.07,0l0,0s.05,0,.09.06a.16.16,0,0,1,0,.07c0,.05,0,.08,0,.1l0,0s0,0,0,0h0a.06.06,0,0,0,0,.05.23.23,0,0,1,0,.12s0,.13,0,.11h0s0,.09,0,.08a.87.87,0,0,1,.19-.05c.06,0,.17,0,.22,0s0,0,.07,0a.25.25,0,0,1,.11-.12s.12-.06.11-.11-.06-.11,0-.17a.47.47,0,0,0,.07-.16,1,1,0,0,1,.15-.2l-.08.13s0,0,0,0,0,0,0,.05a.32.32,0,0,0,0,.14s0,0,0,0v.06s.09,0,.14,0,0,0,0,0,0,0,0,0,0,.1,0,.1.07.06.12.06.11,0,.19-.1a2,2,0,0,1,.26-.15l.13,0L16,18.8a.88.88,0,0,0-.27.22s0,0,.06,0,0,0,0,0,.11,0,.2.06.29-.11.31-.12.06,0,.08,0,.06,0,.12,0,.21-.14.28-.18a1.42,1.42,0,0,0,.17-.16s.05,0,.09-.07.09-.15.13-.19.05,0,.06,0h0a1.12,1.12,0,0,0-.16.13.22.22,0,0,0-.1.09s0,.06,0,.07,0,0,.05,0h0s0,.06,0,.07l.08,0h0s0,0,0,0h0s0,0,0,.06,0,0,.06,0,0,.06,0,.07,0,0,0,0l0,0h0v0s-.05,0,0,0,.05,0,0,0h0s0,0,0,0-.05,0,0,0,0,0,0,0h0s0,0,0,0-.05,0-.05,0,0,0,0,0,0,0,0,0,0,.05,0,0,0-.05,0,0l-.07,0s-.06,0-.08,0l-.06.11a2.69,2.69,0,0,1-.45.23l0,0a.05.05,0,0,1,0-.06s.1,0,0-.06h0s.08,0,0-.05-.11,0-.18,0-.09,0-.11,0,0,0,0,0a.15.15,0,0,1-.09,0,1.15,1.15,0,0,1-.24.07c-.06,0-.11,0-.16.05s-.18,0-.23,0a.54.54,0,0,0-.2.1s0,.11,0,.12a.15.15,0,0,1-.06,0s0,0,0,0l0,0h0s0-.1,0-.08-.06,0-.06,0,0-.09-.06-.08a.1.1,0,0,1,0,.05s0,0,0,.05,0,0,0,0,.05,0,0,0,0,.06,0,.06h0s0,0,0,0,0,0,0,0h0s-.05,0,0,0,0,.07,0,.07a.29.29,0,0,1-.16,0l-.12-.08a.72.72,0,0,0-.19,0s0,0,0,0h.1s0,0,0,0h-.07s0,0,0,0,0,0,0,0,0,0,0,.05,0,.09,0,.08,0-.05,0,0l0,0s0,0,0,0l-.07.05h0l0,0s.06-.05.05-.06,0,0,0,0l-.07.05s-.08,0-.08.07,0,0,0,.07l-.08.08a.14.14,0,0,0-.07.08s0,.07-.06.09,0,.06,0,0,0-.06,0-.05h-.08s0,0,0,0a.12.12,0,0,1-.05.06l0,.06s-.05.05,0,.06,0,0,0,0a0,0,0,0,1,0,0s0,0,0,0,0,0,0,0h0a.47.47,0,0,1-.17.06l-.23,0s-.06,0,0,0h0l-.21.12h-.24a2.2,2.2,0,0,0-.26.15l-.26.08a1.43,1.43,0,0,1-.29.1.71.71,0,0,0-.19.08l-.12.08-.11,0s-.08,0-.06,0a.16.16,0,0,0,0-.07l-.1.05-.07,0s-.1.08-.11.05h0a11.24,11.24,0,0,0-.23,1.29h0v0a0,0,0,0,1,0,0l0,0c0,.17,0,.34-.05.51h0l0-.06a.45.45,0,0,0,0,.11v0h0s0-.06,0-.09l.07-.08s0,0,0,0h0l0,0s0,0,.05,0a0,0,0,0,1,0,0s0,0,.06.05,0,0,0,0a.12.12,0,0,1-.06.1l-.09,0s0,.1,0,.12a.19.19,0,0,1-.11,0h0v.12h0a0,0,0,0,1,0,0c0,.11,0,.22,0,.32l0,0h0s0,0,0,0l0,0h0s0-.07,0-.1h0s0,.06,0,.06a.08.08,0,0,0,0,.07h0s0,.06,0,.06H11s.1,0,.13,0,.07-.06.1-.08.07,0,.06-.06a.2.2,0,0,1,0-.11l0,0a.08.08,0,0,0,0,.07l.08,0a0,0,0,0,0,0,0s0,0,0,0,0,0,0,.05h0s0,.08,0,0l0,0h0a.2.2,0,0,1,0,.07s0,.07,0,0,.07-.12.07-.11,0,.08,0,.06,0-.07,0-.1,0,0,.07,0,.06,0,.07,0l.09,0s0,0,0-.05,0-.07,0-.1,0,0,0,0h.06s0,0,0,0,0,0,0,0A.07.07,0,0,0,12,24s0,0,0,0h0s0,0,0,0h0s0,0,0,.05,0,.06,0,.06h0v0a.34.34,0,0,0-.06.15c0,.06,0,.07-.06.11s-.09.14-.08.16,0,0,0,0,0,0,0,0,0,0,0,0,0,0,0,0-.08,0-.09.1,0,.09,0,.1,0,0,0,0v0s0,.07.05,0a.36.36,0,0,0,.05-.13s0,0,0,0,0,.05,0,0,0-.06,0-.05,0,0,0,0,.06,0,0-.05,0,0,0,0,0,0,0,0l0-.05s.12-.11.1-.12,0,0,0,0a3.1,3.1,0,0,0,.18-.26s-.06,0,0,0a.48.48,0,0,0,.09-.11.61.61,0,0,1,.09-.16s0,0,0-.07.05-.06.05-.1,0,0-.06,0a.05.05,0,0,0,0,0s-.06,0-.09,0v0s.06-.07.08-.11,0-.08,0-.09h0a.07.07,0,0,0,.05-.07.33.33,0,0,1,0-.13.59.59,0,0,0,0-.08.08.08,0,0,0,0,.07s0,.1,0,.15,0,.05,0,0v0a.12.12,0,0,0,0,0h0a.13.13,0,0,0,.07,0s0,0,0,0,0,.07,0,.07.08,0,.11-.07a1.09,1.09,0,0,1,.06-.11.58.58,0,0,1,.1-.12s.08-.06.08-.09,0,0,0-.06h0s0,0,0-.05a.11.11,0,0,1,0-.06l.09,0,.11,0s0,0,0,0,0,0,0,0h0a.62.62,0,0,0,.13,0s0-.12,0-.08.06.06.1.06a.71.71,0,0,0,.16-.07l.07-.05s.08,0,.1,0,0,0,0,0,.16,0,.18-.07l0-.06v0h0s0,.06,0,.06a1.43,1.43,0,0,1,.21,0,1.38,1.38,0,0,0,.25,0s0-.07,0-.08,0,0,0,0h.06l0,0s0,0-.06.06,0,0,0,0,0,0,0,0l0,0s0,0,0,0,0,0,0,0,0,0,0,0,.05,0,.09,0,0,0,0,0,0,0,0,0h0s0,0,0,0,0,0,0,0,0,0,0,0h.06s0,0,0,0,0,0,0,0,0,0,.06,0,0-.05,0-.08h0l0-.05s0,0,0-.06h-.05s-.05,0-.09,0h0s0,0,0,0,0,0,0,0,0,0,0,0h-.11s0,0,0,0l.06,0,0-.06h0l-.06-.05.14.08s0,0,0,0,0,0,0,0h0s0,0,0,0,0,0,0,0H15s0,0,0,.05,0,0,0,0h0s.06,0,0,0h0s0,0,0,0h0l0,0s0,.09,0,.06,0,0,0-.05,0,0,0-.06h0a.11.11,0,0,1,0,0s0,0-.06,0h0l0,0s0,0,0-.05h0s0,0,0-.06,0,0,0,0,0,0,0,0v0s0,.06.08.07l.07,0h0s0,0,0,0h0l0,0s0,0,0,0h0c-.05,0-.07,0-.08,0s0,0,.05,0,0,0,0,0,0,0,0,0h0s0,0,0,0h0s0,0,0,0,0,.06,0,0,0,0,0-.05h0s0,0,0,0-.05,0,0,0h.05s0,0,0,0-.06,0,0,0,.07,0,.09,0v0h0s0,.06,0,0,0,0,0,0h0a0,0,0,0,1,0,0s0,0,0,0,.09,0,.07,0-.08,0-.05,0,.06,0,.08,0,.07,0,.05,0l-.06-.06s0,0,0,0a.6.6,0,0,0-.08-.08l0-.05h0s0,0,0,0,0,0,0,0l0,0h0s0,0,0,0-.06,0,0,0,.05-.05,0,0h0s.08,0,0,0h.07v0s0,0,.07,0,0,0,0,0l.06,0a.1.1,0,0,0,0,0s0,0,0,0a0,0,0,0,1,0,0s0,.1,0,.11,0,0,0,0,0-.06,0,0,.06.05,0,0,0,0,0,0,0,0,.05,0,0,0,0,0a.06.06,0,0,0,.07,0s0,.05,0,.05l0,0a0,0,0,0,0,0,.05h0s-.05,0,0,0,0,0,0,0,0,0,0,0h0s0,0,0,0,0,0,0,0a0,0,0,0,1,0,0s0,0,.07.05,0,0,0,0l0,0s0-.06,0,0h0s0,0,0,.06,0,0,0,0a.07.07,0,0,1,0,.06s0,0,0,0a.05.05,0,0,1,0,0,0,0,0,0,0,0,0s0,0,0,0h.06s0,0,0,0,0,0,.06,0h0a0,0,0,0,0,0,0h0a0,0,0,0,0,0,.06s.06,0,.07,0a0,0,0,0,0,0,0s0,0,0,0,0,0,0,0,0,0,0,0,.06,0,0,0,0,0,0,0a.13.13,0,0,0-.1,0s0,0,0,0,0,0,.09,0h0s0,0,0,0h0l0,0s0,0,0,0l.07,0h0s.05,0,0,0-.06,0-.05,0,0,.06.06,0,.07,0,.11,0,.06,0,.09,0,0,0,0,0-.06.06,0,0,.08,0,.09,0,0,.06,0,0,.07,0,.08-.06v0s0,0,.07,0l0,0h0a.38.38,0,0,0,.16.14c.07,0,0,.09.08.1h0v0l0,.05h0a.41.41,0,0,1,.05.09,1,1,0,0,1,.07.18c0,.05,0,.11,0,.15l0,0v0s.05.08.09.1l.06.06s0,.1,0,.12h0a.12.12,0,0,0,0,.05s.08,0,.11.07a.27.27,0,0,0,.1.11c.05,0,.06,0,.1,0s.06.06.07.05,0,0,0,0l.06,0s0,0,0,0,.06.06.09.06h.07a.07.07,0,0,0,0,.06,1.27,1.27,0,0,1,.23.08s0,.06.07.05l.21,0s.05,0,.09,0a.58.58,0,0,1,.21.07l0,0,.09.06.23.14c.05,0,0,.07.09.07a1.74,1.74,0,0,1,.22,0,.1.1,0,0,1,.05.06h0s-.11,0-.08.05l.08,0s-.07,0,0,0a.26.26,0,0,0,.19,0s.06,0,.09,0l.19,0h0s0,.05,0,.06h0s0,0,0,.07l.18,0,.18,0s.06,0,.06,0,0-.07,0-.08,0,0,0,0,0,0,0-.06-.05,0-.06,0,0,0-.05,0-.06,0-.09,0h0s0-.05,0-.06h0l-.13-.09a.18.18,0,0,0-.08-.07l-.19-.05s-.08-.08-.11-.09-.06,0-.09,0,0-.05-.1-.06-.09,0-.11,0l-.11-.14s0,0,0,0,.06,0,.08,0a0,0,0,0,1,.06,0s.06,0,.08,0,.06.08.13.14l.06,0s0,.05,0,0v0l0,0s0,.08,0,.05,0-.07,0-.05a.39.39,0,0,0,.13.05.22.22,0,0,0,.11,0s0,0,.06,0h.1s0,0,.06,0h.07s0,0,0,.06.08,0,.11,0h.06s.06,0,.07,0l.06,0,.12,0,.22.07.07,0s0,0,0,0h0a0,0,0,0,0,0,0s0,.07,0,.06h.05s0,0,0,0,0,0,0,0,0,.06,0,.08h0s0,0,0,.05a.56.56,0,0,0,.18.07s.08,0,.13,0a.19.19,0,0,0,.14,0s.12-.05.15,0h.28l.25,0c.07,0,.16,0,.2,0a.25.25,0,0,0,.14-.08.2.2,0,0,1,.08-.1.18.18,0,0,1,.14-.05c.07,0,.11,0,.15,0l.14,0h0s.1,0,.13,0a.88.88,0,0,1,.15-.05h0l.18,0a.2.2,0,0,0,.11-.06h0l0,0h0s0,.05,0,.06h0s.12.05.19.06a1,1,0,0,0,.15,0s0,0,0,.06h0s0,0,0,.05,0,0,0,0,0,0,.06,0,.05,0,0-.05h0s.05,0,.08,0,0,0,.05,0a.12.12,0,0,1,.1,0s.05,0,.07,0,0,0,.08,0h0A.35.35,0,0,1,25,26s.07,0,.07,0,0,0,0,0,0,.06.07,0,0,0,.05-.05.05,0,0,0H25.2s0,0,0,0h0v0l0-.09s0,0,.05-.05.05,0,.06,0,0,0,0,0h.05s0,0,0,.05a.39.39,0,0,0,.13.06s.1,0,.12.07v0a1.3,1.3,0,0,1,.08.17h0a.17.17,0,0,1,0,.05s0,0,0,0a.38.38,0,0,1,0,.16s-.05,0-.06.06,0,0,0,.07,0,0,0,0a0,0,0,0,1,0,0s0,0,0,.05-.06,0-.06.06-.05,0,0,.05a.19.19,0,0,1,0,.08s0,.07,0,.08a.07.07,0,0,1,0,.05s0,0,0,.07,0,0,0,.06h0s0,.06,0,.07h0s0,.05,0,.06.07,0,.08,0,0-.06,0-.08,0,0,0,0,0,0,0,0,0,0,0,0,0,0,0,0h0a.63.63,0,0,0,0,.09s0,.1,0,.14h0a.07.07,0,0,0,0,.05l.07,0s0,0,0,0,0,0,0,0h0s0,0,0,.06.13,0,.22,0a.94.94,0,0,0,.17.1l.23.17c.06.05.36.23.4.25l0,0h0l0,0a0,0,0,0,1,0,0s0,0,0,0,.17.08.19.09l.06,0s.28,0,.33,0a1.91,1.91,0,0,1,.28,0s0,0,.07,0h.11s.05.08.07.11l.1.16a.7.7,0,0,1,.1.25s0,.05,0,.07l0,0a0,0,0,0,1,0,0,.65.65,0,0,1,.09.13c0,.07,0,.12.06.16s.09.35.09.4l0,.05h0s0,.07.06.09,0,.07,0,.09l0,.05h0l.13.21s0,.09,0,.1,0,0,0,.06h0s.05.43.05.49,0,.08,0,.09a.08.08,0,0,0,0,.08s0,0,0,0,0,0,0,0,.08.09.12.12,0,0,0,0a0,0,0,0,1,0,0,.4.4,0,0,0,0,.11s0,.13.05.16v0a.08.08,0,0,1,0,0l0,0h0s0,0,0,0a2,2,0,0,1,.07.19h0l0,.07s.07,0,.08,0,0-.08,0-.08,0,0,0,0,0,0,0,0,0,0,0,0l0,0s0,0,0,0a0,0,0,0,1,0,0h0s0,0,0-.07l0,0s0,0,0,0a.06.06,0,0,0,0,.06.38.38,0,0,1,0,.13l0,0v0s0,0,0,0,0,0,0,.05h0v0h0v0l0,0v0s0,0,0,0h0a0,0,0,0,0,0,0h0s0,0,0,0,0,0,0,0v0l0,0s0,0,0,0,0,0-.05,0-.08,0-.09,0,0,0,0,0l0,.07s0,0,0,0,0,0,0,0-.05.06,0,.08,0,0,0,0,0,0,0,0,0,0,.05,0h0s-.05.07,0,.08a0,0,0,0,0,.05,0s0,0,0,0,0,0,.06,0h.05l0,0h0s0,0,0,0,0,.05,0,.06h0s0,.06,0,.06h0s0,0,0,0h0s0,0,0,0h0s0,.08,0,.07,0,0,0,0v0s0,.08,0,.08a0,0,0,0,0,0,0l0,0s0,0,0,0h0s0,0,0,0,0,0,0,0,0,0,0,0,0,0,0,0,0,0,0,0,0,0,0,0v0h0s0,0,0,0,0,0,0,0,0,0,0,0h0v0s0,0,0,0,0-.06,0-.06h0s0,0,0,0,0,.05.05,0a.05.05,0,0,0,0-.08l0,0a.06.06,0,0,0,0,0s0,0,0,0,0,0,0,0h0l0,0h0a.06.06,0,0,0,0,0s-.05,0-.06,0,0-.06,0-.05,0,0,0,.06,0,0,0,0-.05,0,0,0a.07.07,0,0,1,0,.05s0,.06,0,0v0s0,0,0,0,0,.07,0,.05,0,0,0,0,0,0,0,0l0,0v0h0v0s0,0,0,0,0,.06,0,0,0-.06,0-.06,0,0,0,.05,0,0,0,0l0,0s0,.12,0,.1v0s0,.11,0,.09,0-.06,0-.09h0s.05,0,.06,0l0,0h0s0,0,0,0l0,0,0,0s0,0,0,0l0,0h0s0,0,0,0,0,0,0,0h0s0,0,0,0,.05,0,0,0l0,0s0,0,0,0,0,0,0,0,0,0,0,0v0s0,.05,0,0h0l0,0s0,0,0,0a.08.08,0,0,0,0,0s0,0,0,0h0s0,0,.06,0h0l0,0s0,0,0,0,0,0,.06,0h0s-.05,0,0,0,0,0,0,0,0,0,0,0h0s0,0,0,0,0,0,0,0,0,0,0,0l.07,0h0a0,0,0,0,1,0,0h0a.54.54,0,0,0-.16,0h.22s0,0,0,0l.07,0,0,0h0l.06-.06a.43.43,0,0,1,0,0l0,0-.05,0s0,.05,0,.05h0l0,0,.12-.09a.12.12,0,0,1,0-.09c0-.06,0-.06.05-.08a.07.07,0,0,0,0,.06l0,0v0a.06.06,0,0,0,0,.06l.23-.19h0l-.06,0h0l.06,0h-.15s0,0,0,0,.09,0,.08,0l-.09,0s.07,0,.06,0-.13-.06-.16-.11l0-.06s0,0,0,0,.06-.08,0-.09,0,0-.05,0,0,0,0,0,0,0,0,0h0s0,0,.05,0a.09.09,0,0,0,.06-.05s0-.1,0-.13a.2.2,0,0,1,0-.14,1,1,0,0,0,.09-.15s0,0,0,0,0,0,0,0a0,0,0,0,1,0,0h0s0,0,0,0,0,0,0,0,0,0,0,0a0,0,0,0,0-.06,0c-.05,0-.09,0-.11,0h0a.13.13,0,0,1-.09,0,.16.16,0,0,1,0-.12s.06-.13.09-.13.05,0,.05,0,0-.06,0-.09,0-.08,0-.09a0,0,0,0,1,0,0l0,0a.36.36,0,0,1,0-.09s0,0,0,0h0l0,0h0s.05,0,.08,0a.08.08,0,0,0,0-.07l0,0a.09.09,0,0,0,0-.05s0,0-.05,0,0,.05,0,.06h-.07a.08.08,0,0,1-.08,0l-.05-.08s0,0,0,0,.13,0,.18,0a.22.22,0,0,0,.1-.09s0-.05,0-.06l0,0s0,0,0,0h0s0-.08,0-.09l0,0v0s0,0,0,0,0,0,0,0,0,.06,0,0,0,0,0,0a.51.51,0,0,0,.18-.13,1.44,1.44,0,0,0,.17-.16s.06-.07.05-.1a.24.24,0,0,1,0-.14.14.14,0,0,0,0-.09l0,0s0,0,0,0,0-.05-.06-.05h-.06s0-.05,0-.05h0v0a.24.24,0,0,0-.14,0h0l.13,0s.06,0,.1,0,0,0,.07,0,0,0,0-.05.08,0,.11-.05.08-.09.07-.14a.51.51,0,0,1,0-.09s0-.05,0-.07a1.21,1.21,0,0,0,0-.2.29.29,0,0,1,.06-.11,1.8,1.8,0,0,0,.06-.22.51.51,0,0,1,0-.25.56.56,0,0,0,.07-.17l0-.13,0,0v0s0-.05-.06-.08a.46.46,0,0,0,0-.09h0v0s0,0,0-.05a1,1,0,0,1,.05-.16.36.36,0,0,0,0-.07s.05-.09.09-.11.1,0,.08,0,0,0,0,0,0,0,.06-.07,0,0,0-.05,0,0,0,0,0,0,0,0,0,0,.07,0a.18.18,0,0,0,.05-.08s0,0,0,0,0,0,.08,0,.06,0,.05-.06,0-.09,0-.12a.09.09,0,0,0,0-.09.12.12,0,0,1,0-.13.62.62,0,0,0,0-.13s0,0,0-.06a.45.45,0,0,0,0-.1ZM17.54,18.26h0Zm12.79,15h0s0,0,0,0h0l0,0s0,0,0,0h0s0,0,0,0,0,0,0,0h0s0,0,0,0,0-.06,0-.06a0,0,0,0,1,0,0h0S30.32,33.29,30.33,33.28Zm.15.07h0l0,0h0v0Zm-.2-.09s0,0,0,0v0Zm0,0s0-.05,0,0h0l0,0,0,0h0Zm-.12-.07h0Zm-.82-8.13v.05h0v0h0a.13.13,0,0,0,0-.1s0,0,0,0a0,0,0,0,1,0,0s0,0,0,0h0s0,0,0,0a0,0,0,0,0,0,0h0l0,0h0l0,0h0a.08.08,0,0,1-.05,0s0-.06,0,0v.06Zm-4,.58h0ZM21.48,21.2s0,0,0,0,0,0,0,0,.05-.12,0-.1a.62.62,0,0,0-.09.12l-.07.09s0,.06-.07.08-.07,0-.09,0l-.05,0,.06-.12.08-.1.05-.08a.15.15,0,0,1,0-.08s0-.12,0-.1,0,0,.08,0,.11-.08.15,0,.08.08.11.06.11-.05.13,0a.57.57,0,0,0,.11.11l0,0s-.05,0-.06,0,0-.05,0,0a1.46,1.46,0,0,1-.19.16.43.43,0,0,1-.16,0h0S21.5,21.2,21.48,21.2Zm.27.39s0-.09,0-.06h0c0-.05,0-.09,0-.11s0,0,.06-.06.08-.09.15-.12h0l0,.05s0,.07,0,.07a.06.06,0,0,0-.05,0,.45.45,0,0,0,0,.26h0l0,.05a.43.43,0,0,1,.07.1h0a.66.66,0,0,1,0,.11S22,22,22,22l-.1-.11c0-.05-.06-.14-.07-.18s0-.11,0-.08Zm.32-.46.17-.07a.1.1,0,0,0,.09,0l.09,0s.08,0,.14,0l.07,0s0,0,0,0-.24,0-.2,0,.07,0,.07.05-.06,0,0,0l.05,0a.08.08,0,0,0,0,.08s.05.1,0,.12a.2.2,0,0,1-.06.09h0s-.05-.07-.06-.08,0-.06-.06,0,0,.09-.07.09,0-.08,0-.1l0,0v0s0-.07-.08-.07h-.08s0,0,0,0l-.07,0,0,0Zm.76.25.05,0-.14.19a.43.43,0,0,1-.17.13.6.6,0,0,0,.09-.18l.1,0S22.81,21.4,22.83,21.38Zm-.33.26s0,0,0,0h0S22.5,21.62,22.5,21.64ZM22,21.17l0,0Zm.95.09h0l0,0s0,0,.05,0,0,0,0,0Zm-.07-.05s0-.05,0-.06l.14-.1s0,0,0,0,0-.06.05-.07a0,0,0,0,1,.05,0,.15.15,0,0,1,0,.08l-.15.07s-.08.06-.12.09h0Zm.92.92h0s0,0,0,0h0Zm.06.06,0,0h0S23.81,22.18,23.81,22.19Zm-.1-.29-.05,0s0,0,0,0h0s0,0,0,0,0,0,0,0l-.13,0s0-.05,0-.06,0,0,0,0,0,0,0,0,.08,0,.09,0l0-.07s0-.06,0-.08a.08.08,0,0,1,0,0v0s0,0,0,0,0,.08.07.09l.06,0s0,0,0,.06,0,0,0,0V21.8h0s0,.07,0,.1h0S23.72,21.9,23.71,21.9Zm.79-2s0,0,0,0h0s0,0,0,0h0S24.5,19.92,24.5,19.93Zm.09-.07Zm0-.09Zm-.11,0s0,0,0,0h0Zm-.06.11h0s0,0,0,0Zm.1-.17s0,0,0,0,0,0,0,0,0,0-.06,0,0,0,0,0Zm0,0h0s0,0,0,0-.05,0-.08,0h.07Zm-.86.2h0s0,0,0-.05S23.66,19.91,23.65,19.93Zm.79-1.64s0,0,0,0,0,0,.05,0v0ZM19.69,21h0c-.06,0,0,0,0-.06s0,0,0,0h0s0-.05,0-.07.05,0,.12,0,.06,0,.09,0,.05.05.08.07.07,0,.09.08a0,0,0,0,0,0,0s0,.05,0,0,0,0-.08,0,0,0,0,0-.1,0-.16-.05h0S19.71,21,19.69,21Zm.39.12s0,0,0,0v0h0c0,.07,0,0,.08.06h0a.13.13,0,0,1,0,.06s0,0-.07,0ZM19.88,16c.06,0,.1,0,.15,0s.07,0,.11-.09,0,0,0,0h0s0,0,0,0l-.08,0s0,0,.06,0l.08,0-.1,0s0,0,.06,0h0s-.05,0-.05,0,0,0,0,0,0,0,0,.07,0,0-.06,0,0,.05,0,.07h0s0,0,0,0,0,0,0,0v0a.15.15,0,0,0,0-.07s0,0,0,0,0,0,0,0,0,0,0,0Zm-.45,2.75s0,0,0,0h.05Zm.12-.59h.16A.42.42,0,0,1,19.55,18.13Zm0,.78h0Zm.28-2,.05,0Zm.42-.16s0,0-.1,0,0,0,0,0h.11Zm.47-.79h0Zm.17.64h0Zm1.51.6h0s0,0,0,0l.05,0Zm-.6-.42s0,0,0,.08,0,0-.05-.05h0a.31.31,0,0,0,0-.08s.06,0,.1,0a.41.41,0,0,0,.11,0ZM21.6,16h0Zm-.3,0h0s0,0,0,0v0Zm-.06-.06,0,0h0s0,0,0,0Zm-.11,0s0,0,0,0l.06,0A.1.1,0,0,0,21.13,15.92Zm-.55,0h0s0,0,0,0h0Zm-1.07.74h0a.07.07,0,0,1,0,0v0h0l-.06,0h0a0,0,0,0,0,0,0h0Zm-.34.29h0l0,0s-.05,0-.08,0Zm.49,0h0s0,0,0,0h0Zm-2.55,1.87s0,0,0,0,0,0,0,0l0,0Zm-.22,4.32s0,0,0,0a0,0,0,0,0,0,0S16.88,23.12,16.89,23.14Zm-.28,0h0v0h0Zm.56-2.79h0s.05,0,0,0l0,0s0,0,0,0-.05,0-.09.07,0,0,0,.06,0,.08-.11.13a.36.36,0,0,1-.18.08,0,0,0,0,1,0,0c.07,0,0,0,0-.1s.06-.05.09-.09,0,0-.08,0l0,0s0,0-.08,0h0l.16,0a.21.21,0,0,1,.11,0S17.13,20.39,17.17,20.35Zm.09-.14s0,.06,0,.08l0-.08a.24.24,0,0,1,.1-.15l.05,0a.13.13,0,0,1-.08.09A.17.17,0,0,0,17.26,20.21Zm-.09,3.11-.09,0,0,0s.05,0,0,0L17,23.24c-.06,0-.12,0-.16,0l-.1-.06a0,0,0,0,0,0-.05,0,0,0,0,1,0,0h0a.21.21,0,0,1,0,.06s0,0,0,0h0a.09.09,0,0,0,0,.06s.11,0,.09,0v0h0l0,0s0,0,0,0h0s.07,0,.06,0,0,0,0,0,0,0,0,.05l.05,0,0,0a.29.29,0,0,1,.08.08h0s0,0,0,.05l0,0s0-.05,0-.05h0S17.2,23.32,17.17,23.32Zm.12-4.73h0s0,0-.05,0h0S17.3,18.55,17.29,18.59Zm-.16.46,0,0h0Zm-1.45,3.66h0ZM15.8,20s.21-.09.22-.1,0-.07.05-.09A.23.23,0,0,1,16,20s0,0-.08,0,0,0,0,.07,0,0,0,0v0h0a.31.31,0,0,0-.07.09v0l0,0s0-.07,0-.08-.07.05-.1.09,0,.06,0,.09-.05,0-.11.06h0s0-.06,0-.09,0,0,0,0v0l.1,0s0,0-.09,0l0,0h0s.09-.05.12-.06,0,0-.09,0-.07,0-.11.07l0,0s0,0,0,0l.1-.1a2.61,2.61,0,0,0,.2-.17.18.18,0,0,1,.08-.05s0,0,0,0,0,0,0,.05h.06s0,0,0,0S15.79,20,15.8,20ZM14,20.28h0s0,0-.05.06h0l0,0Zm.21-.29a.25.25,0,0,0,0,.07s0,0,0,0h0A.21.21,0,0,1,14.17,20Zm-.13.06h0a.17.17,0,0,0-.08.06l0,0Zm-.29.36h0ZM11,24s0,0,0,0h0Zm.74.76s0,0,0,0,0,0,0,0v0Zm.08,0v0h0ZM30,33.17s0,0,0,0a0,0,0,0,1,0,0Zm0,0h0a0,0,0,0,0,0,0Zm.54-1.92s0,0,0,0,0,0,0,0l-.07,0h0S30.52,31.25,30.54,31.25Z"/><path class="cls-6" d="M26.32,23.66c-.08,0-.08,0-.15,0s-.09.12,0,.09S26.36,23.65,26.32,23.66Z"/><path class="cls-6" d="M23.35,14.59s0,.06,0,0S23.38,14.58,23.35,14.59Z"/><path class="cls-6" d="M20.43,14.27a.17.17,0,0,0,.09,0S20.39,14.28,20.43,14.27Z"/><path class="cls-6" d="M30.42,15s0,0,0,0h0s0,0,0,0,0,0,0,0,0,0,0,0,0,0,0,0h0s0,0,0,0h.05s-.05.08,0,.07l.09,0v.09a.07.07,0,0,1,0,.06s0,0,0,0,0,0,0,0,0,.07,0,0,.05,0,.05,0h0l0,0s0,0,0,0h0s0,.06,0,0,.06-.06,0,0,0,.09,0,.06,0-.06,0,0,0,.05,0,0,0,0,.05,0a1.41,1.41,0,0,0,.14-.18s.09,0,.11-.08,0-.05,0-.09a.14.14,0,0,0,0-.12l0,0a.11.11,0,0,0,0-.05l-.06,0,0,0s0-.08,0-.09,0,0-.05,0h0s0,0,0,0,0,0-.06,0,0,0,0,0,0,0-.06,0,0,0-.06,0-.05,0-.07.06a0,0,0,0,1,0,0l0,0c-.05,0-.05,0-.08.05s0,0,0,0,0,0,0,0,0,0,0,0h0s0,0,0,0,0,0,0,0-.05,0-.05.05l-.07,0s-.08.06-.06.05,0,0,0,0S30.39,15,30.42,15Z"/><path class="cls-6" d="M30.54,14.22s.05,0,.06,0,0-.07,0-.06,0,0,0,0S30.51,14.22,30.54,14.22Z"/></g></g></svg>